M48
; DRILL file KiCad 10.0.6 date 2026-09-30T17:24:40
; FORMAT={-:-/ absolute / metric / decimal}
; #@! TF.CreationDate,2026-09-30T17:24:40-06:00
; #@! TF.GenerationSoftware,Kicad,Pcbnew,10.0.6
; #@! TF.FileFunction,Plated,1,4,PTH
FMAT,2
METRIC
; #@! TA.AperFunction,Plated,PTH,ViaDrill
T1C0.200
; #@! TA.AperFunction,Plated,PTH,ComponentDrill
T2C0.200
; #@! TA.AperFunction,Plated,PTH,ComponentDrill
T3C0.600
; #@! TA.AperFunction,Plated,PTH,ComponentDrill
T4C0.890
; #@! TA.AperFunction,Plated,PTH,ComponentDrill
T5C1.000
; #@! TA.AperFunction,Plated,PTH,ComponentDrill
T6C1.020
; #@! TA.AperFunction,Plated,PTH,ComponentDrill
T7C1.600
; #@! TA.AperFunction,Plated,PTH,ComponentDrill
T8C3.200
%
G90
G05
T1
X7.25Y-182.0
X10.275Y-163.5
X11.25Y-159.75
X12.0Y-156.5
X12.0Y-165.0
X14.25Y-163.0
X14.25Y-164.5
X14.25Y-167.25
X14.5Y-172.0
X17.286Y-191.286
X18.25Y-186.75
X18.25Y-192.0
X18.5Y-195.25
X19.75Y-158.25
X19.75Y-173.5
X19.75Y-179.5
X19.75Y-181.0
X20.5Y-162.5
X21.5Y-178.0
X21.75Y-186.25
X22.5Y-196.75
X22.75Y-151.5
X22.75Y-192.55
X22.846Y-158.848
X23.0Y-163.5
X23.5Y-189.0
X23.625Y-193.375
X23.75Y-146.0
X24.4Y-158.9
X24.5Y-163.5
X24.9Y-195.8
X25.0Y-164.75
X26.0Y-186.75
X26.75Y-170.25
X27.0Y-187.3
X27.0Y-188.2
X27.016Y-194.742
X27.5Y-151.6
X27.7Y-188.5
X28.0Y-193.5
X28.1Y-163.7
X28.7Y-189.4
X28.75Y-178.25
X29.0Y-155.5
X29.0Y-157.5
X29.0Y-160.0
X29.0Y-174.75
X29.0Y-183.9
X29.1Y-162.7
X29.1Y-166.0
X29.2Y-161.423
X29.25Y-192.077
X29.25Y-193.25
X29.25Y-198.5
X29.3Y-175.6
X29.3Y-179.5
X29.5Y-172.75
X29.75Y-150.5
X29.75Y-190.75
X29.764Y-166.221
X29.9Y-168.5
X29.9Y-169.4
X29.9Y-170.4
X30.5Y-166.6
X30.5Y-173.0
X30.8Y-163.6
X30.9Y-178.2
X30.9Y-187.2
X30.954Y-147.239
X31.408Y-151.408
X31.7Y-178.1
X31.75Y-155.0
X32.2Y-163.3
X32.3Y-177.7
X32.4Y-162.5
X32.5Y-155.5
X33.0Y-161.9
X33.0Y-178.117
X33.156Y-155.256
X33.5Y-146.75
X33.5Y-173.8
X33.5Y-177.5
X33.5Y-188.6
X33.5Y-189.75
X33.5Y-191.25
X33.5Y-192.75
X33.5Y-194.25
X33.7Y-162.9
X33.7Y-180.65
X33.827Y-155.745
X33.9Y-163.6
X34.0Y-182.75
X34.1Y-177.9
X34.25Y-152.25
X34.327Y-155.213
X34.7Y-178.3
X35.0Y-192.0
X35.0Y-193.5
X35.077Y-155.75
X35.1Y-183.4
X35.1Y-191.3
X35.752Y-155.25
X36.05Y-151.0
X36.5Y-155.0
X36.75Y-151.0
X36.75Y-163.75
X36.75Y-174.25
X36.8Y-182.5
X37.5Y-173.5
X37.5Y-187.9
X37.654Y-156.22
X37.7Y-177.5
X37.7Y-179.1
X37.7Y-180.4
X37.75Y-155.5
X37.75Y-167.5
X37.8Y-182.0
X38.0Y-164.25
X38.0Y-187.3
X38.35Y-145.65
X38.4Y-150.9
X38.7Y-186.7
X39.3Y-186.15
X39.5Y-175.25
X39.5Y-176.75
X39.5Y-178.25
X39.8Y-166.4
X40.3Y-184.329
X40.4Y-185.8
X40.5Y-181.25
X40.5Y-182.25
X40.529Y-169.45
X40.75Y-173.0
X41.0Y-185.25
X41.25Y-170.85
X41.516Y-162.284
X41.75Y-158.0
X42.0Y-169.2
X42.1Y-176.75
X42.1Y-177.5
X42.1Y-178.4
X42.5Y-159.25
X42.5Y-173.0
X42.55Y-181.25
X42.6Y-164.2
X42.75Y-168.6
X43.0Y-200.75
X43.033Y-160.717
X43.467Y-168.033
X43.7Y-188.7
X43.75Y-146.525
X43.857Y-161.423
X44.0Y-175.3
X44.1Y-164.2
X44.25Y-179.75
X44.5Y-166.2
X44.5Y-187.0
X44.5Y-200.75
X45.5Y-164.25
X46.6Y-183.6
X47.0Y-164.25
X47.4Y-167.977
X47.625Y-200.5
X47.75Y-179.3
X47.825Y-169.269
X47.825Y-175.55
X47.9Y-172.55
X47.9Y-183.7
X47.979Y-171.821
X48.0Y-171.05
X48.0Y-176.25
X48.0Y-177.75
X48.0Y-178.5
X48.0Y-184.5
X48.1Y-174.0
X48.707Y-168.429
X48.8Y-169.3
X49.25Y-186.0
X49.3Y-168.8
X49.7Y-171.2
X49.7Y-175.8
X50.012Y-168.75
X50.125Y-196.25
X50.2Y-180.1
X50.313Y-169.382
X50.4Y-176.9
X50.75Y-181.1
X50.827Y-184.2
X50.889Y-170.611
X51.0Y-185.5
X51.0Y-187.25
X51.051Y-169.46
X51.25Y-189.25
X51.25Y-203.25
X51.72Y-169.666
X51.781Y-168.9
X51.8Y-160.2
X52.2Y-163.673
X52.25Y-158.075
X52.332Y-183.899
X52.5Y-165.0
X52.565Y-169.916
X52.7Y-176.7
X52.75Y-174.55
X52.75Y-189.25
X52.75Y-203.25
X52.913Y-163.694
X52.986Y-176.014
X53.1Y-177.4
X53.2Y-172.0
X53.25Y-157.575
X53.25Y-186.75
X53.337Y-160.662
X53.637Y-169.617
X54.0Y-185.0
X54.25Y-172.15
X54.25Y-173.972
X54.308Y-169.029
X54.75Y-175.25
X54.75Y-176.028
X54.8Y-165.3
X55.0Y-187.25
X55.0Y-201.0
X55.1Y-179.15
X55.123Y-169.03
X55.25Y-181.0
X55.391Y-168.384
X55.5Y-186.7
X55.75Y-162.75
X56.3Y-183.8
X56.5Y-187.25
X56.5Y-201.0
X57.1Y-184.0
X57.25Y-159.75
X57.4Y-185.0
X57.75Y-181.2
X58.2Y-173.1
X58.25Y-186.75
X58.3Y-174.0
X58.9Y-173.3
X59.0Y-159.25
X59.279Y-181.121
X59.625Y-200.25
X59.742Y-179.516
X59.75Y-178.75
X59.75Y-187.25
X60.0Y-175.0
X60.1Y-181.0
X60.25Y-176.25
X60.25Y-178.173
X60.35Y-173.2
X60.352Y-170.908
X60.362Y-177.432
X60.5Y-174.0
X60.5Y-180.0
X60.55Y-171.579
X60.632Y-164.896
X60.675Y-169.129
X60.675Y-176.806
X60.7Y-170.3
X60.75Y-172.25
X60.75Y-189.25
X60.975Y-181.7
X62.125Y-196.25
X62.5Y-161.5
X63.25Y-175.5
X63.25Y-203.25
X63.5Y-189.25
X63.8Y-166.5
X64.0Y-175.75
X64.392Y-172.35
X64.5Y-156.25
X64.5Y-203.25
X64.75Y-189.25
X65.25Y-175.75
X65.3Y-169.5
X65.6Y-165.8
X66.0Y-156.0
X66.2Y-170.8
X66.25Y-172.75
X66.75Y-175.75
X66.75Y-179.25
X67.0Y-172.25
X67.0Y-187.0
X67.0Y-201.0
X67.25Y-171.25
X68.0Y-177.0
X68.5Y-187.0
X68.5Y-201.0
X68.8Y-161.2
X69.75Y-178.75
X69.95Y-157.5
X70.0Y-152.0
X70.25Y-167.5
X71.25Y-178.75
X71.5Y-152.1
X71.6Y-155.6
X71.6Y-158.0
X71.625Y-200.25
X72.75Y-178.75
X73.0Y-189.25
X73.5Y-173.75
X74.0Y-176.25
X74.125Y-196.25
X75.0Y-173.75
X75.0Y-176.25
X75.25Y-189.25
X75.25Y-203.25
X75.3Y-152.0
X75.3Y-155.6
X75.3Y-157.9
X75.8Y-177.6
X76.1Y-174.75
X76.25Y-166.5
X76.7Y-173.5
X76.75Y-189.25
X76.75Y-203.25
X77.3Y-174.0
X78.25Y-174.0
X78.7Y-162.2
X79.0Y-187.0
X79.0Y-201.0
X79.361Y-155.661
X79.5Y-157.3
X79.5Y-174.0
X80.25Y-162.0
X80.5Y-187.0
X80.5Y-201.0
X81.0Y-155.6
X81.5Y-180.75
X82.5Y-176.75
X82.7Y-156.4
X83.0Y-180.75
X83.25Y-176.75
X83.4Y-169.4
X83.5Y-173.5
X83.625Y-200.25
X84.25Y-156.5
X84.75Y-173.5
X85.0Y-169.3
X85.0Y-189.25
X86.125Y-196.25
X87.25Y-189.25
X87.25Y-203.25
X88.75Y-189.25
X88.75Y-203.25
X93.0Y-165.75
X93.0Y-168.75
X93.0Y-171.75
X93.0Y-174.75
X93.0Y-177.75
X93.0Y-180.75
X93.0Y-183.75
X93.0Y-186.75
T2
X24.75Y-190.25
X24.75Y-191.25
X24.75Y-192.25
X25.75Y-190.25
X25.75Y-191.25
X25.75Y-192.25
X26.75Y-190.25
X26.75Y-191.25
X26.75Y-192.25
T3
X16.75Y-176.25
X16.75Y-178.25
X20.5Y-167.75
X20.5Y-169.75
T4
X13.0Y-187.46
X13.0Y-190.0
X13.0Y-192.54
X13.0Y-195.08
X15.54Y-188.73
X15.54Y-191.27
X15.54Y-193.81
X15.54Y-196.35
T5
X2.775Y-172.45
X2.775Y-174.95
X45.11Y-149.785
X45.11Y-152.325
X47.65Y-149.785
X47.65Y-152.325
X50.19Y-149.785
X50.19Y-152.325
X52.73Y-149.785
X52.73Y-152.325
X55.27Y-149.785
X55.27Y-152.325
X57.81Y-149.785
X57.81Y-152.325
X60.35Y-149.785
X60.35Y-152.325
X62.89Y-149.785
X62.89Y-152.325
X67.01Y-146.5
X69.55Y-146.5
X72.09Y-146.5
X74.63Y-146.5
X77.17Y-146.5
X79.71Y-146.5
X82.25Y-146.5
X84.79Y-146.5
X87.33Y-146.5
X89.87Y-146.5
X95.975Y-166.61
X95.975Y-169.15
X95.975Y-171.69
X95.975Y-174.23
X95.975Y-176.77
X95.975Y-179.31
X95.975Y-181.85
X95.975Y-184.39
X98.515Y-166.61
X98.515Y-169.15
X98.515Y-171.69
X98.515Y-174.23
X98.515Y-176.77
X98.515Y-179.31
X98.515Y-181.85
X98.515Y-184.39
T6
X2.59Y-185.275
X2.59Y-187.815
X2.59Y-195.995
X2.59Y-198.535
T7
X9.7Y-184.16
X9.7Y-199.65
T8
X5.0Y-150.0
X5.0Y-205.0
X95.0Y-150.0
X95.0Y-205.0
T3
G00X3.075Y-155.43
M15
G01X2.275Y-155.43
M16
G05
G00X3.075Y-164.07
M15
G01X2.275Y-164.07
M16
G05
G00X7.405Y-155.43
M15
G01X6.305Y-155.43
M16
G05
G00X7.405Y-164.07
M15
G01X6.305Y-164.07
M16
G05
M30
