%TF.GenerationSoftware,KiCad,Pcbnew,10.0.6*%
%TF.CreationDate,2026-09-30T17:24:43-06:00*%
%TF.ProjectId,fpga_pcb,66706761-5f70-4636-922e-6b696361645f,rev?*%
%TF.SameCoordinates,Original*%
%TF.FileFunction,Copper,L1,Top*%
%TF.FilePolarity,Positive*%
%FSLAX46Y46*%
G04 Gerber Fmt 4.6, Leading zero omitted, Abs format (unit mm)*
G04 Created by KiCad (PCBNEW 10.0.6) date 2026-09-30 17:24:43*
%MOMM*%
%LPD*%
G01*
G04 APERTURE LIST*
G04 Aperture macros list*
%AMRoundRect*
0 Rectangle with rounded corners*
0 $1 Rounding radius*
0 $2 $3 $4 $5 $6 $7 $8 $9 X,Y pos of 4 corners*
0 Add a 4 corners polygon primitive as box body*
4,1,4,$2,$3,$4,$5,$6,$7,$8,$9,$2,$3,0*
0 Add four circle primitives for the rounded corners*
1,1,$1+$1,$2,$3*
1,1,$1+$1,$4,$5*
1,1,$1+$1,$6,$7*
1,1,$1+$1,$8,$9*
0 Add four rect primitives between the rounded corners*
20,1,$1+$1,$2,$3,$4,$5,0*
20,1,$1+$1,$4,$5,$6,$7,0*
20,1,$1+$1,$6,$7,$8,$9,0*
20,1,$1+$1,$8,$9,$2,$3,0*%
G04 Aperture macros list end*
%TA.AperFunction,EtchedComponent*%
%ADD10C,0.000000*%
%TD*%
%TA.AperFunction,SMDPad,CuDef*%
%ADD11RoundRect,0.200000X-0.275000X0.200000X-0.275000X-0.200000X0.275000X-0.200000X0.275000X0.200000X0*%
%TD*%
%TA.AperFunction,SMDPad,CuDef*%
%ADD12RoundRect,0.200000X0.200000X0.275000X-0.200000X0.275000X-0.200000X-0.275000X0.200000X-0.275000X0*%
%TD*%
%TA.AperFunction,SMDPad,CuDef*%
%ADD13RoundRect,0.225000X-0.225000X-0.250000X0.225000X-0.250000X0.225000X0.250000X-0.225000X0.250000X0*%
%TD*%
%TA.AperFunction,SMDPad,CuDef*%
%ADD14R,1.000000X0.900000*%
%TD*%
%TA.AperFunction,SMDPad,CuDef*%
%ADD15RoundRect,0.225000X-0.250000X0.225000X-0.250000X-0.225000X0.250000X-0.225000X0.250000X0.225000X0*%
%TD*%
%TA.AperFunction,SMDPad,CuDef*%
%ADD16RoundRect,0.150000X0.150000X0.700000X-0.150000X0.700000X-0.150000X-0.700000X0.150000X-0.700000X0*%
%TD*%
%TA.AperFunction,SMDPad,CuDef*%
%ADD17RoundRect,0.250000X0.250000X1.150000X-0.250000X1.150000X-0.250000X-1.150000X0.250000X-1.150000X0*%
%TD*%
%TA.AperFunction,SMDPad,CuDef*%
%ADD18RoundRect,0.200000X0.275000X-0.200000X0.275000X0.200000X-0.275000X0.200000X-0.275000X-0.200000X0*%
%TD*%
%TA.AperFunction,SMDPad,CuDef*%
%ADD19RoundRect,0.225000X0.225000X0.250000X-0.225000X0.250000X-0.225000X-0.250000X0.225000X-0.250000X0*%
%TD*%
%TA.AperFunction,SMDPad,CuDef*%
%ADD20RoundRect,0.150000X-0.425000X0.150000X-0.425000X-0.150000X0.425000X-0.150000X0.425000X0.150000X0*%
%TD*%
%TA.AperFunction,SMDPad,CuDef*%
%ADD21RoundRect,0.075000X-0.500000X0.075000X-0.500000X-0.075000X0.500000X-0.075000X0.500000X0.075000X0*%
%TD*%
%TA.AperFunction,ComponentPad*%
%ADD22O,2.100000X1.000000*%
%TD*%
%TA.AperFunction,ComponentPad*%
%ADD23O,1.800000X1.000000*%
%TD*%
%TA.AperFunction,SMDPad,CuDef*%
%ADD24RoundRect,0.200000X-0.200000X-0.275000X0.200000X-0.275000X0.200000X0.275000X-0.200000X0.275000X0*%
%TD*%
%TA.AperFunction,ComponentPad*%
%ADD25R,1.800000X1.800000*%
%TD*%
%TA.AperFunction,ComponentPad*%
%ADD26C,1.800000*%
%TD*%
%TA.AperFunction,ComponentPad*%
%ADD27C,2.000000*%
%TD*%
%TA.AperFunction,ComponentPad*%
%ADD28C,3.000000*%
%TD*%
%TA.AperFunction,SMDPad,CuDef*%
%ADD29RoundRect,0.250000X-0.650000X1.000000X-0.650000X-1.000000X0.650000X-1.000000X0.650000X1.000000X0*%
%TD*%
%TA.AperFunction,SMDPad,CuDef*%
%ADD30RoundRect,0.218750X-0.218750X-0.256250X0.218750X-0.256250X0.218750X0.256250X-0.218750X0.256250X0*%
%TD*%
%TA.AperFunction,SMDPad,CuDef*%
%ADD31RoundRect,0.225000X0.250000X-0.225000X0.250000X0.225000X-0.250000X0.225000X-0.250000X-0.225000X0*%
%TD*%
%TA.AperFunction,SMDPad,CuDef*%
%ADD32C,1.000000*%
%TD*%
%TA.AperFunction,ComponentPad*%
%ADD33C,5.600000*%
%TD*%
%TA.AperFunction,SMDPad,CuDef*%
%ADD34RoundRect,0.218750X-0.256250X0.218750X-0.256250X-0.218750X0.256250X-0.218750X0.256250X0.218750X0*%
%TD*%
%TA.AperFunction,SMDPad,CuDef*%
%ADD35RoundRect,0.250000X0.450000X0.350000X-0.450000X0.350000X-0.450000X-0.350000X0.450000X-0.350000X0*%
%TD*%
%TA.AperFunction,SMDPad,CuDef*%
%ADD36RoundRect,0.250000X-0.650000X0.325000X-0.650000X-0.325000X0.650000X-0.325000X0.650000X0.325000X0*%
%TD*%
%TA.AperFunction,SMDPad,CuDef*%
%ADD37RoundRect,0.150000X-0.512500X-0.150000X0.512500X-0.150000X0.512500X0.150000X-0.512500X0.150000X0*%
%TD*%
%TA.AperFunction,SMDPad,CuDef*%
%ADD38RoundRect,0.218750X0.256250X-0.218750X0.256250X0.218750X-0.256250X0.218750X-0.256250X-0.218750X0*%
%TD*%
%TA.AperFunction,ComponentPad*%
%ADD39C,1.200000*%
%TD*%
%TA.AperFunction,ComponentPad*%
%ADD40R,1.700000X1.700000*%
%TD*%
%TA.AperFunction,ComponentPad*%
%ADD41C,1.700000*%
%TD*%
%TA.AperFunction,SMDPad,CuDef*%
%ADD42RoundRect,0.050000X-0.285000X-0.100000X0.285000X-0.100000X0.285000X0.100000X-0.285000X0.100000X0*%
%TD*%
%TA.AperFunction,SMDPad,CuDef*%
%ADD43RoundRect,0.062500X0.062500X-0.375000X0.062500X0.375000X-0.062500X0.375000X-0.062500X-0.375000X0*%
%TD*%
%TA.AperFunction,SMDPad,CuDef*%
%ADD44RoundRect,0.062500X0.375000X-0.062500X0.375000X0.062500X-0.375000X0.062500X-0.375000X-0.062500X0*%
%TD*%
%TA.AperFunction,HeatsinkPad*%
%ADD45C,0.500000*%
%TD*%
%TA.AperFunction,HeatsinkPad*%
%ADD46R,2.500000X2.500000*%
%TD*%
%TA.AperFunction,SMDPad,CuDef*%
%ADD47RoundRect,0.200000X-0.200000X-0.250000X0.200000X-0.250000X0.200000X0.250000X-0.200000X0.250000X0*%
%TD*%
%TA.AperFunction,SMDPad,CuDef*%
%ADD48RoundRect,0.100000X0.100000X-0.637500X0.100000X0.637500X-0.100000X0.637500X-0.100000X-0.637500X0*%
%TD*%
%TA.AperFunction,ComponentPad*%
%ADD49RoundRect,0.250000X0.750000X-0.600000X0.750000X0.600000X-0.750000X0.600000X-0.750000X-0.600000X0*%
%TD*%
%TA.AperFunction,ComponentPad*%
%ADD50O,2.000000X1.700000*%
%TD*%
%TA.AperFunction,SMDPad,CuDef*%
%ADD51RoundRect,0.218750X0.218750X0.256250X-0.218750X0.256250X-0.218750X-0.256250X0.218750X-0.256250X0*%
%TD*%
%TA.AperFunction,SMDPad,CuDef*%
%ADD52RoundRect,0.150000X0.512500X0.150000X-0.512500X0.150000X-0.512500X-0.150000X0.512500X-0.150000X0*%
%TD*%
%TA.AperFunction,SMDPad,CuDef*%
%ADD53RoundRect,0.250000X-0.375000X-1.075000X0.375000X-1.075000X0.375000X1.075000X-0.375000X1.075000X0*%
%TD*%
%TA.AperFunction,SMDPad,CuDef*%
%ADD54RoundRect,0.075000X0.075000X-0.725000X0.075000X0.725000X-0.075000X0.725000X-0.075000X-0.725000X0*%
%TD*%
%TA.AperFunction,SMDPad,CuDef*%
%ADD55RoundRect,0.075000X0.725000X-0.075000X0.725000X0.075000X-0.725000X0.075000X-0.725000X-0.075000X0*%
%TD*%
%TA.AperFunction,SMDPad,CuDef*%
%ADD56RoundRect,0.150000X-0.150000X0.512500X-0.150000X-0.512500X0.150000X-0.512500X0.150000X0.512500X0*%
%TD*%
%TA.AperFunction,SMDPad,CuDef*%
%ADD57RoundRect,0.075000X-0.700000X-0.075000X0.700000X-0.075000X0.700000X0.075000X-0.700000X0.075000X0*%
%TD*%
%TA.AperFunction,SMDPad,CuDef*%
%ADD58RoundRect,0.075000X-0.075000X-0.700000X0.075000X-0.700000X0.075000X0.700000X-0.075000X0.700000X0*%
%TD*%
%TA.AperFunction,SMDPad,CuDef*%
%ADD59R,0.279400X1.353299*%
%TD*%
%TA.AperFunction,SMDPad,CuDef*%
%ADD60C,0.500000*%
%TD*%
%TA.AperFunction,SMDPad,CuDef*%
%ADD61R,0.650000X0.850000*%
%TD*%
%TA.AperFunction,SMDPad,CuDef*%
%ADD62RoundRect,0.100000X-0.100000X0.637500X-0.100000X-0.637500X0.100000X-0.637500X0.100000X0.637500X0*%
%TD*%
%TA.AperFunction,ViaPad*%
%ADD63C,0.500000*%
%TD*%
%TA.AperFunction,Conductor*%
%ADD64C,0.254000*%
%TD*%
%TA.AperFunction,Conductor*%
%ADD65C,0.500000*%
%TD*%
%TA.AperFunction,Conductor*%
%ADD66C,0.200000*%
%TD*%
G04 APERTURE END LIST*
D10*
%TA.AperFunction,EtchedComponent*%
%TO.C,G\u002A\u002A\u002A*%
G36*
X36853489Y-198810814D02*
G01*
X36948542Y-198871461D01*
X37024862Y-198956361D01*
X37075971Y-199059492D01*
X37095394Y-199174829D01*
X37093712Y-199214891D01*
X37062962Y-199332376D01*
X36999756Y-199431457D01*
X36911572Y-199507729D01*
X36805882Y-199556789D01*
X36690164Y-199574234D01*
X36571892Y-199555661D01*
X36537439Y-199542586D01*
X36442395Y-199479822D01*
X36368170Y-199389090D01*
X36320075Y-199281195D01*
X36303425Y-199166945D01*
X36313712Y-199087482D01*
X36362143Y-198966419D01*
X36437176Y-198876501D01*
X36542308Y-198814434D01*
X36633083Y-198786383D01*
X36746177Y-198780447D01*
X36853489Y-198810814D01*
G37*
%TD.AperFunction*%
%TA.AperFunction,EtchedComponent*%
G36*
X35325776Y-198800771D02*
G01*
X35425941Y-198849978D01*
X35504352Y-198923736D01*
X35559406Y-199015295D01*
X35589497Y-199117903D01*
X35593022Y-199224808D01*
X35568375Y-199329258D01*
X35513953Y-199424503D01*
X35428150Y-199503790D01*
X35383092Y-199530340D01*
X35287191Y-199561949D01*
X35179832Y-199570702D01*
X35079323Y-199556154D01*
X35035000Y-199538797D01*
X34923027Y-199461006D01*
X34848292Y-199363207D01*
X34810414Y-199244804D01*
X34805206Y-199180085D01*
X34822841Y-199056428D01*
X34875694Y-198949237D01*
X34958045Y-198864186D01*
X35064179Y-198806949D01*
X35188376Y-198783201D01*
X35205462Y-198782869D01*
X35325776Y-198800771D01*
G37*
%TD.AperFunction*%
%TA.AperFunction,EtchedComponent*%
G36*
X32315477Y-198797618D02*
G01*
X32414469Y-198845110D01*
X32502135Y-198925807D01*
X32553711Y-198994547D01*
X32581455Y-199062957D01*
X32589624Y-199146110D01*
X32585883Y-199222284D01*
X32556094Y-199344938D01*
X32490141Y-199446474D01*
X32390278Y-199523551D01*
X32378200Y-199529945D01*
X32281207Y-199561779D01*
X32173068Y-199569955D01*
X32071990Y-199554115D01*
X32029333Y-199536836D01*
X31920943Y-199458615D01*
X31847418Y-199358426D01*
X31810888Y-199239661D01*
X31807083Y-199182721D01*
X31825660Y-199052720D01*
X31878274Y-198942959D01*
X31960244Y-198858217D01*
X32066892Y-198803270D01*
X32193540Y-198782897D01*
X32198666Y-198782869D01*
X32315477Y-198797618D01*
G37*
%TD.AperFunction*%
%TA.AperFunction,EtchedComponent*%
G36*
X33823097Y-198801958D02*
G01*
X33931841Y-198855245D01*
X34018760Y-198936762D01*
X34070570Y-199028419D01*
X34091892Y-199134428D01*
X34084491Y-199248808D01*
X34051442Y-199357579D01*
X33995823Y-199446757D01*
X33973627Y-199468989D01*
X33876567Y-199530670D01*
X33764248Y-199565002D01*
X33649674Y-199569984D01*
X33545853Y-199543613D01*
X33532166Y-199536912D01*
X33423675Y-199462514D01*
X33352784Y-199371245D01*
X33316448Y-199258066D01*
X33309916Y-199169205D01*
X33317150Y-199074060D01*
X33343901Y-198999254D01*
X33397739Y-198925661D01*
X33413044Y-198908735D01*
X33507828Y-198830517D01*
X33615727Y-198790399D01*
X33701500Y-198782869D01*
X33823097Y-198801958D01*
G37*
%TD.AperFunction*%
%TA.AperFunction,EtchedComponent*%
G36*
X30822665Y-198801983D02*
G01*
X30931757Y-198855842D01*
X31016740Y-198939220D01*
X31072372Y-199046895D01*
X31093414Y-199173640D01*
X31093464Y-199180386D01*
X31079361Y-199294337D01*
X31033774Y-199390751D01*
X30951783Y-199479277D01*
X30933171Y-199494803D01*
X30877429Y-199533703D01*
X30821130Y-199554948D01*
X30745803Y-199564765D01*
X30721504Y-199566180D01*
X30617889Y-199564483D01*
X30543358Y-199546200D01*
X30526500Y-199538025D01*
X30416737Y-199459418D01*
X30345287Y-199363553D01*
X30310829Y-199248053D01*
X30308587Y-199145446D01*
X30336762Y-199020720D01*
X30398329Y-198917109D01*
X30487832Y-198839735D01*
X30599816Y-198793720D01*
X30694704Y-198782869D01*
X30822665Y-198801983D01*
G37*
%TD.AperFunction*%
%TA.AperFunction,EtchedComponent*%
G36*
X38351809Y-201112122D02*
G01*
X38466788Y-201126949D01*
X38506333Y-201136164D01*
X38711574Y-201214770D01*
X38898782Y-201328990D01*
X39063371Y-201474296D01*
X39200758Y-201646161D01*
X39306357Y-201840059D01*
X39355401Y-201974500D01*
X39382978Y-202111221D01*
X39393786Y-202268789D01*
X39388105Y-202430691D01*
X39366214Y-202580411D01*
X39343757Y-202662417D01*
X39252938Y-202864831D01*
X39129182Y-203046560D01*
X38977184Y-203203174D01*
X38801642Y-203330244D01*
X38607250Y-203423340D01*
X38502032Y-203456397D01*
X38393610Y-203475244D01*
X38261160Y-203484442D01*
X38121157Y-203484019D01*
X37990074Y-203474004D01*
X37887727Y-203455340D01*
X37687179Y-203379949D01*
X37503783Y-203268513D01*
X37341811Y-203125312D01*
X37205534Y-202954628D01*
X37099224Y-202760741D01*
X37043729Y-202609500D01*
X37017940Y-202480299D01*
X37007169Y-202329038D01*
X37011399Y-202173229D01*
X37030615Y-202030387D01*
X37044294Y-201974500D01*
X37126637Y-201765283D01*
X37243913Y-201578280D01*
X37393518Y-201416129D01*
X37572851Y-201281468D01*
X37779308Y-201176937D01*
X37860750Y-201146861D01*
X37958485Y-201124561D01*
X38082807Y-201111175D01*
X38218866Y-201106946D01*
X38351809Y-201112122D01*
G37*
%TD.AperFunction*%
%TA.AperFunction,EtchedComponent*%
G36*
X29616328Y-201117200D02*
G01*
X29826401Y-201177818D01*
X30021700Y-201278010D01*
X30201531Y-201417482D01*
X30241106Y-201455560D01*
X30389681Y-201631690D01*
X30499044Y-201823450D01*
X30568902Y-202030146D01*
X30598960Y-202251081D01*
X30600215Y-202304489D01*
X30590790Y-202421234D01*
X30564775Y-202557246D01*
X30526508Y-202694995D01*
X30480325Y-202816947D01*
X30466043Y-202846911D01*
X30357092Y-203017626D01*
X30214410Y-203171715D01*
X30045356Y-203302726D01*
X29857290Y-203404208D01*
X29806833Y-203424715D01*
X29701130Y-203453485D01*
X29568306Y-203473055D01*
X29422694Y-203482815D01*
X29278626Y-203482154D01*
X29150433Y-203470462D01*
X29078960Y-203455708D01*
X28890431Y-203382563D01*
X28713977Y-203274960D01*
X28555288Y-203138878D01*
X28420056Y-202980297D01*
X28313970Y-202805197D01*
X28242721Y-202619559D01*
X28228922Y-202562379D01*
X28213560Y-202440769D01*
X28210883Y-202298345D01*
X28219912Y-202150326D01*
X28239664Y-202011928D01*
X28269160Y-201898369D01*
X28272279Y-201889833D01*
X28364431Y-201698772D01*
X28488020Y-201524423D01*
X28636497Y-201374262D01*
X28803313Y-201255766D01*
X28849755Y-201230623D01*
X28963830Y-201182954D01*
X29098796Y-201141940D01*
X29237120Y-201111918D01*
X29361270Y-201097225D01*
X29392177Y-201096451D01*
X29616328Y-201117200D01*
G37*
%TD.AperFunction*%
%TA.AperFunction,EtchedComponent*%
G36*
X36151633Y-196853875D02*
G01*
X36216215Y-196893178D01*
X36256699Y-196954978D01*
X36271686Y-197027630D01*
X36259773Y-197099489D01*
X36219560Y-197158911D01*
X36190755Y-197179087D01*
X36163981Y-197185991D01*
X36099060Y-197199327D01*
X35999588Y-197218468D01*
X35869160Y-197242790D01*
X35711370Y-197271667D01*
X35529814Y-197304473D01*
X35328087Y-197340585D01*
X35109783Y-197379376D01*
X34878498Y-197420220D01*
X34637826Y-197462494D01*
X34391362Y-197505571D01*
X34142702Y-197548827D01*
X33895440Y-197591635D01*
X33653171Y-197633372D01*
X33419491Y-197673410D01*
X33197993Y-197711126D01*
X32992274Y-197745893D01*
X32805927Y-197777088D01*
X32642549Y-197804083D01*
X32505733Y-197826255D01*
X32399076Y-197842977D01*
X32326171Y-197853625D01*
X32290613Y-197857573D01*
X32289839Y-197857583D01*
X32222999Y-197846973D01*
X32174293Y-197808979D01*
X32168452Y-197801812D01*
X32131296Y-197726748D01*
X32128529Y-197648464D01*
X32159879Y-197579683D01*
X32173511Y-197564997D01*
X32185872Y-197556436D01*
X32206821Y-197547140D01*
X32238829Y-197536633D01*
X32284370Y-197524437D01*
X32345916Y-197510077D01*
X32425939Y-197493074D01*
X32526910Y-197472953D01*
X32651303Y-197449236D01*
X32801590Y-197421447D01*
X32980242Y-197389108D01*
X33189733Y-197351744D01*
X33432534Y-197308876D01*
X33711117Y-197260030D01*
X34027956Y-197204726D01*
X34167845Y-197180362D01*
X34449714Y-197131490D01*
X34720139Y-197084989D01*
X34976154Y-197041346D01*
X35214794Y-197001050D01*
X35433092Y-196964587D01*
X35628085Y-196932447D01*
X35796807Y-196905117D01*
X35936292Y-196883086D01*
X36043575Y-196866841D01*
X36115691Y-196856871D01*
X36149674Y-196853662D01*
X36151633Y-196853875D01*
G37*
%TD.AperFunction*%
%TA.AperFunction,EtchedComponent*%
G36*
X36513782Y-196120820D02*
G01*
X36571692Y-196159115D01*
X36615819Y-196216707D01*
X36633083Y-196275844D01*
X36620490Y-196333379D01*
X36589656Y-196393597D01*
X36550995Y-196438351D01*
X36533952Y-196448560D01*
X36507811Y-196454101D01*
X36443121Y-196465925D01*
X36343114Y-196483496D01*
X36211022Y-196506280D01*
X36050077Y-196533742D01*
X35863511Y-196565346D01*
X35654556Y-196600559D01*
X35426444Y-196638844D01*
X35182406Y-196679667D01*
X34925674Y-196722493D01*
X34659482Y-196766788D01*
X34387059Y-196812015D01*
X34111639Y-196857641D01*
X33836454Y-196903130D01*
X33564734Y-196947948D01*
X33299713Y-196991559D01*
X33044622Y-197033429D01*
X32802693Y-197073022D01*
X32577158Y-197109804D01*
X32371249Y-197143239D01*
X32188197Y-197172793D01*
X32031236Y-197197932D01*
X31903596Y-197218119D01*
X31808509Y-197232820D01*
X31749209Y-197241500D01*
X31729620Y-197243750D01*
X31679383Y-197229170D01*
X31628323Y-197193874D01*
X31626204Y-197191795D01*
X31584564Y-197124427D01*
X31576536Y-197049089D01*
X31598951Y-196977428D01*
X31648638Y-196921086D01*
X31707127Y-196894574D01*
X31733863Y-196889709D01*
X31799659Y-196878369D01*
X31901810Y-196861009D01*
X32037613Y-196838080D01*
X32204364Y-196810036D01*
X32399360Y-196777329D01*
X32619897Y-196740412D01*
X32863272Y-196699739D01*
X33126781Y-196655761D01*
X33407721Y-196608933D01*
X33703387Y-196559706D01*
X34011076Y-196508533D01*
X34108210Y-196492390D01*
X34499359Y-196427532D01*
X34850374Y-196369631D01*
X35162839Y-196318441D01*
X35438337Y-196273719D01*
X35678449Y-196235219D01*
X35884760Y-196202698D01*
X36058851Y-196175911D01*
X36202307Y-196154613D01*
X36316709Y-196138560D01*
X36403641Y-196127507D01*
X36464685Y-196121210D01*
X36501425Y-196119425D01*
X36513782Y-196120820D01*
G37*
%TD.AperFunction*%
%TA.AperFunction,EtchedComponent*%
G36*
X36860277Y-195383310D02*
G01*
X36875592Y-195386682D01*
X36884975Y-195390576D01*
X36937448Y-195427669D01*
X36964055Y-195477893D01*
X36971737Y-195554725D01*
X36971750Y-195559041D01*
X36972564Y-195578833D01*
X36973657Y-195596644D01*
X36973003Y-195612899D01*
X36968578Y-195628020D01*
X36958357Y-195642433D01*
X36940314Y-195656560D01*
X36912425Y-195670827D01*
X36872664Y-195685656D01*
X36819007Y-195701471D01*
X36749429Y-195718697D01*
X36661904Y-195737758D01*
X36554408Y-195759076D01*
X36424916Y-195783076D01*
X36271402Y-195810183D01*
X36091841Y-195840819D01*
X35884210Y-195875408D01*
X35646482Y-195914375D01*
X35376632Y-195958144D01*
X35072636Y-196007138D01*
X34732469Y-196061780D01*
X34354106Y-196122496D01*
X34035623Y-196173627D01*
X33694322Y-196228424D01*
X33364493Y-196281333D01*
X33048556Y-196331967D01*
X32748928Y-196379940D01*
X32468028Y-196424868D01*
X32208275Y-196466364D01*
X31972088Y-196504042D01*
X31761885Y-196537518D01*
X31580084Y-196566405D01*
X31429104Y-196590317D01*
X31311364Y-196608870D01*
X31229283Y-196621677D01*
X31185278Y-196628353D01*
X31178203Y-196629273D01*
X31148256Y-196619194D01*
X31119166Y-196604351D01*
X31056412Y-196548042D01*
X31025597Y-196476183D01*
X31028609Y-196400015D01*
X31067334Y-196330781D01*
X31072356Y-196325553D01*
X31091786Y-196309932D01*
X31120041Y-196295698D01*
X31162154Y-196281697D01*
X31223163Y-196266778D01*
X31308103Y-196249789D01*
X31422009Y-196229578D01*
X31569917Y-196204991D01*
X31670314Y-196188748D01*
X31767016Y-196173195D01*
X31901930Y-196151492D01*
X32071473Y-196124214D01*
X32272063Y-196091940D01*
X32500117Y-196055245D01*
X32752051Y-196014705D01*
X33024283Y-195970898D01*
X33313229Y-195924400D01*
X33615307Y-195875788D01*
X33926933Y-195825637D01*
X34244526Y-195774525D01*
X34522165Y-195729842D01*
X34883050Y-195671798D01*
X35204493Y-195620204D01*
X35488837Y-195574723D01*
X35738425Y-195535019D01*
X35955602Y-195500756D01*
X36142710Y-195471596D01*
X36302093Y-195447203D01*
X36436095Y-195427242D01*
X36547059Y-195411375D01*
X36637328Y-195399265D01*
X36709246Y-195390578D01*
X36765156Y-195384975D01*
X36807402Y-195382120D01*
X36838328Y-195381678D01*
X36860277Y-195383310D01*
G37*
%TD.AperFunction*%
%TA.AperFunction,EtchedComponent*%
%TO.C,NT1*%
G36*
X32200000Y-195650000D02*
G01*
X31200000Y-195650000D01*
X31200000Y-195150000D01*
X32200000Y-195150000D01*
X32200000Y-195650000D01*
G37*
%TD.AperFunction*%
%TD*%
D11*
%TO.P,R61,1*%
%TO.N,+3.3V*%
X68500000Y-201925000D03*
%TO.P,R61,2*%
%TO.N,Net-(J7-Pin_6)*%
X68500000Y-203575000D03*
%TD*%
D12*
%TO.P,R77,1*%
%TO.N,+3.3V*%
X32550000Y-189812500D03*
%TO.P,R77,2*%
%TO.N,/Ethernet/RMII.RXER*%
X30900000Y-189812500D03*
%TD*%
D13*
%TO.P,C44,1*%
%TO.N,+3.3V*%
X31650000Y-166750000D03*
%TO.P,C44,2*%
%TO.N,GND*%
X33200000Y-166750000D03*
%TD*%
D11*
%TO.P,R15,1*%
%TO.N,Net-(D3-RA)*%
X87000000Y-159425000D03*
%TO.P,R15,2*%
%TO.N,/FPGA/USR_LED_R*%
X87000000Y-161075000D03*
%TD*%
D14*
%TO.P,SW1,1,1_1*%
%TO.N,/FPGA/PL_RSTN*%
X73700000Y-158800000D03*
X73700000Y-154700000D03*
%TO.P,SW1,2,2_2*%
%TO.N,GND*%
X75300000Y-158800000D03*
X75300000Y-154700000D03*
%TD*%
D15*
%TO.P,C43,1*%
%TO.N,+1V8*%
X40925000Y-161475000D03*
%TO.P,C43,2*%
%TO.N,GND*%
X40925000Y-163025000D03*
%TD*%
%TO.P,C3,1*%
%TO.N,+3.3V*%
X53250000Y-184225000D03*
%TO.P,C3,2*%
%TO.N,GND*%
X53250000Y-185775000D03*
%TD*%
D16*
%TO.P,J8,1,Pin_1_1*%
%TO.N,+3.3V*%
X64625000Y-204800000D03*
%TO.P,J8,2,Pin_2_2*%
%TO.N,GND*%
X63375000Y-204800000D03*
%TO.P,J8,3,Pin_3_3*%
%TO.N,/FPGA/I2S.SCK*%
X62125000Y-204800000D03*
%TO.P,J8,4,Pin_4_4*%
%TO.N,/FPGA/I2S.DATA2*%
X60875000Y-204800000D03*
%TO.P,J8,5,Pin_5_5*%
%TO.N,/FPGA/I2S.WS*%
X59625000Y-204800000D03*
%TO.P,J8,6,Pin_6_6*%
%TO.N,Net-(J8-Pin_6)*%
X58375000Y-204800000D03*
D17*
%TO.P,J8,MP*%
%TO.N,N/C*%
X66475000Y-208150000D03*
X56525000Y-208150000D03*
%TD*%
D12*
%TO.P,R38,1*%
%TO.N,+5V*%
X21825000Y-164000000D03*
%TO.P,R38,2*%
%TO.N,Net-(D5-A)*%
X20175000Y-164000000D03*
%TD*%
D13*
%TO.P,C66,1*%
%TO.N,+3.3V*%
X81475000Y-179800000D03*
%TO.P,C66,2*%
%TO.N,GND*%
X83025000Y-179800000D03*
%TD*%
D18*
%TO.P,R60,1*%
%TO.N,Net-(J6-Pin_6)*%
X79000000Y-203575000D03*
%TO.P,R60,2*%
%TO.N,GND*%
X79000000Y-201925000D03*
%TD*%
%TO.P,R58,1*%
%TO.N,Net-(J5-Pin_6)*%
X43000000Y-189575000D03*
%TO.P,R58,2*%
%TO.N,GND*%
X43000000Y-187925000D03*
%TD*%
D19*
%TO.P,C27,1*%
%TO.N,+3.3V*%
X22275000Y-179500000D03*
%TO.P,C27,2*%
%TO.N,GND*%
X20725000Y-179500000D03*
%TD*%
D12*
%TO.P,R70,1*%
%TO.N,/ADC/ADC3*%
X92075000Y-176250000D03*
%TO.P,R70,2*%
%TO.N,Net-(U9-IN3)*%
X90425000Y-176250000D03*
%TD*%
D20*
%TO.P,J1,A1,GND_A1*%
%TO.N,GND*%
X7430000Y-156550000D03*
%TO.P,J1,A4,VBUS_A4*%
%TO.N,Net-(F1-Pad2)*%
X7430000Y-157350000D03*
D21*
%TO.P,J1,A5,CC1_A5*%
%TO.N,Net-(J1-CC1)*%
X7430000Y-158500000D03*
%TO.P,J1,A6,D+_A6*%
%TO.N,/USB/USB_D+*%
X7430000Y-159500000D03*
%TO.P,J1,A7,D-_A7*%
%TO.N,/USB/USB_D-*%
X7430000Y-160000000D03*
%TO.P,J1,A8,SBU1_A8*%
%TO.N,unconnected-(J1-SBU1-PadA8)*%
X7430000Y-161000000D03*
D20*
%TO.P,J1,A9,VBUS_A9*%
%TO.N,Net-(F1-Pad2)*%
X7430000Y-162150000D03*
%TO.P,J1,A12,GND_A12*%
%TO.N,GND*%
X7430000Y-162950000D03*
%TO.P,J1,B1,GND_B1*%
X7430000Y-162950000D03*
%TO.P,J1,B4,VBUS_B4*%
%TO.N,Net-(F1-Pad2)*%
X7430000Y-162150000D03*
D21*
%TO.P,J1,B5,CC2_B5*%
%TO.N,Net-(J1-CC2)*%
X7430000Y-161500000D03*
%TO.P,J1,B6,D+_B6*%
%TO.N,/USB/USB_D+*%
X7430000Y-160500000D03*
%TO.P,J1,B7,D-_B7*%
%TO.N,/USB/USB_D-*%
X7430000Y-159000000D03*
%TO.P,J1,B8,SBU2_B8*%
%TO.N,unconnected-(J1-SBU2-PadB8)*%
X7430000Y-158000000D03*
D20*
%TO.P,J1,B9,VBUS_B9*%
%TO.N,Net-(F1-Pad2)*%
X7430000Y-157350000D03*
%TO.P,J1,B12,GND_B12*%
%TO.N,GND*%
X7430000Y-156550000D03*
D22*
%TO.P,J1,SH,SHIELD_SH*%
X6855000Y-155430000D03*
D23*
X2675000Y-155430000D03*
D22*
X6855000Y-164070000D03*
D23*
X2675000Y-164070000D03*
%TD*%
D24*
%TO.P,R23,1*%
%TO.N,+3.3V*%
X36925000Y-178250000D03*
%TO.P,R23,2*%
%TO.N,Net-(U1B-CBSEL1)*%
X38575000Y-178250000D03*
%TD*%
D25*
%TO.P,J14,1,TD+_1*%
%TO.N,/Ethernet/TX+*%
X13000000Y-187460000D03*
D26*
%TO.P,J14,2,TD-_2*%
%TO.N,/Ethernet/TX-*%
X15540000Y-188730000D03*
%TO.P,J14,3,RD+_3*%
%TO.N,/Ethernet/RX+*%
X13000000Y-190000000D03*
%TO.P,J14,4,TCT_4*%
%TO.N,+3.3V*%
X15540000Y-191270000D03*
%TO.P,J14,5,RCT_5*%
X13000000Y-192540000D03*
%TO.P,J14,6,RD-_6*%
%TO.N,/Ethernet/RX-*%
X15540000Y-193810000D03*
%TO.P,J14,7,NC_7*%
%TO.N,unconnected-(J14-NC-Pad7)*%
X13000000Y-195080000D03*
%TO.P,J14,8*%
%TO.N,GND*%
X15540000Y-196350000D03*
D27*
%TO.P,J14,9*%
%TO.N,/Ethernet/REGOFF*%
X2590000Y-185275000D03*
%TO.P,J14,10*%
%TO.N,Net-(J14-Pad10)*%
X2590000Y-187815000D03*
%TO.P,J14,11*%
%TO.N,+3.3V*%
X2590000Y-195995000D03*
%TO.P,J14,12*%
%TO.N,Net-(J14-Pad12)*%
X2590000Y-198535000D03*
D28*
%TO.P,J14,SH*%
%TO.N,GND*%
X9700000Y-184160000D03*
X9700000Y-199650000D03*
%TD*%
D19*
%TO.P,C48,1*%
%TO.N,+3.3V*%
X88775000Y-188250000D03*
%TO.P,C48,2*%
%TO.N,GND*%
X87225000Y-188250000D03*
%TD*%
%TO.P,C50,1*%
%TO.N,+3.3V*%
X64775000Y-188250000D03*
%TO.P,C50,2*%
%TO.N,GND*%
X63225000Y-188250000D03*
%TD*%
D13*
%TO.P,C63,1*%
%TO.N,Net-(U9-IN6)*%
X90475000Y-168750000D03*
%TO.P,C63,2*%
%TO.N,GND*%
X92025000Y-168750000D03*
%TD*%
D11*
%TO.P,R53,1*%
%TO.N,+3.3V*%
X68500000Y-187925000D03*
%TO.P,R53,2*%
%TO.N,Net-(J3-Pin_6)*%
X68500000Y-189575000D03*
%TD*%
D13*
%TO.P,C10,1*%
%TO.N,+3.3V*%
X63725000Y-176750000D03*
%TO.P,C10,2*%
%TO.N,GND*%
X65275000Y-176750000D03*
%TD*%
%TO.P,C69,1*%
%TO.N,Net-(U10-VDDCR)*%
X27725000Y-195812500D03*
%TO.P,C69,2*%
%TO.N,GND*%
X29275000Y-195812500D03*
%TD*%
D29*
%TO.P,D8,1,A1_1*%
%TO.N,Net-(D7-K)*%
X12000000Y-171750000D03*
%TO.P,D8,2,A2_2*%
%TO.N,GND*%
X12000000Y-175750000D03*
%TD*%
D30*
%TO.P,D6,1,K_1*%
%TO.N,GND*%
X15212500Y-164500000D03*
%TO.P,D6,2,A_2*%
%TO.N,Net-(D6-A)*%
X16787500Y-164500000D03*
%TD*%
D31*
%TO.P,C74,1*%
%TO.N,+3.3V*%
X35900000Y-184075000D03*
%TO.P,C74,2*%
%TO.N,GND*%
X35900000Y-182525000D03*
%TD*%
D11*
%TO.P,R34,1*%
%TO.N,+5V*%
X24250000Y-171925000D03*
%TO.P,R34,2*%
%TO.N,/Power/VCC_PGOOD*%
X24250000Y-173575000D03*
%TD*%
D32*
%TO.P,TP11,1,1_1*%
%TO.N,+1V2*%
X33250000Y-169750000D03*
%TD*%
D31*
%TO.P,C38,1*%
%TO.N,+1V8*%
X38425000Y-153275000D03*
%TO.P,C38,2*%
%TO.N,GND*%
X38425000Y-151725000D03*
%TD*%
D16*
%TO.P,J4,1,Pin_1_1*%
%TO.N,+3.3V*%
X64625000Y-190800000D03*
%TO.P,J4,2,Pin_2_2*%
%TO.N,GND*%
X63375000Y-190800000D03*
%TO.P,J4,3,Pin_3_3*%
%TO.N,/FPGA/I2S.SCK*%
X62125000Y-190800000D03*
%TO.P,J4,4,Pin_4_4*%
%TO.N,/FPGA/I2S.DATA2*%
X60875000Y-190800000D03*
%TO.P,J4,5,Pin_5_5*%
%TO.N,/FPGA/I2S.WS*%
X59625000Y-190800000D03*
%TO.P,J4,6,Pin_6_6*%
%TO.N,Net-(J4-Pin_6)*%
X58375000Y-190800000D03*
D17*
%TO.P,J4,MP*%
%TO.N,N/C*%
X66475000Y-194150000D03*
X56525000Y-194150000D03*
%TD*%
D24*
%TO.P,R43,1*%
%TO.N,Net-(R43-Pad1)*%
X27675000Y-146000000D03*
%TO.P,R43,2*%
%TO.N,Net-(U6-DO)*%
X29325000Y-146000000D03*
%TD*%
D19*
%TO.P,C54,1*%
%TO.N,+3.3V*%
X64775000Y-202250000D03*
%TO.P,C54,2*%
%TO.N,GND*%
X63225000Y-202250000D03*
%TD*%
D11*
%TO.P,R85,1*%
%TO.N,Net-(U10-RBIAS)*%
X24000000Y-194987500D03*
%TO.P,R85,2*%
%TO.N,GND*%
X24000000Y-196637500D03*
%TD*%
D32*
%TO.P,TP29,1,1_1*%
%TO.N,/FPGA/I2S.SCK*%
X85500000Y-187500000D03*
%TD*%
D12*
%TO.P,R73,1*%
%TO.N,/ADC/ADC6*%
X92075000Y-167250000D03*
%TO.P,R73,2*%
%TO.N,Net-(U9-IN6)*%
X90425000Y-167250000D03*
%TD*%
%TO.P,R11,1*%
%TO.N,+3.3V*%
X71575000Y-153000000D03*
%TO.P,R11,2*%
%TO.N,/FPGA/FT.RESETN*%
X69925000Y-153000000D03*
%TD*%
D19*
%TO.P,C5,1*%
%TO.N,GND*%
X71525000Y-160500000D03*
%TO.P,C5,2*%
%TO.N,/FPGA/FT.RESETN*%
X69975000Y-160500000D03*
%TD*%
D13*
%TO.P,C24,1*%
%TO.N,+3.3V*%
X73475000Y-174750000D03*
%TO.P,C24,2*%
%TO.N,GND*%
X75025000Y-174750000D03*
%TD*%
D15*
%TO.P,C2,1*%
%TO.N,+1V2*%
X55250000Y-184225000D03*
%TO.P,C2,2*%
%TO.N,GND*%
X55250000Y-185775000D03*
%TD*%
D13*
%TO.P,C65,1*%
%TO.N,+3.3V*%
X83475000Y-170250000D03*
%TO.P,C65,2*%
%TO.N,GND*%
X85025000Y-170250000D03*
%TD*%
D30*
%TO.P,D5,1,K_1*%
%TO.N,GND*%
X15212500Y-163000000D03*
%TO.P,D5,2,A_2*%
%TO.N,Net-(D5-A)*%
X16787500Y-163000000D03*
%TD*%
D24*
%TO.P,R36,1*%
%TO.N,Net-(U3-FB)*%
X26175000Y-178250000D03*
%TO.P,R36,2*%
%TO.N,GND*%
X27825000Y-178250000D03*
%TD*%
D12*
%TO.P,R7,1*%
%TO.N,+3.3V*%
X55825000Y-157000000D03*
%TO.P,R7,2*%
%TO.N,/FPGA/JTAG.TMS*%
X54175000Y-157000000D03*
%TD*%
D13*
%TO.P,C60,1*%
%TO.N,Net-(U9-IN3)*%
X90475000Y-177750000D03*
%TO.P,C60,2*%
%TO.N,GND*%
X92025000Y-177750000D03*
%TD*%
D24*
%TO.P,R76,1*%
%TO.N,Net-(R75-Pad2)*%
X4750000Y-182010000D03*
%TO.P,R76,2*%
%TO.N,GND*%
X6400000Y-182010000D03*
%TD*%
D11*
%TO.P,R89,1*%
%TO.N,Net-(U8-REF)*%
X20666942Y-156676546D03*
%TO.P,R89,2*%
%TO.N,GND*%
X20666942Y-158326546D03*
%TD*%
%TO.P,R83,1*%
%TO.N,+3.3V*%
X26000000Y-185987500D03*
%TO.P,R83,2*%
%TO.N,/Ethernet/RMII.RSTN*%
X26000000Y-187637500D03*
%TD*%
D15*
%TO.P,C40,1*%
%TO.N,Net-(U8-VPHY)*%
X23675000Y-156725000D03*
%TO.P,C40,2*%
%TO.N,GND*%
X23675000Y-158275000D03*
%TD*%
D12*
%TO.P,R49,1*%
%TO.N,/USB/USB_ESD_D-*%
X18500000Y-159000000D03*
%TO.P,R49,2*%
%TO.N,Net-(R49-Pad2)*%
X16850000Y-159000000D03*
%TD*%
D13*
%TO.P,C68,1*%
%TO.N,+3.3V*%
X30950000Y-191312500D03*
%TO.P,C68,2*%
%TO.N,GND*%
X32500000Y-191312500D03*
%TD*%
D15*
%TO.P,C8,1*%
%TO.N,+3.3V*%
X66750000Y-176725000D03*
%TO.P,C8,2*%
%TO.N,GND*%
X66750000Y-178275000D03*
%TD*%
D19*
%TO.P,C47,1*%
%TO.N,+3.3V*%
X36950000Y-151750000D03*
%TO.P,C47,2*%
%TO.N,GND*%
X35400000Y-151750000D03*
%TD*%
D18*
%TO.P,R37,1*%
%TO.N,+3.3V*%
X81750000Y-161075000D03*
%TO.P,R37,2*%
%TO.N,Net-(D4-A)*%
X81750000Y-159425000D03*
%TD*%
D33*
%TO.P,H4,1*%
%TO.N,N/C*%
X95000000Y-205000000D03*
%TD*%
D34*
%TO.P,D1,1,K_1*%
%TO.N,/FPGA/NSTATUS*%
X80250000Y-156462500D03*
%TO.P,D1,2,A_2*%
%TO.N,Net-(D1-A)*%
X80250000Y-158037500D03*
%TD*%
D12*
%TO.P,R74,1*%
%TO.N,/ADC/ADC7*%
X92075000Y-164250000D03*
%TO.P,R74,2*%
%TO.N,Net-(U9-IN7)*%
X90425000Y-164250000D03*
%TD*%
D31*
%TO.P,C12,1*%
%TO.N,+1V2*%
X53750000Y-165275000D03*
%TO.P,C12,2*%
%TO.N,GND*%
X53750000Y-163725000D03*
%TD*%
%TO.P,C17,1*%
%TO.N,+1V2*%
X47000000Y-166775000D03*
%TO.P,C17,2*%
%TO.N,GND*%
X47000000Y-165225000D03*
%TD*%
D19*
%TO.P,C49,1*%
%TO.N,+3.3V*%
X76775000Y-188250000D03*
%TO.P,C49,2*%
%TO.N,GND*%
X75225000Y-188250000D03*
%TD*%
D35*
%TO.P,Y2,1,1_1*%
%TO.N,Net-(U8-OSCI)*%
X25025000Y-152650000D03*
%TO.P,Y2,2,G_2*%
%TO.N,GND*%
X22825000Y-152650000D03*
%TO.P,Y2,3,3_3*%
%TO.N,Net-(U8-OSCO)*%
X22825000Y-154350000D03*
%TO.P,Y2,4,G_4*%
%TO.N,GND*%
X25025000Y-154350000D03*
%TD*%
D32*
%TO.P,TP33,1,1_1*%
%TO.N,/FPGA/I2S.DATA0*%
X83500000Y-187500000D03*
%TD*%
D31*
%TO.P,C18,1*%
%TO.N,+3.3V*%
X51250000Y-165275000D03*
%TO.P,C18,2*%
%TO.N,GND*%
X51250000Y-163725000D03*
%TD*%
D36*
%TO.P,C30,1*%
%TO.N,+1V2*%
X33000000Y-171775000D03*
%TO.P,C30,2*%
%TO.N,GND*%
X33000000Y-174725000D03*
%TD*%
D15*
%TO.P,C34,1*%
%TO.N,Net-(U8-VPLL)*%
X24425000Y-160975000D03*
%TO.P,C34,2*%
%TO.N,GND*%
X24425000Y-162525000D03*
%TD*%
D37*
%TO.P,U7,1,I/O1_1*%
%TO.N,/USB/USB_D-*%
X12362500Y-158800000D03*
%TO.P,U7,2,GND_2*%
%TO.N,GND*%
X12362500Y-159750000D03*
%TO.P,U7,3,I/O2_3*%
%TO.N,/USB/USB_D+*%
X12362500Y-160700000D03*
%TO.P,U7,4,I/O2_4*%
%TO.N,Net-(R50-Pad2)*%
X14637500Y-160700000D03*
%TO.P,U7,5,VBUS_5*%
%TO.N,VBUS*%
X14637500Y-159750000D03*
%TO.P,U7,6,I/O1_6*%
%TO.N,Net-(R49-Pad2)*%
X14637500Y-158800000D03*
%TD*%
D18*
%TO.P,R32,1*%
%TO.N,+3.3V*%
X71250000Y-177825000D03*
%TO.P,R32,2*%
%TO.N,/FPGA/RAM.SCK*%
X71250000Y-176175000D03*
%TD*%
D31*
%TO.P,C45,1*%
%TO.N,+3.3V*%
X38425000Y-166775000D03*
%TO.P,C45,2*%
%TO.N,GND*%
X38425000Y-165225000D03*
%TD*%
D12*
%TO.P,R24,1*%
%TO.N,Net-(U1B-CBSEL1)*%
X38575000Y-179750000D03*
%TO.P,R24,2*%
%TO.N,GND*%
X36925000Y-179750000D03*
%TD*%
D15*
%TO.P,C39,1*%
%TO.N,Net-(U8-VPLL)*%
X22925000Y-160975000D03*
%TO.P,C39,2*%
%TO.N,GND*%
X22925000Y-162525000D03*
%TD*%
D33*
%TO.P,H1,1*%
%TO.N,N/C*%
X95000000Y-150000000D03*
%TD*%
D24*
%TO.P,R41,1*%
%TO.N,VBUS*%
X15175000Y-166000000D03*
%TO.P,R41,2*%
%TO.N,Net-(D6-A)*%
X16825000Y-166000000D03*
%TD*%
D15*
%TO.P,C23,1*%
%TO.N,+3.3V*%
X38500000Y-172225000D03*
%TO.P,C23,2*%
%TO.N,GND*%
X38500000Y-173775000D03*
%TD*%
D12*
%TO.P,R9,1*%
%TO.N,+3.3V*%
X55825000Y-160000000D03*
%TO.P,R9,2*%
%TO.N,/FPGA/JTAG.TDI*%
X54175000Y-160000000D03*
%TD*%
D34*
%TO.P,D4,1,K_1*%
%TO.N,GND*%
X81750000Y-156462500D03*
%TO.P,D4,2,A_2*%
%TO.N,Net-(D4-A)*%
X81750000Y-158037500D03*
%TD*%
D12*
%TO.P,R82,1*%
%TO.N,+3.3V*%
X32550000Y-192812500D03*
%TO.P,R82,2*%
%TO.N,/Ethernet/RMII.RXD0*%
X30900000Y-192812500D03*
%TD*%
%TO.P,R71,1*%
%TO.N,/ADC/ADC4*%
X92075000Y-173250000D03*
%TO.P,R71,2*%
%TO.N,Net-(U9-IN4)*%
X90425000Y-173250000D03*
%TD*%
D13*
%TO.P,C9,1*%
%TO.N,+1V2*%
X63725000Y-171250000D03*
%TO.P,C9,2*%
%TO.N,GND*%
X65275000Y-171250000D03*
%TD*%
D24*
%TO.P,R46,1*%
%TO.N,Net-(J1-CC2)*%
X9425000Y-163500000D03*
%TO.P,R46,2*%
%TO.N,GND*%
X11075000Y-163500000D03*
%TD*%
D32*
%TO.P,TP3,1,1_1*%
%TO.N,/FPGA/CLK*%
X36600000Y-190100000D03*
%TD*%
D13*
%TO.P,C58,1*%
%TO.N,Net-(U9-IN1)*%
X90475000Y-183750000D03*
%TO.P,C58,2*%
%TO.N,GND*%
X92025000Y-183750000D03*
%TD*%
D19*
%TO.P,C28,1*%
%TO.N,+1V2*%
X27775000Y-176750000D03*
%TO.P,C28,2*%
%TO.N,Net-(U3-FB)*%
X26225000Y-176750000D03*
%TD*%
D38*
%TO.P,FB1,1*%
%TO.N,+3.3V*%
X21425000Y-162537500D03*
%TO.P,FB1,2*%
%TO.N,Net-(U8-VPLL)*%
X21425000Y-160962500D03*
%TD*%
D18*
%TO.P,R52,1*%
%TO.N,Net-(J2-Pin_6)*%
X78990000Y-189575000D03*
%TO.P,R52,2*%
%TO.N,GND*%
X78990000Y-187925000D03*
%TD*%
D11*
%TO.P,R55,1*%
%TO.N,+3.3V*%
X56500000Y-187925000D03*
%TO.P,R55,2*%
%TO.N,Net-(J4-Pin_6)*%
X56500000Y-189575000D03*
%TD*%
D33*
%TO.P,H3,1*%
%TO.N,N/C*%
X5000000Y-150000000D03*
%TD*%
D32*
%TO.P,TP34,1,1_1*%
%TO.N,/FPGA/I2S.DATA3*%
X48750000Y-187500000D03*
%TD*%
D39*
%TO.P,C56,1*%
%TO.N,VCC*%
X16750000Y-176250000D03*
%TO.P,C56,2*%
%TO.N,GND*%
X16750000Y-178250000D03*
%TD*%
D16*
%TO.P,J7,1,Pin_1_1*%
%TO.N,+3.3V*%
X76625000Y-204800000D03*
%TO.P,J7,2,Pin_2_2*%
%TO.N,GND*%
X75375000Y-204800000D03*
%TO.P,J7,3,Pin_3_3*%
%TO.N,/FPGA/I2S.SCK*%
X74125000Y-204800000D03*
%TO.P,J7,4,Pin_4_4*%
%TO.N,/FPGA/I2S.DATA1*%
X72875000Y-204800000D03*
%TO.P,J7,5,Pin_5_5*%
%TO.N,/FPGA/I2S.WS*%
X71625000Y-204800000D03*
%TO.P,J7,6,Pin_6_6*%
%TO.N,Net-(J7-Pin_6)*%
X70375000Y-204800000D03*
D17*
%TO.P,J7,MP*%
%TO.N,N/C*%
X78475000Y-208150000D03*
X68525000Y-208150000D03*
%TD*%
D13*
%TO.P,C6,1*%
%TO.N,+1V2*%
X63725000Y-178250000D03*
%TO.P,C6,2*%
%TO.N,GND*%
X65275000Y-178250000D03*
%TD*%
D31*
%TO.P,C33,1*%
%TO.N,VBUS*%
X11000000Y-166525000D03*
%TO.P,C33,2*%
%TO.N,GND*%
X11000000Y-164975000D03*
%TD*%
D12*
%TO.P,R5,1*%
%TO.N,+3.3V*%
X55825000Y-161500000D03*
%TO.P,R5,2*%
%TO.N,/FPGA/JTAG.TCK*%
X54175000Y-161500000D03*
%TD*%
D32*
%TO.P,TP30,1,1_1*%
%TO.N,/FPGA/I2S.DATA1*%
X73000000Y-187750000D03*
%TD*%
D11*
%TO.P,R59,1*%
%TO.N,+3.3V*%
X80500000Y-201925000D03*
%TO.P,R59,2*%
%TO.N,Net-(J6-Pin_6)*%
X80500000Y-203575000D03*
%TD*%
D16*
%TO.P,J9,1,Pin_1_1*%
%TO.N,+3.3V*%
X52625000Y-204800000D03*
%TO.P,J9,2,Pin_2_2*%
%TO.N,GND*%
X51375000Y-204800000D03*
%TO.P,J9,3,Pin_3_3*%
%TO.N,/FPGA/I2S.SCK*%
X50125000Y-204800000D03*
%TO.P,J9,4,Pin_4_4*%
%TO.N,/FPGA/I2S.DATA3*%
X48875000Y-204800000D03*
%TO.P,J9,5,Pin_5_5*%
%TO.N,/FPGA/I2S.WS*%
X47625000Y-204800000D03*
%TO.P,J9,6,Pin_6_6*%
%TO.N,Net-(J9-Pin_6)*%
X46375000Y-204800000D03*
D17*
%TO.P,J9,MP*%
%TO.N,N/C*%
X54475000Y-208150000D03*
X44525000Y-208150000D03*
%TD*%
D13*
%TO.P,C64,1*%
%TO.N,Net-(U9-IN7)*%
X90475000Y-165750000D03*
%TO.P,C64,2*%
%TO.N,GND*%
X92025000Y-165750000D03*
%TD*%
D32*
%TO.P,TP12,1,1_1*%
%TO.N,VBUS*%
X9500000Y-168750000D03*
%TD*%
D31*
%TO.P,C41,1*%
%TO.N,+1V8*%
X28425000Y-153275000D03*
%TO.P,C41,2*%
%TO.N,GND*%
X28425000Y-151725000D03*
%TD*%
D40*
%TO.P,J13,1,Pin_1_1*%
%TO.N,+3.3V*%
X89870000Y-146500000D03*
D41*
%TO.P,J13,2,Pin_2_2*%
%TO.N,GND*%
X87330000Y-146500000D03*
%TO.P,J13,3,Pin_3_3*%
%TO.N,/FPGA/GPIO0*%
X84790000Y-146500000D03*
%TO.P,J13,4,Pin_4_4*%
%TO.N,/FPGA/GPIO1*%
X82250000Y-146500000D03*
%TO.P,J13,5,Pin_5_5*%
%TO.N,/FPGA/GPIO2*%
X79710000Y-146500000D03*
%TO.P,J13,6,Pin_6_6*%
%TO.N,/FPGA/GPIO3*%
X77170000Y-146500000D03*
%TO.P,J13,7,Pin_7_7*%
%TO.N,/FPGA/GPIO4*%
X74630000Y-146500000D03*
%TO.P,J13,8,Pin_8_8*%
%TO.N,/FPGA/GPIO5*%
X72090000Y-146500000D03*
%TO.P,J13,9,Pin_9_9*%
%TO.N,/FPGA/GPIO6*%
X69550000Y-146500000D03*
%TO.P,J13,10,Pin_10_10*%
%TO.N,/FPGA/GPIO7*%
X67010000Y-146500000D03*
%TD*%
D32*
%TO.P,TP31,1,1_1*%
%TO.N,/FPGA/I2S.WS*%
X46500000Y-185500000D03*
%TD*%
D19*
%TO.P,C73,1*%
%TO.N,+3.3V*%
X22275000Y-181000000D03*
%TO.P,C73,2*%
%TO.N,GND*%
X20725000Y-181000000D03*
%TD*%
D24*
%TO.P,R39,1*%
%TO.N,VBUS*%
X15175000Y-170500000D03*
%TO.P,R39,2*%
%TO.N,Net-(U5-PR1)*%
X16825000Y-170500000D03*
%TD*%
D31*
%TO.P,C15,1*%
%TO.N,+1V2*%
X49750000Y-165275000D03*
%TO.P,C15,2*%
%TO.N,GND*%
X49750000Y-163725000D03*
%TD*%
D19*
%TO.P,C11,1*%
%TO.N,+1V2*%
X44775000Y-172750000D03*
%TO.P,C11,2*%
%TO.N,GND*%
X43225000Y-172750000D03*
%TD*%
D11*
%TO.P,R18,1*%
%TO.N,+3.3V*%
X60250000Y-160675000D03*
%TO.P,R18,2*%
%TO.N,Net-(U1B-CBUS0)*%
X60250000Y-162325000D03*
%TD*%
D32*
%TO.P,TP13,1,1_1*%
%TO.N,+5V*%
X24000000Y-166500000D03*
%TD*%
D18*
%TO.P,R56,1*%
%TO.N,Net-(J4-Pin_6)*%
X55000000Y-189575000D03*
%TO.P,R56,2*%
%TO.N,GND*%
X55000000Y-187925000D03*
%TD*%
D12*
%TO.P,R68,1*%
%TO.N,/ADC/ADC1*%
X92075000Y-182250000D03*
%TO.P,R68,2*%
%TO.N,Net-(U9-IN1)*%
X90425000Y-182250000D03*
%TD*%
D11*
%TO.P,R86,1*%
%TO.N,Net-(U10-VDD1A)*%
X19500000Y-188487500D03*
%TO.P,R86,2*%
%TO.N,/Ethernet/TX-*%
X19500000Y-190137500D03*
%TD*%
D15*
%TO.P,C42,1*%
%TO.N,+1V8*%
X25925000Y-161475000D03*
%TO.P,C42,2*%
%TO.N,GND*%
X25925000Y-163025000D03*
%TD*%
D40*
%TO.P,J10,1,Pin_1_1*%
%TO.N,/ADC/ADC7*%
X95975000Y-166610000D03*
D41*
%TO.P,J10,2,Pin_2_2*%
%TO.N,GND*%
X98515000Y-166610000D03*
%TO.P,J10,3,Pin_3_3*%
%TO.N,/ADC/ADC6*%
X95975000Y-169150000D03*
%TO.P,J10,4,Pin_4_4*%
%TO.N,GND*%
X98515000Y-169150000D03*
%TO.P,J10,5,Pin_5_5*%
%TO.N,/ADC/ADC5*%
X95975000Y-171690000D03*
%TO.P,J10,6,Pin_6_6*%
%TO.N,GND*%
X98515000Y-171690000D03*
%TO.P,J10,7,Pin_7_7*%
%TO.N,/ADC/ADC4*%
X95975000Y-174230000D03*
%TO.P,J10,8,Pin_8_8*%
%TO.N,GND*%
X98515000Y-174230000D03*
%TO.P,J10,9,Pin_9_9*%
%TO.N,/ADC/ADC3*%
X95975000Y-176770000D03*
%TO.P,J10,10,Pin_10_10*%
%TO.N,GND*%
X98515000Y-176770000D03*
%TO.P,J10,11,Pin_11_11*%
%TO.N,/ADC/ADC2*%
X95975000Y-179310000D03*
%TO.P,J10,12,Pin_12_12*%
%TO.N,GND*%
X98515000Y-179310000D03*
%TO.P,J10,13,Pin_13_13*%
%TO.N,/ADC/ADC1*%
X95975000Y-181850000D03*
%TO.P,J10,14,Pin_14_14*%
%TO.N,GND*%
X98515000Y-181850000D03*
%TO.P,J10,15,Pin_15_15*%
%TO.N,/ADC/ADC0*%
X95975000Y-184390000D03*
%TO.P,J10,16,Pin_16_16*%
%TO.N,GND*%
X98515000Y-184390000D03*
%TD*%
D42*
%TO.P,U5,1,GND_1*%
%TO.N,GND*%
X15270000Y-167500000D03*
%TO.P,U5,2,VOUT_2*%
%TO.N,+5V*%
X15270000Y-168000000D03*
%TO.P,U5,3,VIN1_3*%
%TO.N,VBUS*%
X15270000Y-168500000D03*
%TO.P,U5,4,PR1_4*%
%TO.N,Net-(U5-PR1)*%
X15270000Y-169000000D03*
%TO.P,U5,5,MODE_5*%
%TO.N,VBUS*%
X16750000Y-169000000D03*
%TO.P,U5,6,VIN2_6*%
%TO.N,VCC*%
X16750000Y-168500000D03*
%TO.P,U5,7,VOUT_7*%
%TO.N,+5V*%
X16750000Y-168000000D03*
%TO.P,U5,8,ST_8*%
%TO.N,Net-(D6-A)*%
X16750000Y-167500000D03*
%TD*%
D16*
%TO.P,J6,1,Pin_1_1*%
%TO.N,+3.3V*%
X88625000Y-204800000D03*
%TO.P,J6,2,Pin_2_2*%
%TO.N,GND*%
X87375000Y-204800000D03*
%TO.P,J6,3,Pin_3_3*%
%TO.N,/FPGA/I2S.SCK*%
X86125000Y-204800000D03*
%TO.P,J6,4,Pin_4_4*%
%TO.N,/FPGA/I2S.DATA0*%
X84875000Y-204800000D03*
%TO.P,J6,5,Pin_5_5*%
%TO.N,/FPGA/I2S.WS*%
X83625000Y-204800000D03*
%TO.P,J6,6,Pin_6_6*%
%TO.N,Net-(J6-Pin_6)*%
X82375000Y-204800000D03*
D17*
%TO.P,J6,MP*%
%TO.N,N/C*%
X90475000Y-208150000D03*
X80525000Y-208150000D03*
%TD*%
D11*
%TO.P,R13,1*%
%TO.N,+3.3V*%
X43750000Y-145675000D03*
%TO.P,R13,2*%
%TO.N,/FPGA/FT.CS*%
X43750000Y-147325000D03*
%TD*%
D33*
%TO.P,H2,1*%
%TO.N,N/C*%
X5000000Y-205000000D03*
%TD*%
D24*
%TO.P,R48,1*%
%TO.N,+3.3V*%
X24675000Y-146000000D03*
%TO.P,R48,2*%
%TO.N,Net-(U6-DO)*%
X26325000Y-146000000D03*
%TD*%
D32*
%TO.P,TP10,1,1_1*%
%TO.N,+3.3V*%
X24250000Y-181000000D03*
%TD*%
D12*
%TO.P,R2,1*%
%TO.N,+3.3V*%
X55825000Y-158500000D03*
%TO.P,R2,2*%
%TO.N,/FPGA/JTAG.TDO*%
X54175000Y-158500000D03*
%TD*%
%TO.P,R69,1*%
%TO.N,/ADC/ADC2*%
X92075000Y-179250000D03*
%TO.P,R69,2*%
%TO.N,Net-(U9-IN2)*%
X90425000Y-179250000D03*
%TD*%
D43*
%TO.P,U10,1,VDD2A_1*%
%TO.N,Net-(U10-VDD1A)*%
X24500000Y-193187500D03*
%TO.P,U10,2,LED2/~{INTSEL}_2*%
%TO.N,/Ethernet/INTSEL*%
X25000000Y-193187500D03*
%TO.P,U10,3,LED1/REGOFF_3*%
%TO.N,/Ethernet/REGOFF*%
X25500000Y-193187500D03*
%TO.P,U10,4,XTAL2_4*%
%TO.N,unconnected-(U10-XTAL2-Pad4)*%
X26000000Y-193187500D03*
%TO.P,U10,5,XTAL1/CLKIN_5*%
%TO.N,/Ethernet/RMII.CLK*%
X26500000Y-193187500D03*
%TO.P,U10,6,VDDCR_6*%
%TO.N,Net-(U10-VDDCR)*%
X27000000Y-193187500D03*
D44*
%TO.P,U10,7,RXD1/MODE1_7*%
%TO.N,/Ethernet/RMII.RXD1*%
X27687500Y-192500000D03*
%TO.P,U10,8,RXD0/MODE0_8*%
%TO.N,/Ethernet/RMII.RXD0*%
X27687500Y-192000000D03*
%TO.P,U10,9,VDDIO_9*%
%TO.N,+3.3V*%
X27687500Y-191500000D03*
%TO.P,U10,10,RXER/PHYAD0_10*%
%TO.N,/Ethernet/RMII.RXER*%
X27687500Y-191000000D03*
%TO.P,U10,11,CRS_DV/MODE2_11*%
%TO.N,/Ethernet/RMII.CRS_DV*%
X27687500Y-190500000D03*
%TO.P,U10,12,MDIO_12*%
%TO.N,/Ethernet/RMII.MDIO*%
X27687500Y-190000000D03*
D43*
%TO.P,U10,13,MDC_13*%
%TO.N,/Ethernet/RMII.MDC*%
X27000000Y-189312500D03*
%TO.P,U10,14,~{INT}/REFCLKO_14*%
%TO.N,/Ethernet/RMII.INT*%
X26500000Y-189312500D03*
%TO.P,U10,15,~{RST}_15*%
%TO.N,/Ethernet/RMII.RSTN*%
X26000000Y-189312500D03*
%TO.P,U10,16,TXEN_16*%
%TO.N,/Ethernet/RMII.TXEN*%
X25500000Y-189312500D03*
%TO.P,U10,17,TXD0_17*%
%TO.N,/Ethernet/RMII.TXD0*%
X25000000Y-189312500D03*
%TO.P,U10,18,TXD1_18*%
%TO.N,/Ethernet/RMII.TXD1*%
X24500000Y-189312500D03*
D44*
%TO.P,U10,19,VDD1A_19*%
%TO.N,Net-(U10-VDD1A)*%
X23812500Y-190000000D03*
%TO.P,U10,20,TXN_20*%
%TO.N,/Ethernet/TX-*%
X23812500Y-190500000D03*
%TO.P,U10,21,TXP_21*%
%TO.N,/Ethernet/TX+*%
X23812500Y-191000000D03*
%TO.P,U10,22,RXN_22*%
%TO.N,/Ethernet/RX-*%
X23812500Y-191500000D03*
%TO.P,U10,23,RXP_23*%
%TO.N,/Ethernet/RX+*%
X23812500Y-192000000D03*
%TO.P,U10,24,RBIAS_24*%
%TO.N,Net-(U10-RBIAS)*%
X23812500Y-192500000D03*
D45*
%TO.P,U10,25,VSS_25*%
%TO.N,GND*%
X24750000Y-192250000D03*
X25750000Y-192250000D03*
X26750000Y-192250000D03*
X24750000Y-191250000D03*
X25750000Y-191250000D03*
D46*
X25750000Y-191250000D03*
D45*
X26750000Y-191250000D03*
X24750000Y-190250000D03*
X25750000Y-190250000D03*
X26750000Y-190250000D03*
%TD*%
D11*
%TO.P,R57,1*%
%TO.N,+3.3V*%
X44500000Y-187925000D03*
%TO.P,R57,2*%
%TO.N,Net-(J5-Pin_6)*%
X44500000Y-189575000D03*
%TD*%
%TO.P,R1,1*%
%TO.N,+3.3V*%
X39250000Y-145675000D03*
%TO.P,R1,2*%
%TO.N,/FPGA/FT.SCLK*%
X39250000Y-147325000D03*
%TD*%
%TO.P,R65,1*%
%TO.N,+3.3V*%
X44500000Y-201750000D03*
%TO.P,R65,2*%
%TO.N,Net-(J9-Pin_6)*%
X44500000Y-203400000D03*
%TD*%
D19*
%TO.P,C26,1*%
%TO.N,+5V*%
X22275000Y-173500000D03*
%TO.P,C26,2*%
%TO.N,GND*%
X20725000Y-173500000D03*
%TD*%
D11*
%TO.P,R3,1*%
%TO.N,+3.3V*%
X40750000Y-145675000D03*
%TO.P,R3,2*%
%TO.N,/FPGA/FT.MOSI*%
X40750000Y-147325000D03*
%TD*%
D19*
%TO.P,C19,1*%
%TO.N,+1V2*%
X44775000Y-171250000D03*
%TO.P,C19,2*%
%TO.N,GND*%
X43225000Y-171250000D03*
%TD*%
D34*
%TO.P,D2,1,K_1*%
%TO.N,GND*%
X78750000Y-156462500D03*
%TO.P,D2,2,A_2*%
%TO.N,/FPGA/FT.CDONE*%
X78750000Y-158037500D03*
%TD*%
D18*
%TO.P,R62,1*%
%TO.N,Net-(J7-Pin_6)*%
X67000000Y-203575000D03*
%TO.P,R62,2*%
%TO.N,GND*%
X67000000Y-201925000D03*
%TD*%
D15*
%TO.P,C36,1*%
%TO.N,Net-(U8-VPHY)*%
X25175000Y-156725000D03*
%TO.P,C36,2*%
%TO.N,GND*%
X25175000Y-158275000D03*
%TD*%
D31*
%TO.P,C16,1*%
%TO.N,+3.3V*%
X55750000Y-165275000D03*
%TO.P,C16,2*%
%TO.N,GND*%
X55750000Y-163725000D03*
%TD*%
D11*
%TO.P,R22,1*%
%TO.N,+3.3V*%
X57250000Y-160675000D03*
%TO.P,R22,2*%
%TO.N,Net-(U1B-CBUS2)*%
X57250000Y-162325000D03*
%TD*%
D19*
%TO.P,C1,1*%
%TO.N,GND*%
X75275000Y-160500000D03*
%TO.P,C1,2*%
%TO.N,/FPGA/PL_RSTN*%
X73725000Y-160500000D03*
%TD*%
D47*
%TO.P,Y1,1,Tri-State_1*%
%TO.N,unconnected-(Y1-Tri-State-Pad1)*%
X40025000Y-172075000D03*
%TO.P,Y1,2,GND_2*%
%TO.N,GND*%
X40025000Y-173925000D03*
%TO.P,Y1,3,OUT_3*%
%TO.N,/FPGA/CLK*%
X41475000Y-173925000D03*
%TO.P,Y1,4,VDD_4*%
%TO.N,+3.3V*%
X41475000Y-172075000D03*
%TD*%
D12*
%TO.P,R67,1*%
%TO.N,/ADC/ADC0*%
X92075000Y-185250000D03*
%TO.P,R67,2*%
%TO.N,Net-(U9-IN0)*%
X90425000Y-185250000D03*
%TD*%
D11*
%TO.P,R42,1*%
%TO.N,+3.3V*%
X34000000Y-147675000D03*
%TO.P,R42,2*%
%TO.N,/USB/EECS*%
X34000000Y-149325000D03*
%TD*%
D12*
%TO.P,R81,1*%
%TO.N,+3.3V*%
X32550000Y-194312500D03*
%TO.P,R81,2*%
%TO.N,/Ethernet/RMII.RXD1*%
X30900000Y-194312500D03*
%TD*%
D32*
%TO.P,TP18,1,1_1*%
%TO.N,+1V8*%
X40250000Y-154000000D03*
%TD*%
D12*
%TO.P,R50,1*%
%TO.N,/USB/USB_ESD_D+*%
X18500000Y-160500000D03*
%TO.P,R50,2*%
%TO.N,Net-(R50-Pad2)*%
X16850000Y-160500000D03*
%TD*%
D16*
%TO.P,J5,1,Pin_1_1*%
%TO.N,+3.3V*%
X52625000Y-190800000D03*
%TO.P,J5,2,Pin_2_2*%
%TO.N,GND*%
X51375000Y-190800000D03*
%TO.P,J5,3,Pin_3_3*%
%TO.N,/FPGA/I2S.SCK*%
X50125000Y-190800000D03*
%TO.P,J5,4,Pin_4_4*%
%TO.N,/FPGA/I2S.DATA3*%
X48875000Y-190800000D03*
%TO.P,J5,5,Pin_5_5*%
%TO.N,/FPGA/I2S.WS*%
X47625000Y-190800000D03*
%TO.P,J5,6,Pin_6_6*%
%TO.N,Net-(J5-Pin_6)*%
X46375000Y-190800000D03*
D17*
%TO.P,J5,MP*%
%TO.N,N/C*%
X54475000Y-194150000D03*
X44525000Y-194150000D03*
%TD*%
D15*
%TO.P,C72,1*%
%TO.N,Net-(U10-VDD1A)*%
X22500000Y-194037500D03*
%TO.P,C72,2*%
%TO.N,GND*%
X22500000Y-195587500D03*
%TD*%
D18*
%TO.P,R66,1*%
%TO.N,Net-(J9-Pin_6)*%
X43000000Y-203400000D03*
%TO.P,R66,2*%
%TO.N,GND*%
X43000000Y-201750000D03*
%TD*%
D31*
%TO.P,C4,1*%
%TO.N,+3.3V*%
X43250000Y-181775000D03*
%TO.P,C4,2*%
%TO.N,GND*%
X43250000Y-180225000D03*
%TD*%
D48*
%TO.P,U9,1,~{CS}_1*%
%TO.N,/ADC/ADC_SPI.CS*%
X81975000Y-177862500D03*
%TO.P,U9,2,AVCC_2*%
%TO.N,+3.3V*%
X82625000Y-177862500D03*
%TO.P,U9,3,AGND_3*%
%TO.N,GND*%
X83275000Y-177862500D03*
%TO.P,U9,4,IN0_4*%
%TO.N,Net-(U9-IN0)*%
X83925000Y-177862500D03*
%TO.P,U9,5,IN1_5*%
%TO.N,Net-(U9-IN1)*%
X84575000Y-177862500D03*
%TO.P,U9,6,IN2_6*%
%TO.N,Net-(U9-IN2)*%
X85225000Y-177862500D03*
%TO.P,U9,7,IN3_7*%
%TO.N,Net-(U9-IN3)*%
X85875000Y-177862500D03*
%TO.P,U9,8,IN4_8*%
%TO.N,Net-(U9-IN4)*%
X86525000Y-177862500D03*
%TO.P,U9,9,IN5_9*%
%TO.N,Net-(U9-IN5)*%
X86525000Y-172137500D03*
%TO.P,U9,10,IN6_10*%
%TO.N,Net-(U9-IN6)*%
X85875000Y-172137500D03*
%TO.P,U9,11,IN7_11*%
%TO.N,Net-(U9-IN7)*%
X85225000Y-172137500D03*
%TO.P,U9,12,DGND_12*%
%TO.N,GND*%
X84575000Y-172137500D03*
%TO.P,U9,13,DVCC_13*%
%TO.N,+3.3V*%
X83925000Y-172137500D03*
%TO.P,U9,14,DIN_14*%
%TO.N,/ADC/ADC_SPI.DIN*%
X83275000Y-172137500D03*
%TO.P,U9,15,DOUT_15*%
%TO.N,/ADC/ADC_SPI.DOUT*%
X82625000Y-172137500D03*
%TO.P,U9,16,SCLK_16*%
%TO.N,/ADC/ADC_SPI.SCLK*%
X81975000Y-172137500D03*
%TD*%
D24*
%TO.P,R75,1*%
%TO.N,Net-(J14-Pad10)*%
X1750000Y-182000000D03*
%TO.P,R75,2*%
%TO.N,Net-(R75-Pad2)*%
X3400000Y-182000000D03*
%TD*%
D39*
%TO.P,C31,1*%
%TO.N,+5V*%
X20500000Y-167750000D03*
%TO.P,C31,2*%
%TO.N,GND*%
X20500000Y-169750000D03*
%TD*%
D18*
%TO.P,R54,1*%
%TO.N,Net-(J3-Pin_6)*%
X67000000Y-189575000D03*
%TO.P,R54,2*%
%TO.N,GND*%
X67000000Y-187925000D03*
%TD*%
D13*
%TO.P,C62,1*%
%TO.N,Net-(U9-IN5)*%
X90475000Y-171750000D03*
%TO.P,C62,2*%
%TO.N,GND*%
X92025000Y-171750000D03*
%TD*%
D19*
%TO.P,C55,1*%
%TO.N,+3.3V*%
X52775000Y-202250000D03*
%TO.P,C55,2*%
%TO.N,GND*%
X51225000Y-202250000D03*
%TD*%
D24*
%TO.P,R26,1*%
%TO.N,+3.3V*%
X36925000Y-175250000D03*
%TO.P,R26,2*%
%TO.N,Net-(U1B-CBSEL0)*%
X38575000Y-175250000D03*
%TD*%
D12*
%TO.P,R45,1*%
%TO.N,GND*%
X11075000Y-156500000D03*
%TO.P,R45,2*%
%TO.N,Net-(J1-CC1)*%
X9425000Y-156500000D03*
%TD*%
D49*
%TO.P,J12,1,Pin_1_1*%
%TO.N,GND*%
X2775000Y-174950000D03*
D50*
%TO.P,J12,2,Pin_2_2*%
%TO.N,Net-(D7-K)*%
X2775000Y-172450000D03*
%TD*%
D12*
%TO.P,R4,1*%
%TO.N,+3.3V*%
X75325000Y-153000000D03*
%TO.P,R4,2*%
%TO.N,/FPGA/PL_RSTN*%
X73675000Y-153000000D03*
%TD*%
D19*
%TO.P,C22,1*%
%TO.N,+3.3V*%
X44775000Y-178750000D03*
%TO.P,C22,2*%
%TO.N,GND*%
X43225000Y-178750000D03*
%TD*%
D11*
%TO.P,R16,1*%
%TO.N,Net-(D3-GA)*%
X85500000Y-159425000D03*
%TO.P,R16,2*%
%TO.N,/FPGA/USR_LED_G*%
X85500000Y-161075000D03*
%TD*%
D13*
%TO.P,C25,1*%
%TO.N,+5V*%
X24225000Y-170250000D03*
%TO.P,C25,2*%
%TO.N,GND*%
X25775000Y-170250000D03*
%TD*%
D18*
%TO.P,R28,1*%
%TO.N,+3.3V*%
X72750000Y-177825000D03*
%TO.P,R28,2*%
%TO.N,/FPGA/RAM.SIO3*%
X72750000Y-176175000D03*
%TD*%
D12*
%TO.P,R40,1*%
%TO.N,Net-(U5-PR1)*%
X16825000Y-172000000D03*
%TO.P,R40,2*%
%TO.N,GND*%
X15175000Y-172000000D03*
%TD*%
D51*
%TO.P,FB3,1*%
%TO.N,Net-(U10-VDD1A)*%
X21075000Y-195312500D03*
%TO.P,FB3,2*%
%TO.N,+3.3V*%
X19500000Y-195312500D03*
%TD*%
D52*
%TO.P,U3,1,EN_1*%
%TO.N,+5V*%
X28387500Y-173700000D03*
%TO.P,U3,2,GND_2*%
%TO.N,GND*%
X28387500Y-172750000D03*
%TO.P,U3,3,SW_3*%
%TO.N,Net-(U3-SW)*%
X28387500Y-171800000D03*
%TO.P,U3,4,VIN_4*%
%TO.N,+5V*%
X26112500Y-171800000D03*
%TO.P,U3,5,PG_5*%
%TO.N,/Power/VCC_PGOOD*%
X26112500Y-172750000D03*
%TO.P,U3,6,FB_6*%
%TO.N,Net-(U3-FB)*%
X26112500Y-173700000D03*
%TD*%
D18*
%TO.P,R64,1*%
%TO.N,Net-(J8-Pin_6)*%
X55000000Y-203575000D03*
%TO.P,R64,2*%
%TO.N,GND*%
X55000000Y-201925000D03*
%TD*%
D24*
%TO.P,R90,1*%
%TO.N,+3.3V*%
X25850000Y-164750000D03*
%TO.P,R90,2*%
%TO.N,Net-(U8-~{RESET})*%
X27500000Y-164750000D03*
%TD*%
D13*
%TO.P,C67,1*%
%TO.N,+3.3V*%
X19225000Y-186812500D03*
%TO.P,C67,2*%
%TO.N,GND*%
X20775000Y-186812500D03*
%TD*%
D18*
%TO.P,R8,1*%
%TO.N,+3.3V*%
X51750000Y-186325000D03*
%TO.P,R8,2*%
%TO.N,/FPGA/WP_N*%
X51750000Y-184675000D03*
%TD*%
%TO.P,R88,1*%
%TO.N,Net-(U10-VDD1A)*%
X21000000Y-193637500D03*
%TO.P,R88,2*%
%TO.N,/Ethernet/RX-*%
X21000000Y-191987500D03*
%TD*%
D31*
%TO.P,C46,1*%
%TO.N,+3.3V*%
X40925000Y-158025000D03*
%TO.P,C46,2*%
%TO.N,GND*%
X40925000Y-156475000D03*
%TD*%
D13*
%TO.P,C59,1*%
%TO.N,Net-(U9-IN2)*%
X90475000Y-180750000D03*
%TO.P,C59,2*%
%TO.N,GND*%
X92025000Y-180750000D03*
%TD*%
D40*
%TO.P,J11,1,Pin_1_1*%
%TO.N,/FPGA/UART.TX*%
X45110000Y-152325000D03*
D41*
%TO.P,J11,2,Pin_2_2*%
%TO.N,/FPGA/FT.SCLK*%
X45110000Y-149785000D03*
%TO.P,J11,3,Pin_3_3*%
%TO.N,/FPGA/UART.RX*%
X47650000Y-152325000D03*
%TO.P,J11,4,Pin_4_4*%
%TO.N,/FPGA/FT.MOSI*%
X47650000Y-149785000D03*
%TO.P,J11,5,Pin_5_5*%
%TO.N,/FPGA/JTAG.TCK*%
X50190000Y-152325000D03*
%TO.P,J11,6,Pin_6_6*%
%TO.N,/FPGA/FT.MISO*%
X50190000Y-149785000D03*
%TO.P,J11,7,Pin_7_7*%
%TO.N,/FPGA/JTAG.TDI*%
X52730000Y-152325000D03*
%TO.P,J11,8,Pin_8_8*%
%TO.N,/FPGA/FT.CS*%
X52730000Y-149785000D03*
%TO.P,J11,9,Pin_9_9*%
%TO.N,/FPGA/JTAG.TDO*%
X55270000Y-152325000D03*
%TO.P,J11,10,Pin_10_10*%
%TO.N,/FPGA/FT.RESETN*%
X55270000Y-149785000D03*
%TO.P,J11,11,Pin_11_11*%
%TO.N,/FPGA/JTAG.TMS*%
X57810000Y-152325000D03*
%TO.P,J11,12,Pin_12_12*%
%TO.N,/FPGA/FT.HOLD*%
X57810000Y-149785000D03*
%TO.P,J11,13,Pin_13_13*%
%TO.N,+3.3V*%
X60350000Y-152325000D03*
%TO.P,J11,14,Pin_14_14*%
X60350000Y-149785000D03*
%TO.P,J11,15,Pin_15_15*%
%TO.N,GND*%
X62890000Y-152325000D03*
%TO.P,J11,16,Pin_16_16*%
X62890000Y-149785000D03*
%TD*%
D36*
%TO.P,C29,1*%
%TO.N,+1V2*%
X30500000Y-171775000D03*
%TO.P,C29,2*%
%TO.N,GND*%
X30500000Y-174725000D03*
%TD*%
D53*
%TO.P,L1,1,1_1*%
%TO.N,Net-(U3-SW)*%
X28350000Y-169250000D03*
%TO.P,L1,2,2_2*%
%TO.N,+1V2*%
X31150000Y-169250000D03*
%TD*%
D12*
%TO.P,R79,1*%
%TO.N,+3.3V*%
X32550000Y-188312500D03*
%TO.P,R79,2*%
%TO.N,/Ethernet/RMII.CRS_DV*%
X30900000Y-188312500D03*
%TD*%
D13*
%TO.P,C13,1*%
%TO.N,+3.3V*%
X63725000Y-172750000D03*
%TO.P,C13,2*%
%TO.N,GND*%
X65275000Y-172750000D03*
%TD*%
D19*
%TO.P,C52,1*%
%TO.N,+3.3V*%
X88775000Y-202250000D03*
%TO.P,C52,2*%
%TO.N,GND*%
X87225000Y-202250000D03*
%TD*%
D37*
%TO.P,U6,1,DO_1*%
%TO.N,Net-(U6-DO)*%
X29862500Y-147550000D03*
%TO.P,U6,2,Vss_2*%
%TO.N,GND*%
X29862500Y-148500000D03*
%TO.P,U6,3,DI_3*%
%TO.N,/USB/EEDATA*%
X29862500Y-149450000D03*
%TO.P,U6,4,CLK_4*%
%TO.N,/USB/EECLK*%
X32137500Y-149450000D03*
%TO.P,U6,5,CS_5*%
%TO.N,/USB/EECS*%
X32137500Y-148500000D03*
%TO.P,U6,6,Vcc_6*%
%TO.N,+3.3V*%
X32137500Y-147550000D03*
%TD*%
D38*
%TO.P,F1,1*%
%TO.N,VBUS*%
X9500000Y-166537500D03*
%TO.P,F1,2*%
%TO.N,Net-(F1-Pad2)*%
X9500000Y-164962500D03*
%TD*%
D32*
%TO.P,TP32,1,1_1*%
%TO.N,/FPGA/I2S.DATA2*%
X61500000Y-187500000D03*
%TD*%
D12*
%TO.P,R80,1*%
%TO.N,/Ethernet/INTSEL*%
X17250000Y-201480000D03*
%TO.P,R80,2*%
%TO.N,Net-(R78-Pad1)*%
X15600000Y-201480000D03*
%TD*%
D11*
%TO.P,R51,1*%
%TO.N,+3.3V*%
X80500000Y-187925000D03*
%TO.P,R51,2*%
%TO.N,Net-(J2-Pin_6)*%
X80500000Y-189575000D03*
%TD*%
%TO.P,R44,1*%
%TO.N,+3.3V*%
X35500000Y-147675000D03*
%TO.P,R44,2*%
%TO.N,/USB/EECLK*%
X35500000Y-149325000D03*
%TD*%
D24*
%TO.P,R25,1*%
%TO.N,/FPGA/REF_RES*%
X65175000Y-180250000D03*
%TO.P,R25,2*%
%TO.N,GND*%
X66825000Y-180250000D03*
%TD*%
D13*
%TO.P,C70,1*%
%TO.N,Net-(U10-VDDCR)*%
X27725000Y-197312500D03*
%TO.P,C70,2*%
%TO.N,GND*%
X29275000Y-197312500D03*
%TD*%
D54*
%TO.P,U1,1,GND_1*%
%TO.N,GND*%
X48250000Y-182425000D03*
%TO.P,U1,2,GPIOL_41_CDI9_2*%
%TO.N,/FPGA/I2S.SCK*%
X48750000Y-182425000D03*
%TO.P,U1,3,GPIOL_40_CDI8_3*%
%TO.N,/FPGA/I2S.WS*%
X49250000Y-182425000D03*
%TO.P,U1,4,GPIOL_32_CTRL4_CDI7_4*%
%TO.N,/FPGA/I2S.DATA3*%
X49750000Y-182425000D03*
%TO.P,U1,5,GPIOL_31_CLK7_CDI6_5*%
%TO.N,/FPGA/I2S.DATA2*%
X50250000Y-182425000D03*
%TO.P,U1,6,SPI_CS_N_6*%
%TO.N,/FPGA/FT.CS*%
X50750000Y-182425000D03*
%TO.P,U1,7,GPIOL_24_CLK0_7*%
%TO.N,/FPGA/I2S.DATA1*%
X51250000Y-182425000D03*
%TO.P,U1,8,CDI2/WP_N_8*%
%TO.N,/FPGA/WP_N*%
X51750000Y-182425000D03*
%TO.P,U1,9,GPIOL_21_CTRL1_CDI5_9*%
%TO.N,/FPGA/I2S.DATA0*%
X52250000Y-182425000D03*
%TO.P,U1,10,GPIOL_20_CTRL0_CDI4_10*%
%TO.N,/FPGA/PL_RSTN*%
X52750000Y-182425000D03*
%TO.P,U1,11,VCCIO_11*%
%TO.N,+3.3V*%
X53250000Y-182425000D03*
%TO.P,U1,12,TDO_12*%
%TO.N,/FPGA/JTAG.TDO*%
X53750000Y-182425000D03*
%TO.P,U1,13,TCK_13*%
%TO.N,/FPGA/JTAG.TCK*%
X54250000Y-182425000D03*
%TO.P,U1,14,CDI3/HOLD_N_14*%
%TO.N,/FPGA/FT.HOLD*%
X54750000Y-182425000D03*
%TO.P,U1,15,VCC_15*%
%TO.N,+1V2*%
X55250000Y-182425000D03*
%TO.P,U1,16,TMS_16*%
%TO.N,/FPGA/JTAG.TMS*%
X55750000Y-182425000D03*
%TO.P,U1,17,TDI_17*%
%TO.N,/FPGA/JTAG.TDI*%
X56250000Y-182425000D03*
%TO.P,U1,18,CDI1/MISO_18*%
%TO.N,/FPGA/FT.MISO*%
X56750000Y-182425000D03*
%TO.P,U1,19,CDI0/MOSI_19*%
%TO.N,/FPGA/FT.MOSI*%
X57250000Y-182425000D03*
%TO.P,U1,20,CRESET_N_20*%
%TO.N,/FPGA/FT.RESETN*%
X57750000Y-182425000D03*
%TO.P,U1,21,VCCIO_21*%
%TO.N,+3.3V*%
X58250000Y-182425000D03*
%TO.P,U1,22,CSO_22*%
%TO.N,unconnected-(U1B-CSO-Pad22)*%
X58750000Y-182425000D03*
%TO.P,U1,23,CSI_23*%
%TO.N,/FPGA/CSI*%
X59250000Y-182425000D03*
%TO.P,U1,24,SS_N_24*%
%TO.N,/FPGA/FT.CS*%
X59750000Y-182425000D03*
%TO.P,U1,25,CDONE_25*%
%TO.N,/FPGA/FT.CDONE*%
X60250000Y-182425000D03*
D55*
%TO.P,U1,26,CCK/SCLK_26*%
%TO.N,/FPGA/FT.SCLK*%
X61925000Y-180750000D03*
%TO.P,U1,27,REF_RES_27*%
%TO.N,/FPGA/REF_RES*%
X61925000Y-180250000D03*
%TO.P,U1,28,GND_28*%
%TO.N,GND*%
X61925000Y-179750000D03*
%TO.P,U1,29,GPIOB_TXP01_29*%
%TO.N,/FPGA/USR_LED_R*%
X61925000Y-179250000D03*
%TO.P,U1,30,GPIOB_TXN01_30*%
%TO.N,/FPGA/USR_LED_G*%
X61925000Y-178750000D03*
%TO.P,U1,31,VCC_31*%
%TO.N,+1V2*%
X61925000Y-178250000D03*
%TO.P,U1,32,GPIOB_TXP04_32*%
%TO.N,/FPGA/USR_LED_B*%
X61925000Y-177750000D03*
%TO.P,U1,33,GPIOB_TXN04_33*%
%TO.N,/ADC/ADC_SPI.CS*%
X61925000Y-177250000D03*
%TO.P,U1,34,VCCIO_34*%
%TO.N,+3.3V*%
X61925000Y-176750000D03*
%TO.P,U1,35,GPIOB_TXP07_35*%
%TO.N,/ADC/ADC_SPI.SCLK*%
X61925000Y-176250000D03*
%TO.P,U1,36,GPIOB_TXN07_36*%
%TO.N,/ADC/ADC_SPI.DIN*%
X61925000Y-175750000D03*
%TO.P,U1,37,GPIOB_TXP10_37*%
%TO.N,/ADC/ADC_SPI.DOUT*%
X61925000Y-175250000D03*
%TO.P,U1,38,GPIOB_TXN10_38*%
%TO.N,/FPGA/RAM.SIO0*%
X61925000Y-174750000D03*
%TO.P,U1,39,GND_39*%
%TO.N,GND*%
X61925000Y-174250000D03*
%TO.P,U1,40,GPIOB_RXP00_40*%
%TO.N,/FPGA/RAM.SCK*%
X61925000Y-173750000D03*
%TO.P,U1,41,GPIOB_RXN00_41*%
%TO.N,/FPGA/RAM.SIO3*%
X61925000Y-173250000D03*
%TO.P,U1,42,VCCIO_42*%
%TO.N,+3.3V*%
X61925000Y-172750000D03*
%TO.P,U1,43,GPIOB_RXN03_43*%
%TO.N,/FPGA/RAM.CS*%
X61925000Y-172250000D03*
%TO.P,U1,44,GPIOB_RXP03_44*%
%TO.N,/FPGA/RAM.SIO1*%
X61925000Y-171750000D03*
%TO.P,U1,45,VCC_45*%
%TO.N,+1V2*%
X61925000Y-171250000D03*
%TO.P,U1,46,GPIOB_RXP06_46*%
%TO.N,/FPGA/RAM.SIO2*%
X61925000Y-170750000D03*
%TO.P,U1,47,GPIOB_RXN06_47*%
%TO.N,/FPGA/GPIO0*%
X61925000Y-170250000D03*
%TO.P,U1,48,GPIOB_RXN09_48*%
%TO.N,/FPGA/GPIO1*%
X61925000Y-169750000D03*
%TO.P,U1,49,GPIOB_RXP09_49*%
%TO.N,/FPGA/GPIO2*%
X61925000Y-169250000D03*
%TO.P,U1,50,VCCA_50*%
%TO.N,+1V2*%
X61925000Y-168750000D03*
D54*
%TO.P,U1,51,GPIOB_CLKP0_51*%
%TO.N,/FPGA/GPIO3*%
X60250000Y-167075000D03*
%TO.P,U1,52,GPIOB_CLKN0_52*%
%TO.N,/FPGA/GPIO4*%
X59750000Y-167075000D03*
%TO.P,U1,53,TEST_N_53*%
%TO.N,Net-(U1B-TEST_N)*%
X59250000Y-167075000D03*
%TO.P,U1,54,GPIOR_157_PLLIN_54*%
%TO.N,/FPGA/GPIO5*%
X58750000Y-167075000D03*
%TO.P,U1,55,GPIOR_155_55*%
%TO.N,/FPGA/GPIO6*%
X58250000Y-167075000D03*
%TO.P,U1,56,GPIOR_154_56*%
%TO.N,/FPGA/GPIO7*%
X57750000Y-167075000D03*
%TO.P,U1,57,CBUS0_57*%
%TO.N,Net-(U1B-CBUS0)*%
X57250000Y-167075000D03*
%TO.P,U1,58,CBUS1_58*%
%TO.N,Net-(U1B-CBUS1)*%
X56750000Y-167075000D03*
%TO.P,U1,59,CBUS2_59*%
%TO.N,Net-(U1B-CBUS2)*%
X56250000Y-167075000D03*
%TO.P,U1,60,VCCIO_60*%
%TO.N,+3.3V*%
X55750000Y-167075000D03*
%TO.P,U1,61,GND_61*%
%TO.N,GND*%
X55250000Y-167075000D03*
%TO.P,U1,62,GPIOR_133_CDI18_62*%
%TO.N,/FPGA/BB0*%
X54750000Y-167075000D03*
%TO.P,U1,63,GPIOR_132_CDI19_63*%
%TO.N,/FPGA/BB1*%
X54250000Y-167075000D03*
%TO.P,U1,64,VCC_64*%
%TO.N,+1V2*%
X53750000Y-167075000D03*
%TO.P,U1,65,GPIOR_123_CLK12_CDI20_65*%
%TO.N,/FPGA/BB2*%
X53250000Y-167075000D03*
%TO.P,U1,66,GPIOR_122_CLK13_CDI21_66*%
%TO.N,/FPGA/BB3*%
X52750000Y-167075000D03*
%TO.P,U1,67,GPIOR_117_CTRL14_67*%
%TO.N,/FPGA/BB4*%
X52250000Y-167075000D03*
%TO.P,U1,68,GPIOR_116_CTRL15_68*%
%TO.N,/FPGA/BB5*%
X51750000Y-167075000D03*
%TO.P,U1,69,VCCIO_69*%
%TO.N,+3.3V*%
X51250000Y-167075000D03*
%TO.P,U1,70,GND_70*%
%TO.N,GND*%
X50750000Y-167075000D03*
%TO.P,U1,71,GPIOR_94_CDI27_71*%
%TO.N,/FPGA/BB6*%
X50250000Y-167075000D03*
%TO.P,U1,72,VCCA_72*%
%TO.N,+1V2*%
X49750000Y-167075000D03*
%TO.P,U1,73,GPIOR_88_CDI28_73*%
%TO.N,/FPGA/BB7*%
X49250000Y-167075000D03*
%TO.P,U1,74,GPIOR_87_CDI29_74*%
%TO.N,/FPGA/UART.RX*%
X48750000Y-167075000D03*
%TO.P,U1,75,VCC_75*%
%TO.N,+1V2*%
X48250000Y-167075000D03*
D55*
%TO.P,U1,76,VCCIO_76*%
%TO.N,+3.3V*%
X46575000Y-168750000D03*
%TO.P,U1,77,GPIOR_79_EXTFB1_CDI30_77*%
%TO.N,/FPGA/UART.TX*%
X46575000Y-169250000D03*
%TO.P,U1,78,GPIOR_78_EXTFB0_CDI31_78*%
%TO.N,/Ethernet/RMII.TXD1*%
X46575000Y-169750000D03*
%TO.P,U1,79,GPIOR_77_PLLIN1_79*%
%TO.N,/Ethernet/RMII.TXD0*%
X46575000Y-170250000D03*
%TO.P,U1,80,GPIOR_76_PLLIN0_80*%
%TO.N,/Ethernet/RMII.TXEN*%
X46575000Y-170750000D03*
%TO.P,U1,81,GND_81*%
%TO.N,GND*%
X46575000Y-171250000D03*
%TO.P,U1,82,VCC_82*%
%TO.N,+1V2*%
X46575000Y-171750000D03*
%TO.P,U1,83,VCC_83*%
X46575000Y-172250000D03*
%TO.P,U1,84,VCCA_84*%
X46575000Y-172750000D03*
%TO.P,U1,85,GPIOL_75_PLLIN1_85*%
%TO.N,/Ethernet/RMII.RSTN*%
X46575000Y-173250000D03*
%TO.P,U1,86,GPIOL_74_PLLIN0_86*%
%TO.N,/FPGA/CLK*%
X46575000Y-173750000D03*
%TO.P,U1,87,GPIOL_73_EXTFB1_CDI15_87*%
%TO.N,/Ethernet/RMII.INT*%
X46575000Y-174250000D03*
%TO.P,U1,88,NSTATUS_88*%
%TO.N,/FPGA/NSTATUS*%
X46575000Y-174750000D03*
%TO.P,U1,89,GPIOL_72_EXTFB0_CDI14_89*%
%TO.N,/Ethernet/RMII.MDC*%
X46575000Y-175250000D03*
%TO.P,U1,90,GND_90*%
%TO.N,GND*%
X46575000Y-175750000D03*
%TO.P,U1,91,VCC_91*%
%TO.N,+1V2*%
X46575000Y-176250000D03*
%TO.P,U1,92,CBSEL0_92*%
%TO.N,Net-(U1B-CBSEL0)*%
X46575000Y-176750000D03*
%TO.P,U1,93,CBSEL1_93*%
%TO.N,Net-(U1B-CBSEL1)*%
X46575000Y-177250000D03*
%TO.P,U1,94,GPIOL_67_CDI13_94*%
%TO.N,/Ethernet/RMII.MDIO*%
X46575000Y-177750000D03*
%TO.P,U1,95,GPIOL_66_CDI12_95*%
%TO.N,/Ethernet/RMII.CRS_DV*%
X46575000Y-178250000D03*
%TO.P,U1,96,VCCIO_96*%
%TO.N,+3.3V*%
X46575000Y-178750000D03*
%TO.P,U1,97,GND_97*%
%TO.N,GND*%
X46575000Y-179250000D03*
%TO.P,U1,98,GPIOL_53_CDI10_98*%
%TO.N,/Ethernet/RMII.RXER*%
X46575000Y-179750000D03*
%TO.P,U1,99,GPIOL_54_CDI11_99*%
%TO.N,/Ethernet/RMII.RXD0*%
X46575000Y-180250000D03*
%TO.P,U1,100,GPIOL_46_100*%
%TO.N,/Ethernet/RMII.RXD1*%
X46575000Y-180750000D03*
%TD*%
D11*
%TO.P,R63,1*%
%TO.N,+3.3V*%
X56500000Y-201925000D03*
%TO.P,R63,2*%
%TO.N,Net-(J8-Pin_6)*%
X56500000Y-203575000D03*
%TD*%
D18*
%TO.P,R12,1*%
%TO.N,+3.3V*%
X59750000Y-186325000D03*
%TO.P,R12,2*%
%TO.N,/FPGA/CSI*%
X59750000Y-184675000D03*
%TD*%
%TO.P,R21,1*%
%TO.N,+3.3V*%
X78750000Y-161075000D03*
%TO.P,R21,2*%
%TO.N,/FPGA/FT.CDONE*%
X78750000Y-159425000D03*
%TD*%
D19*
%TO.P,C51,1*%
%TO.N,+3.3V*%
X52775000Y-188250000D03*
%TO.P,C51,2*%
%TO.N,GND*%
X51225000Y-188250000D03*
%TD*%
D31*
%TO.P,C35,1*%
%TO.N,Net-(U8-OSCI)*%
X26750000Y-154275000D03*
%TO.P,C35,2*%
%TO.N,GND*%
X26750000Y-152725000D03*
%TD*%
D18*
%TO.P,R17,1*%
%TO.N,/FPGA/USR_LED_B*%
X84000000Y-161075000D03*
%TO.P,R17,2*%
%TO.N,Net-(D3-BA)*%
X84000000Y-159425000D03*
%TD*%
D31*
%TO.P,C20,1*%
%TO.N,+3.3V*%
X45500000Y-166775000D03*
%TO.P,C20,2*%
%TO.N,GND*%
X45500000Y-165225000D03*
%TD*%
D18*
%TO.P,R14,1*%
%TO.N,+3.3V*%
X80250000Y-161075000D03*
%TO.P,R14,2*%
%TO.N,Net-(D1-A)*%
X80250000Y-159425000D03*
%TD*%
D13*
%TO.P,C14,1*%
%TO.N,+1V2*%
X62250000Y-167500000D03*
%TO.P,C14,2*%
%TO.N,GND*%
X63800000Y-167500000D03*
%TD*%
D56*
%TO.P,U4,1,IN_1*%
%TO.N,+5V*%
X22450000Y-175362500D03*
%TO.P,U4,2,GND_2*%
%TO.N,GND*%
X21500000Y-175362500D03*
%TO.P,U4,3,EN_3*%
%TO.N,/Power/VCC_PGOOD*%
X20550000Y-175362500D03*
%TO.P,U4,4,NC_4*%
%TO.N,unconnected-(U4-NC-Pad4)*%
X20550000Y-177637500D03*
%TO.P,U4,5,OUT_5*%
%TO.N,+3.3V*%
X22450000Y-177637500D03*
%TD*%
D16*
%TO.P,J2,1,Pin_1_1*%
%TO.N,+3.3V*%
X88625000Y-190800000D03*
%TO.P,J2,2,Pin_2_2*%
%TO.N,GND*%
X87375000Y-190800000D03*
%TO.P,J2,3,Pin_3_3*%
%TO.N,/FPGA/I2S.SCK*%
X86125000Y-190800000D03*
%TO.P,J2,4,Pin_4_4*%
%TO.N,/FPGA/I2S.DATA0*%
X84875000Y-190800000D03*
%TO.P,J2,5,Pin_5_5*%
%TO.N,/FPGA/I2S.WS*%
X83625000Y-190800000D03*
%TO.P,J2,6,Pin_6_6*%
%TO.N,Net-(J2-Pin_6)*%
X82375000Y-190800000D03*
D17*
%TO.P,J2,MP*%
%TO.N,N/C*%
X90475000Y-194150000D03*
X80525000Y-194150000D03*
%TD*%
D18*
%TO.P,R87,1*%
%TO.N,Net-(U10-VDD1A)*%
X19500000Y-193637500D03*
%TO.P,R87,2*%
%TO.N,/Ethernet/RX+*%
X19500000Y-191987500D03*
%TD*%
D12*
%TO.P,R72,1*%
%TO.N,/ADC/ADC5*%
X92075000Y-170250000D03*
%TO.P,R72,2*%
%TO.N,Net-(U9-IN5)*%
X90425000Y-170250000D03*
%TD*%
D30*
%TO.P,F2,1*%
%TO.N,Net-(D7-K)*%
X15212500Y-173500000D03*
%TO.P,F2,2*%
%TO.N,VCC*%
X16787500Y-173500000D03*
%TD*%
D11*
%TO.P,R84,1*%
%TO.N,Net-(U10-VDD1A)*%
X21000000Y-188487500D03*
%TO.P,R84,2*%
%TO.N,/Ethernet/TX+*%
X21000000Y-190137500D03*
%TD*%
D19*
%TO.P,C21,1*%
%TO.N,+1V2*%
X44775000Y-176250000D03*
%TO.P,C21,2*%
%TO.N,GND*%
X43225000Y-176250000D03*
%TD*%
D31*
%TO.P,C71,1*%
%TO.N,Net-(U10-VDD1A)*%
X22500000Y-188587500D03*
%TO.P,C71,2*%
%TO.N,GND*%
X22500000Y-187037500D03*
%TD*%
%TO.P,C37,1*%
%TO.N,Net-(U8-OSCO)*%
X21000000Y-154275000D03*
%TO.P,C37,2*%
%TO.N,GND*%
X21000000Y-152725000D03*
%TD*%
D19*
%TO.P,C53,1*%
%TO.N,+3.3V*%
X76775000Y-202250000D03*
%TO.P,C53,2*%
%TO.N,GND*%
X75225000Y-202250000D03*
%TD*%
D57*
%TO.P,U8,1,GND_1*%
%TO.N,GND*%
X27750000Y-155500000D03*
%TO.P,U8,2,OSCI_2*%
%TO.N,Net-(U8-OSCI)*%
X27750000Y-156000000D03*
%TO.P,U8,3,OSCO_3*%
%TO.N,Net-(U8-OSCO)*%
X27750000Y-156500000D03*
%TO.P,U8,4,VPHY_4*%
%TO.N,Net-(U8-VPHY)*%
X27750000Y-157000000D03*
%TO.P,U8,5,GND_5*%
%TO.N,GND*%
X27750000Y-157500000D03*
%TO.P,U8,6,REF_6*%
%TO.N,Net-(U8-REF)*%
X27750000Y-158000000D03*
%TO.P,U8,7,DM_7*%
%TO.N,/USB/USB_ESD_D-*%
X27750000Y-158500000D03*
%TO.P,U8,8,DP_8*%
%TO.N,/USB/USB_ESD_D+*%
X27750000Y-159000000D03*
%TO.P,U8,9,VPLL_9*%
%TO.N,Net-(U8-VPLL)*%
X27750000Y-159500000D03*
%TO.P,U8,10,AGND_10*%
%TO.N,GND*%
X27750000Y-160000000D03*
%TO.P,U8,11,GND_11*%
X27750000Y-160500000D03*
%TO.P,U8,12,VCORE_12*%
%TO.N,+1V8*%
X27750000Y-161000000D03*
%TO.P,U8,13,TEST_13*%
%TO.N,GND*%
X27750000Y-161500000D03*
%TO.P,U8,14,~{RESET}_14*%
%TO.N,Net-(U8-~{RESET})*%
X27750000Y-162000000D03*
%TO.P,U8,15,GND_15*%
%TO.N,GND*%
X27750000Y-162500000D03*
%TO.P,U8,16,ADBUS0_16*%
%TO.N,/USB/FT_SCLK*%
X27750000Y-163000000D03*
D58*
%TO.P,U8,17,ADBUS1_17*%
%TO.N,/USB/FT_MOSI*%
X29675000Y-164925000D03*
%TO.P,U8,18,ADBUS2_18*%
%TO.N,/USB/FT_MISO*%
X30175000Y-164925000D03*
%TO.P,U8,19,ADBUS3_19*%
%TO.N,/USB/FT_SS*%
X30675000Y-164925000D03*
%TO.P,U8,20,VCCIO_20*%
%TO.N,+3.3V*%
X31175000Y-164925000D03*
%TO.P,U8,21,ADBUS4_21*%
%TO.N,/USB/FT_RSTN*%
X31675000Y-164925000D03*
%TO.P,U8,22,ADBUS5_22*%
%TO.N,/USB/FT_CDONE*%
X32175000Y-164925000D03*
%TO.P,U8,23,ADBUS6_23*%
%TO.N,/USB/FT_HOLD*%
X32675000Y-164925000D03*
%TO.P,U8,24,ADBUS7_24*%
%TO.N,/USB/FT_ENA*%
X33175000Y-164925000D03*
%TO.P,U8,25,GND_25*%
%TO.N,GND*%
X33675000Y-164925000D03*
%TO.P,U8,26,BDBUS0_26*%
%TO.N,/FPGA/JTAG.TCK*%
X34175000Y-164925000D03*
%TO.P,U8,27,BDBUS1_27*%
%TO.N,/FPGA/JTAG.TDI*%
X34675000Y-164925000D03*
%TO.P,U8,28,BDBUS2_28*%
%TO.N,/FPGA/JTAG.TDO*%
X35175000Y-164925000D03*
%TO.P,U8,29,BDBUS3_29*%
%TO.N,/FPGA/JTAG.TMS*%
X35675000Y-164925000D03*
%TO.P,U8,30,BDBUS4_30*%
%TO.N,unconnected-(U8-BDBUS4-Pad30)*%
X36175000Y-164925000D03*
%TO.P,U8,31,VCCIO_31*%
%TO.N,+3.3V*%
X36675000Y-164925000D03*
%TO.P,U8,32,BDBUS5_32*%
%TO.N,unconnected-(U8-BDBUS5-Pad32)*%
X37175000Y-164925000D03*
D57*
%TO.P,U8,33,BDBUS6_33*%
%TO.N,unconnected-(U8-BDBUS6-Pad33)*%
X39100000Y-163000000D03*
%TO.P,U8,34,BDBUS7_34*%
%TO.N,unconnected-(U8-BDBUS7-Pad34)*%
X39100000Y-162500000D03*
%TO.P,U8,35,GND_35*%
%TO.N,GND*%
X39100000Y-162000000D03*
%TO.P,U8,36,~{SUSPEND}_36*%
%TO.N,unconnected-(U8-~{SUSPEND}-Pad36)*%
X39100000Y-161500000D03*
%TO.P,U8,37,VCORE_37*%
%TO.N,+1V8*%
X39100000Y-161000000D03*
%TO.P,U8,38,CDBUS0_38*%
%TO.N,/FPGA/UART.TX*%
X39100000Y-160500000D03*
%TO.P,U8,39,CDBUS1_39*%
%TO.N,/FPGA/UART.RX*%
X39100000Y-160000000D03*
%TO.P,U8,40,CDBUS2_40*%
%TO.N,unconnected-(U8-CDBUS2-Pad40)*%
X39100000Y-159500000D03*
%TO.P,U8,41,CDBUS3_41*%
%TO.N,unconnected-(U8-CDBUS3-Pad41)*%
X39100000Y-159000000D03*
%TO.P,U8,42,VCCIO_42*%
%TO.N,+3.3V*%
X39100000Y-158500000D03*
%TO.P,U8,43,CDBUS4_43*%
%TO.N,unconnected-(U8-CDBUS4-Pad43)*%
X39100000Y-158000000D03*
%TO.P,U8,44,CDBUS5_44*%
%TO.N,unconnected-(U8-CDBUS5-Pad44)*%
X39100000Y-157500000D03*
%TO.P,U8,45,CDBUS6_45*%
%TO.N,unconnected-(U8-CDBUS6-Pad45)*%
X39100000Y-157000000D03*
%TO.P,U8,46,CDBUS7_46*%
%TO.N,unconnected-(U8-CDBUS7-Pad46)*%
X39100000Y-156500000D03*
%TO.P,U8,47,GND_47*%
%TO.N,GND*%
X39100000Y-156000000D03*
%TO.P,U8,48,DDBUS0_48*%
%TO.N,/FPGA/BB0*%
X39100000Y-155500000D03*
D58*
%TO.P,U8,49,VREGOUT_49*%
%TO.N,+1V8*%
X37175000Y-153575000D03*
%TO.P,U8,50,VREGIN_50*%
%TO.N,+3.3V*%
X36675000Y-153575000D03*
%TO.P,U8,51,GND_51*%
%TO.N,GND*%
X36175000Y-153575000D03*
%TO.P,U8,52,DDBUS1_52*%
%TO.N,/FPGA/BB1*%
X35675000Y-153575000D03*
%TO.P,U8,53,DDBUS2_53*%
%TO.N,/FPGA/BB2*%
X35175000Y-153575000D03*
%TO.P,U8,54,DDBUS3_54*%
%TO.N,/FPGA/BB3*%
X34675000Y-153575000D03*
%TO.P,U8,55,DDBUS4_55*%
%TO.N,/FPGA/BB4*%
X34175000Y-153575000D03*
%TO.P,U8,56,VCCIO_56*%
%TO.N,+3.3V*%
X33675000Y-153575000D03*
%TO.P,U8,57,DDBUS5_57*%
%TO.N,/FPGA/BB5*%
X33175000Y-153575000D03*
%TO.P,U8,58,DDBUS6_58*%
%TO.N,/FPGA/BB6*%
X32675000Y-153575000D03*
%TO.P,U8,59,DDBUS7_59*%
%TO.N,/FPGA/BB7*%
X32175000Y-153575000D03*
%TO.P,U8,60,~{PWREN}_60*%
%TO.N,unconnected-(U8-~{PWREN}-Pad60)*%
X31675000Y-153575000D03*
%TO.P,U8,61,EEDATA_61*%
%TO.N,/USB/EEDATA*%
X31175000Y-153575000D03*
%TO.P,U8,62,EECLK_62*%
%TO.N,/USB/EECLK*%
X30675000Y-153575000D03*
%TO.P,U8,63,EECS_63*%
%TO.N,/USB/EECS*%
X30175000Y-153575000D03*
%TO.P,U8,64,VCORE_64*%
%TO.N,+1V8*%
X29675000Y-153575000D03*
%TD*%
D11*
%TO.P,R47,1*%
%TO.N,Net-(R43-Pad1)*%
X27750000Y-147425000D03*
%TO.P,R47,2*%
%TO.N,/USB/EEDATA*%
X27750000Y-149075000D03*
%TD*%
D12*
%TO.P,R30,1*%
%TO.N,+3.3V*%
X75325000Y-166500000D03*
%TO.P,R30,2*%
%TO.N,/FPGA/RAM.SIO1*%
X73675000Y-166500000D03*
%TD*%
D59*
%TO.P,U11,1,1\u002AOE_1*%
%TO.N,/USB/FT_ENA*%
X34450001Y-179473952D03*
%TO.P,U11,2,1A1_2*%
%TO.N,/USB/FT_RSTN*%
X33950002Y-179473952D03*
%TO.P,U11,3,2Y4_3*%
%TO.N,/USB/FT_CDONE*%
X33450000Y-179473952D03*
%TO.P,U11,4,1A2_4*%
%TO.N,/USB/FT_SS*%
X32950001Y-179473952D03*
%TO.P,U11,5,2Y3_5*%
%TO.N,/USB/FT_MISO*%
X32450000Y-179473952D03*
%TO.P,U11,6,1A3_6*%
%TO.N,/USB/FT_MOSI*%
X31950000Y-179473952D03*
%TO.P,U11,7,2Y2_7*%
%TO.N,unconnected-(U11-2Y2-Pad7)*%
X31450002Y-179473952D03*
%TO.P,U11,8,1A4_8*%
%TO.N,/USB/FT_SCLK*%
X30950000Y-179473952D03*
%TO.P,U11,9,2Y1_9*%
%TO.N,/FPGA/FT.HOLD*%
X30450001Y-179473952D03*
%TO.P,U11,10,GND_10*%
%TO.N,GND*%
X29949999Y-179473952D03*
%TO.P,U11,11,2A1_11*%
%TO.N,/USB/FT_HOLD*%
X29949999Y-183926048D03*
%TO.P,U11,12,1Y4_12*%
%TO.N,/FPGA/FT.SCLK*%
X30449998Y-183926048D03*
%TO.P,U11,13,2A2_13*%
%TO.N,unconnected-(U11-2A2-Pad13)*%
X30950000Y-183926048D03*
%TO.P,U11,14,1Y3_14*%
%TO.N,/FPGA/FT.MOSI*%
X31449999Y-183926048D03*
%TO.P,U11,15,2A3_15*%
%TO.N,/FPGA/FT.MISO*%
X31950000Y-183926048D03*
%TO.P,U11,16,1Y2_16*%
%TO.N,/FPGA/FT.CS*%
X32450000Y-183926048D03*
%TO.P,U11,17,2A4_17*%
%TO.N,/FPGA/FT.CDONE*%
X32949998Y-183926048D03*
%TO.P,U11,18,1Y1_18*%
%TO.N,/FPGA/FT.RESETN*%
X33450000Y-183926048D03*
%TO.P,U11,19,2\u002AOE_19*%
%TO.N,/USB/FT_ENA*%
X33949999Y-183926048D03*
%TO.P,U11,20,VCC_20*%
%TO.N,+3.3V*%
X34450001Y-183926048D03*
%TD*%
D11*
%TO.P,R20,1*%
%TO.N,+3.3V*%
X58750000Y-160675000D03*
%TO.P,R20,2*%
%TO.N,Net-(U1B-CBUS1)*%
X58750000Y-162325000D03*
%TD*%
D13*
%TO.P,C57,1*%
%TO.N,Net-(U9-IN0)*%
X90475000Y-186750000D03*
%TO.P,C57,2*%
%TO.N,GND*%
X92025000Y-186750000D03*
%TD*%
D12*
%TO.P,R35,1*%
%TO.N,+1V2*%
X27825000Y-175250000D03*
%TO.P,R35,2*%
%TO.N,Net-(U3-FB)*%
X26175000Y-175250000D03*
%TD*%
D15*
%TO.P,C7,1*%
%TO.N,+3.3V*%
X58250000Y-184225000D03*
%TO.P,C7,2*%
%TO.N,GND*%
X58250000Y-185775000D03*
%TD*%
D19*
%TO.P,C32,1*%
%TO.N,+3.3V*%
X32275000Y-146000000D03*
%TO.P,C32,2*%
%TO.N,GND*%
X30725000Y-146000000D03*
%TD*%
D60*
%TO.P,NT1,1,1_1*%
%TO.N,/Ethernet/RMII.CLK*%
X31200000Y-195400000D03*
%TO.P,NT1,2,2_2*%
%TO.N,/FPGA/CLK*%
X32200000Y-195400000D03*
%TD*%
D32*
%TO.P,TP1,1,1_1*%
%TO.N,/FPGA/NSTATUS*%
X80200000Y-152100000D03*
%TD*%
D61*
%TO.P,D3,1,K_1*%
%TO.N,GND*%
X85075000Y-156525000D03*
%TO.P,D3,2,RA_2*%
%TO.N,Net-(D3-RA)*%
X85925000Y-156525000D03*
%TO.P,D3,3,GA_3*%
%TO.N,Net-(D3-GA)*%
X85925000Y-157975000D03*
%TO.P,D3,4,BA_4*%
%TO.N,Net-(D3-BA)*%
X85075000Y-157975000D03*
%TD*%
D32*
%TO.P,TP14,1,1_1*%
%TO.N,Net-(U6-DO)*%
X24750000Y-148000000D03*
%TD*%
%TO.P,TP2,1,1_1*%
%TO.N,/FPGA/FT.CDONE*%
X73600000Y-182500000D03*
%TD*%
D16*
%TO.P,J3,1,Pin_1_1*%
%TO.N,+3.3V*%
X76625000Y-190800000D03*
%TO.P,J3,2,Pin_2_2*%
%TO.N,GND*%
X75375000Y-190800000D03*
%TO.P,J3,3,Pin_3_3*%
%TO.N,/FPGA/I2S.SCK*%
X74125000Y-190800000D03*
%TO.P,J3,4,Pin_4_4*%
%TO.N,/FPGA/I2S.DATA1*%
X72875000Y-190800000D03*
%TO.P,J3,5,Pin_5_5*%
%TO.N,/FPGA/I2S.WS*%
X71625000Y-190800000D03*
%TO.P,J3,6,Pin_6_6*%
%TO.N,Net-(J3-Pin_6)*%
X70375000Y-190800000D03*
D17*
%TO.P,J3,MP*%
%TO.N,N/C*%
X78475000Y-194150000D03*
X68525000Y-194150000D03*
%TD*%
D38*
%TO.P,FB2,1*%
%TO.N,+3.3V*%
X22175000Y-158287500D03*
%TO.P,FB2,2*%
%TO.N,Net-(U8-VPHY)*%
X22175000Y-156712500D03*
%TD*%
D12*
%TO.P,R29,1*%
%TO.N,+3.3V*%
X75325000Y-165000000D03*
%TO.P,R29,2*%
%TO.N,/FPGA/RAM.SIO2*%
X73675000Y-165000000D03*
%TD*%
D18*
%TO.P,R31,1*%
%TO.N,+3.3V*%
X69750000Y-177825000D03*
%TO.P,R31,2*%
%TO.N,/FPGA/RAM.SIO0*%
X69750000Y-176175000D03*
%TD*%
D29*
%TO.P,D7,1,K_1*%
%TO.N,Net-(D7-K)*%
X8500000Y-171750000D03*
%TO.P,D7,2,A_2*%
%TO.N,GND*%
X8500000Y-175750000D03*
%TD*%
D11*
%TO.P,R6,1*%
%TO.N,+3.3V*%
X42250000Y-145675000D03*
%TO.P,R6,2*%
%TO.N,/FPGA/FT.MISO*%
X42250000Y-147325000D03*
%TD*%
D62*
%TO.P,U2,1,~{CS}_1*%
%TO.N,/FPGA/RAM.CS*%
X72225000Y-168637500D03*
%TO.P,U2,2,SO/SIO1_2*%
%TO.N,/FPGA/RAM.SIO1*%
X71575000Y-168637500D03*
%TO.P,U2,3,SIO2_3*%
%TO.N,/FPGA/RAM.SIO2*%
X70925000Y-168637500D03*
%TO.P,U2,4,V_{SS}_4*%
%TO.N,GND*%
X70275000Y-168637500D03*
%TO.P,U2,5,SI/SIO0_5*%
%TO.N,/FPGA/RAM.SIO0*%
X70275000Y-174362500D03*
%TO.P,U2,6,SCK_6*%
%TO.N,/FPGA/RAM.SCK*%
X70925000Y-174362500D03*
%TO.P,U2,7,~{HOLD}/SIO3_7*%
%TO.N,/FPGA/RAM.SIO3*%
X71575000Y-174362500D03*
%TO.P,U2,8,V_{CC}_8*%
%TO.N,+3.3V*%
X72225000Y-174362500D03*
%TD*%
D12*
%TO.P,R27,1*%
%TO.N,Net-(U1B-CBSEL0)*%
X38575000Y-176750000D03*
%TO.P,R27,2*%
%TO.N,GND*%
X36925000Y-176750000D03*
%TD*%
D11*
%TO.P,R19,1*%
%TO.N,+3.3V*%
X61750000Y-160675000D03*
%TO.P,R19,2*%
%TO.N,Net-(U1B-TEST_N)*%
X61750000Y-162325000D03*
%TD*%
D12*
%TO.P,R33,1*%
%TO.N,+3.3V*%
X75325000Y-168000000D03*
%TO.P,R33,2*%
%TO.N,/FPGA/RAM.CS*%
X73675000Y-168000000D03*
%TD*%
%TO.P,R78,1*%
%TO.N,Net-(R78-Pad1)*%
X14250000Y-201500000D03*
%TO.P,R78,2*%
%TO.N,Net-(J14-Pad12)*%
X12600000Y-201500000D03*
%TD*%
D13*
%TO.P,C61,1*%
%TO.N,Net-(U9-IN4)*%
X90475000Y-174750000D03*
%TO.P,C61,2*%
%TO.N,GND*%
X92025000Y-174750000D03*
%TD*%
D12*
%TO.P,R10,1*%
%TO.N,+3.3V*%
X66075000Y-155000000D03*
%TO.P,R10,2*%
%TO.N,/FPGA/FT.HOLD*%
X64425000Y-155000000D03*
%TD*%
D14*
%TO.P,SW2,1,1_1*%
%TO.N,/FPGA/FT.RESETN*%
X69950000Y-158800000D03*
X69950000Y-154700000D03*
%TO.P,SW2,2,2_2*%
%TO.N,GND*%
X71550000Y-158800000D03*
X71550000Y-154700000D03*
%TD*%
D63*
%TO.N,+3.3V*%
X72750000Y-178750000D03*
X88750000Y-203250000D03*
X64000000Y-175750000D03*
X36750000Y-151000000D03*
X83500000Y-173500000D03*
X76250000Y-166500000D03*
X33500000Y-188600000D03*
X22845785Y-158848112D03*
X18250000Y-186750000D03*
X76750000Y-203250000D03*
X57250000Y-159750000D03*
X37700000Y-179100000D03*
X33500000Y-189750000D03*
X40750000Y-173000000D03*
X33500000Y-146750000D03*
X68500000Y-201000000D03*
X81500000Y-180750000D03*
X23750000Y-146000000D03*
X64750000Y-189250000D03*
X54000000Y-185000000D03*
X83400000Y-169400000D03*
X25000000Y-164750000D03*
X80500000Y-201000000D03*
X66000000Y-156000000D03*
X66750000Y-175750000D03*
X37750000Y-167500000D03*
X18500000Y-195250000D03*
X30800000Y-163600000D03*
X57400000Y-185000000D03*
X80250000Y-162000000D03*
X33500000Y-194250000D03*
X69750000Y-178750000D03*
X64391613Y-172349999D03*
X33500000Y-192750000D03*
X56500000Y-187250000D03*
X34250000Y-152250000D03*
X82500000Y-176750000D03*
X44500000Y-187000000D03*
X41750000Y-158000000D03*
X44500000Y-166200000D03*
X56500000Y-201000000D03*
X26000000Y-186750000D03*
X71500000Y-152100000D03*
X42550000Y-181250000D03*
X75300000Y-152000000D03*
X20500000Y-162500000D03*
X88750000Y-189250000D03*
X54800000Y-165300000D03*
X80500000Y-187000000D03*
X38350000Y-145650000D03*
X44500000Y-200750000D03*
X52500000Y-165000000D03*
X59750000Y-187250000D03*
X44250000Y-179750000D03*
X71250000Y-178750000D03*
X52750000Y-189250000D03*
X36750000Y-163750000D03*
X64500000Y-203250000D03*
X73500000Y-173750000D03*
X52750000Y-203250000D03*
X68500000Y-187000000D03*
X21500000Y-178000000D03*
X35100000Y-183400000D03*
X51000000Y-185500000D03*
X36750000Y-174250000D03*
X76750000Y-189250000D03*
%TO.N,/Ethernet/RMII.RXER*%
X35100000Y-191300000D03*
X29750000Y-190750000D03*
%TO.N,GND*%
X43000000Y-200750000D03*
X33500000Y-173800000D03*
X12000000Y-165000000D03*
X93000000Y-180750000D03*
X84750000Y-173500000D03*
X71600000Y-155600000D03*
X26750000Y-170250000D03*
X79000000Y-187000000D03*
X93000000Y-186750000D03*
X27500000Y-151600000D03*
X93000000Y-183750000D03*
X11250000Y-159750000D03*
X70250000Y-167500000D03*
X83250000Y-176750000D03*
X47750000Y-179300000D03*
X14250000Y-164500000D03*
X38000000Y-164250000D03*
X19750000Y-181000000D03*
X75000000Y-173750000D03*
X60500000Y-174000000D03*
X63800000Y-166500000D03*
X79361091Y-155661091D03*
X63250000Y-203250000D03*
X71600000Y-158000000D03*
X29300000Y-179500000D03*
X60500000Y-180000000D03*
X29100000Y-162700000D03*
X33900000Y-163600000D03*
X79000000Y-201000000D03*
X22500000Y-196750000D03*
X36800000Y-182500000D03*
X19750000Y-173500000D03*
X14250000Y-163000000D03*
X30954418Y-147238757D03*
X14250000Y-167250000D03*
X75250000Y-189250000D03*
X14500000Y-172000000D03*
X52913040Y-163693763D03*
X47900000Y-183700000D03*
X93000000Y-174750000D03*
X24500000Y-163500000D03*
X55750000Y-162750000D03*
X55390762Y-168383625D03*
X29000000Y-157500000D03*
X42100000Y-178400000D03*
X87250000Y-189250000D03*
X93000000Y-168750000D03*
X66200000Y-170800000D03*
X87250000Y-203250000D03*
X93000000Y-165750000D03*
X29300000Y-175600000D03*
X21750000Y-186250000D03*
X41515968Y-162283988D03*
X63500000Y-189250000D03*
X33500000Y-191250000D03*
X23000000Y-163500000D03*
X37500000Y-173500000D03*
X29250000Y-198500000D03*
X75300000Y-155600000D03*
X45500000Y-164250000D03*
X24400000Y-158900000D03*
X47978705Y-171821295D03*
X84250000Y-156500000D03*
X44000000Y-175300000D03*
X37700000Y-177500000D03*
X10275000Y-163500000D03*
X55000000Y-187250000D03*
X53250000Y-186750000D03*
X43700000Y-188700000D03*
X85000000Y-169300000D03*
X55000000Y-201000000D03*
X58250000Y-186750000D03*
X47000000Y-164250000D03*
X67000000Y-187000000D03*
X93000000Y-177750000D03*
X29000000Y-160000000D03*
X66750000Y-179250000D03*
X12000000Y-156500000D03*
X19750000Y-158250000D03*
X29000000Y-155500000D03*
X47825000Y-175550000D03*
X93000000Y-171750000D03*
X67000000Y-201000000D03*
X51250000Y-189250000D03*
X38400000Y-150900000D03*
X65250000Y-175750000D03*
X83000000Y-180750000D03*
X36049997Y-151000000D03*
X75250000Y-203250000D03*
X22750000Y-151500000D03*
X39500000Y-175250000D03*
X7250000Y-182000000D03*
X37700000Y-180400000D03*
X37653500Y-156219503D03*
X66250000Y-172750000D03*
X42500000Y-173000000D03*
X29500000Y-172750000D03*
X28750000Y-178250000D03*
X52200000Y-163673000D03*
X82700000Y-156400000D03*
X51250000Y-203250000D03*
X55500000Y-186700000D03*
X29200000Y-161423000D03*
X75300000Y-157900000D03*
X50312845Y-169382228D03*
X19750000Y-179500000D03*
X36500000Y-155000000D03*
%TO.N,/FPGA/USR_LED_R*%
X59741957Y-179516085D03*
X79500000Y-174000000D03*
%TO.N,/FPGA/PL_RSTN*%
X53100000Y-177400000D03*
X65600000Y-165800000D03*
%TO.N,/FPGA/I2S.SCK*%
X50125000Y-196250000D03*
X74125000Y-196250000D03*
X48000000Y-184500000D03*
X86125000Y-196250000D03*
X49250000Y-186000000D03*
X62125000Y-196250000D03*
%TO.N,/FPGA/I2S.DATA2*%
X60750000Y-189250000D03*
X51000000Y-187250000D03*
%TO.N,/FPGA/I2S.WS*%
X83625000Y-200250000D03*
X47625000Y-200500000D03*
X59625000Y-200250000D03*
X71625000Y-200250000D03*
%TO.N,Net-(U1B-CBSEL1)*%
X39500000Y-178250000D03*
X42100000Y-177500000D03*
%TO.N,/Ethernet/RX+*%
X18250000Y-192000000D03*
X17286091Y-191286091D03*
%TO.N,Net-(U10-VDDCR)*%
X27016085Y-194741957D03*
X28000000Y-193500000D03*
%TO.N,+1V2*%
X55250000Y-181000000D03*
X49300000Y-168800000D03*
X47900000Y-172550000D03*
X30500000Y-173000000D03*
X29900000Y-170400000D03*
X60675000Y-169129408D03*
X48000000Y-176250000D03*
X47400000Y-167977000D03*
X29900000Y-169400000D03*
X60250000Y-178173000D03*
X53636569Y-169617444D03*
X60352455Y-170907628D03*
X29000000Y-174750000D03*
X29900000Y-168500000D03*
%TO.N,Net-(U10-RBIAS)*%
X22750000Y-192550000D03*
X24900000Y-195800000D03*
%TO.N,/FPGA/FT.RESETN*%
X57750000Y-181200000D03*
X69950000Y-157500000D03*
X58200000Y-173100000D03*
X70000000Y-152000000D03*
X41000000Y-185250000D03*
%TO.N,/FPGA/JTAG.TMS*%
X54750000Y-175250000D03*
X48800000Y-169300000D03*
X43466999Y-168033001D03*
X59000000Y-159250000D03*
%TO.N,/Ethernet/RMII.RSTN*%
X48100000Y-174000000D03*
X27000000Y-187300000D03*
%TO.N,/FPGA/NSTATUS*%
X58900000Y-173300000D03*
X52700000Y-176700000D03*
X68800000Y-161200000D03*
X81000000Y-155600000D03*
%TO.N,/FPGA/I2S.DATA0*%
X52331930Y-183899168D03*
X85000000Y-189250000D03*
%TO.N,/FPGA/JTAG.TDI*%
X52250000Y-158075000D03*
X42000000Y-169200000D03*
X50888909Y-170611091D03*
X54250000Y-173972182D03*
%TO.N,/Ethernet/RMII.RXD0*%
X29250000Y-192077000D03*
X35000000Y-192000000D03*
%TO.N,/FPGA/I2S.DATA1*%
X50827000Y-184200000D03*
X73000000Y-189250000D03*
%TO.N,/FPGA/JTAG.TCK*%
X49700000Y-171200000D03*
X52750000Y-174550000D03*
X40528680Y-169449999D03*
X53337500Y-160662500D03*
%TO.N,/FPGA/GPIO0*%
X65300000Y-169500000D03*
X60700000Y-170300000D03*
%TO.N,Net-(U10-VDD1A)*%
X23500000Y-189000000D03*
X23625000Y-193375000D03*
%TO.N,/FPGA/FT.CS*%
X42600000Y-164200000D03*
X39800000Y-166400000D03*
X39300000Y-186150000D03*
X43857000Y-161423000D03*
X43750000Y-146525000D03*
X50750000Y-181100000D03*
X59278705Y-181121295D03*
X44100000Y-164200000D03*
X49700000Y-175800000D03*
%TO.N,/FPGA/JTAG.TDO*%
X47825000Y-169268852D03*
X52986091Y-176013909D03*
X53250000Y-157575000D03*
X42750000Y-168600000D03*
%TO.N,/Ethernet/RMII.RXD1*%
X29250000Y-193250000D03*
X35000000Y-193500000D03*
%TO.N,/Ethernet/RMII.CRS_DV*%
X30900000Y-187200000D03*
X48000000Y-178500000D03*
%TO.N,/Ethernet/RMII.MDIO*%
X48000000Y-177750000D03*
X28700000Y-189400000D03*
%TO.N,/Ethernet/RMII.MDC*%
X40500000Y-182250000D03*
X27700000Y-188500000D03*
%TO.N,/Ethernet/RMII.INT*%
X40500000Y-181250000D03*
X27000000Y-188200000D03*
%TO.N,/Ethernet/RMII.TXEN*%
X48000000Y-171050000D03*
X41250000Y-170850000D03*
%TO.N,/FPGA/FT.SCLK*%
X46600000Y-183600000D03*
X50400000Y-176900000D03*
X60100000Y-181000000D03*
X50200000Y-180100000D03*
X37500000Y-187900000D03*
%TO.N,/FPGA/FT.MOSI*%
X54250000Y-172150000D03*
X51800000Y-160200000D03*
X38000000Y-187300000D03*
X57100000Y-184000000D03*
%TO.N,/FPGA/FT.CDONE*%
X60975000Y-181700000D03*
X78700000Y-162200000D03*
X79500000Y-157300000D03*
X76700000Y-173500000D03*
X75800000Y-177600000D03*
X40400000Y-185800000D03*
%TO.N,/ADC/ADC_SPI.CS*%
X60675000Y-176806216D03*
X68000000Y-177000000D03*
%TO.N,/ADC/ADC_SPI.DIN*%
X63250000Y-175500000D03*
X75000000Y-176250000D03*
%TO.N,/ADC/ADC_SPI.DOUT*%
X76100000Y-174750000D03*
X60000000Y-175000000D03*
%TO.N,/ADC/ADC_SPI.SCLK*%
X74000000Y-176250000D03*
X60250000Y-176250000D03*
%TO.N,Net-(U1B-CBSEL0)*%
X39500000Y-176750000D03*
X42100000Y-176750000D03*
%TO.N,/FPGA/USR_LED_G*%
X59750000Y-178750000D03*
X78250000Y-174000000D03*
%TO.N,/FPGA/UART.TX*%
X43033001Y-160716999D03*
X42500000Y-159250000D03*
%TO.N,/FPGA/FT.MISO*%
X38700000Y-186700000D03*
X56300000Y-183800000D03*
X53200000Y-172000000D03*
%TO.N,/FPGA/FT.HOLD*%
X37800000Y-182000000D03*
X60350000Y-173200000D03*
X55100000Y-179150000D03*
X54750000Y-176027818D03*
X58300000Y-174000000D03*
X64500000Y-156250000D03*
X40300000Y-184328867D03*
X33700000Y-180650000D03*
%TO.N,/USB/EEDATA*%
X29750000Y-150500000D03*
X31408001Y-151408001D03*
%TO.N,/FPGA/USR_LED_B*%
X77300000Y-174000000D03*
X60361741Y-177432213D03*
%TO.N,/FPGA/RAM.CS*%
X67000000Y-172250000D03*
X60750000Y-172250000D03*
%TO.N,/FPGA/RAM.SIO1*%
X67250000Y-171250000D03*
X60550000Y-171579178D03*
%TO.N,Net-(U1B-TEST_N)*%
X62500000Y-161500000D03*
X60631954Y-164895864D03*
%TO.N,/FPGA/BB0*%
X55122882Y-169030343D03*
X37750000Y-155500000D03*
%TO.N,/FPGA/BB1*%
X35752000Y-155250000D03*
X54307784Y-169028536D03*
%TO.N,/FPGA/BB2*%
X35077000Y-155750000D03*
X52564877Y-169915747D03*
%TO.N,/FPGA/BB3*%
X34327000Y-155213118D03*
X51719979Y-169666276D03*
%TO.N,/FPGA/BB4*%
X51781000Y-168900002D03*
X33826945Y-155745462D03*
%TO.N,/FPGA/BB5*%
X51051052Y-169460024D03*
X33156266Y-155256446D03*
%TO.N,/FPGA/BB6*%
X32500000Y-155500000D03*
X50012361Y-168750000D03*
%TO.N,/FPGA/BB7*%
X31750000Y-155000000D03*
X48706561Y-168428742D03*
%TO.N,/USB/FT_SCLK*%
X28100000Y-163700000D03*
X30900000Y-178200000D03*
%TO.N,/USB/FT_MOSI*%
X31700000Y-178100000D03*
X29100000Y-166000000D03*
%TO.N,/USB/FT_MISO*%
X29764081Y-166221360D03*
X32300000Y-177700000D03*
%TO.N,/USB/FT_SS*%
X30500000Y-166600000D03*
X33000000Y-178117104D03*
%TO.N,/USB/FT_RSTN*%
X34100000Y-177900000D03*
X32400000Y-162500000D03*
%TO.N,/USB/FT_CDONE*%
X32200000Y-163300000D03*
X33500000Y-177500000D03*
%TO.N,/USB/FT_HOLD*%
X29000000Y-183900000D03*
X33000000Y-161900000D03*
%TO.N,/USB/FT_ENA*%
X34000000Y-182750000D03*
X34700000Y-178300000D03*
X33700000Y-162900000D03*
%TD*%
%TO.N,+3.3V*%
D64*
X71575000Y-152175000D02*
X71500000Y-152100000D01*
X37750000Y-167500000D02*
X37750000Y-167450000D01*
D65*
X41475000Y-172275000D02*
X41475000Y-172075000D01*
D64*
X76625000Y-204800000D02*
X76625000Y-203375000D01*
X76775000Y-188250000D02*
X76775000Y-189225000D01*
D66*
X32550000Y-189812500D02*
X33437500Y-189812500D01*
D65*
X71250000Y-177825000D02*
X71250000Y-178750000D01*
D64*
X76625000Y-189375000D02*
X76750000Y-189250000D01*
D65*
X21862500Y-177637500D02*
X21500000Y-178000000D01*
D64*
X37679408Y-166775000D02*
X38425000Y-166775000D01*
D66*
X33437500Y-189812500D02*
X33500000Y-189750000D01*
D65*
X45500000Y-166775000D02*
X45075000Y-166775000D01*
X55825000Y-160000000D02*
X55825000Y-158500000D01*
D64*
X36675000Y-165770592D02*
X37679408Y-166775000D01*
X72225000Y-174362500D02*
X73087500Y-174362500D01*
X35100000Y-183926048D02*
X35751048Y-183926048D01*
X55750000Y-165275000D02*
X54825000Y-165275000D01*
X57400000Y-185000000D02*
X58175000Y-184225000D01*
X32262500Y-147675000D02*
X32137500Y-147550000D01*
X36950000Y-151750000D02*
X36950000Y-151200000D01*
X83925000Y-172137500D02*
X83925000Y-173075000D01*
X63725000Y-172750000D02*
X63991612Y-172750000D01*
D65*
X57250000Y-160675000D02*
X57250000Y-159750000D01*
D64*
X56500000Y-201925000D02*
X56500000Y-201000000D01*
D65*
X58750000Y-160675000D02*
X57250000Y-160675000D01*
D64*
X30900000Y-163600000D02*
X31175000Y-163875000D01*
X35751048Y-183926048D02*
X35900000Y-184075000D01*
X53250000Y-182425000D02*
X53250000Y-184225000D01*
X35100000Y-183926048D02*
X35100000Y-183400000D01*
D65*
X43250000Y-181775000D02*
X43075000Y-181775000D01*
X38500000Y-172225000D02*
X37785050Y-172225000D01*
D64*
X40925000Y-158025000D02*
X41725000Y-158025000D01*
D65*
X37785050Y-172225000D02*
X36750000Y-173260050D01*
D64*
X71575000Y-153000000D02*
X71575000Y-152175000D01*
X88625000Y-189375000D02*
X88750000Y-189250000D01*
D65*
X80250000Y-161075000D02*
X81750000Y-161075000D01*
X36925000Y-178250000D02*
X36925000Y-178325000D01*
D64*
X36675000Y-163825000D02*
X36750000Y-163750000D01*
X25850000Y-164750000D02*
X25000000Y-164750000D01*
X18562500Y-195312500D02*
X18500000Y-195250000D01*
D65*
X78750000Y-161075000D02*
X80250000Y-161075000D01*
D64*
X53250000Y-184250000D02*
X54000000Y-185000000D01*
D65*
X61750000Y-160675000D02*
X60250000Y-160675000D01*
X44775000Y-179225000D02*
X44250000Y-179750000D01*
D64*
X88625000Y-190800000D02*
X88625000Y-189375000D01*
X58175000Y-184225000D02*
X58250000Y-184225000D01*
X52625000Y-204800000D02*
X52625000Y-203375000D01*
X52775000Y-188250000D02*
X52775000Y-189225000D01*
X61925000Y-172750000D02*
X63725000Y-172750000D01*
D65*
X60250000Y-160675000D02*
X58750000Y-160675000D01*
D64*
X34250000Y-152250000D02*
X34154408Y-152250000D01*
D65*
X55825000Y-157000000D02*
X55825000Y-158500000D01*
D64*
X82625000Y-177862500D02*
X82625000Y-176875000D01*
D65*
X43075000Y-181775000D02*
X42550000Y-181250000D01*
D64*
X30762500Y-191500000D02*
X27687500Y-191500000D01*
D65*
X44775000Y-178750000D02*
X44775000Y-179225000D01*
D66*
X32550000Y-194312500D02*
X33437500Y-194312500D01*
D65*
X36925000Y-178325000D02*
X37700000Y-179100000D01*
D64*
X44500000Y-187925000D02*
X44500000Y-187000000D01*
X34450001Y-183926048D02*
X35100000Y-183926048D01*
D65*
X22450000Y-177637500D02*
X22450000Y-179325000D01*
D66*
X22175000Y-158287500D02*
X22285173Y-158287500D01*
D65*
X75325000Y-165000000D02*
X75325000Y-166500000D01*
D64*
X52225000Y-165275000D02*
X52500000Y-165000000D01*
X20537500Y-162537500D02*
X20500000Y-162500000D01*
X68500000Y-201925000D02*
X68500000Y-201000000D01*
D65*
X19225000Y-186812500D02*
X18312500Y-186812500D01*
X22275000Y-179500000D02*
X22275000Y-181000000D01*
D64*
X36675000Y-164925000D02*
X36675000Y-163825000D01*
X81475000Y-179750000D02*
X81475000Y-180725000D01*
D65*
X45500000Y-166775000D02*
X45500000Y-167600000D01*
X57250000Y-160675000D02*
X55900000Y-160675000D01*
D64*
X76625000Y-190800000D02*
X76625000Y-189375000D01*
D66*
X32550000Y-188312500D02*
X33212500Y-188312500D01*
D64*
X80500000Y-187925000D02*
X80500000Y-187000000D01*
D65*
X36925000Y-174425000D02*
X36750000Y-174250000D01*
D64*
X64775000Y-202975000D02*
X64500000Y-203250000D01*
X46500000Y-168750000D02*
X46575000Y-168750000D01*
X51750000Y-186325000D02*
X51750000Y-186250000D01*
D65*
X72750000Y-177825000D02*
X72750000Y-178750000D01*
D64*
X37750000Y-167450000D02*
X38425000Y-166775000D01*
X81475000Y-180725000D02*
X81500000Y-180750000D01*
X31175000Y-163875000D02*
X31175000Y-164925000D01*
X52775000Y-189225000D02*
X52750000Y-189250000D01*
X64625000Y-190800000D02*
X64625000Y-189375000D01*
X55750000Y-165275000D02*
X55750000Y-167075000D01*
D65*
X75325000Y-166500000D02*
X76250000Y-166500000D01*
D64*
X82625000Y-176875000D02*
X82500000Y-176750000D01*
D65*
X22450000Y-177637500D02*
X21862500Y-177637500D01*
D64*
X63991612Y-172750000D02*
X64391613Y-172349999D01*
X54825000Y-165275000D02*
X54800000Y-165300000D01*
X88775000Y-188250000D02*
X88775000Y-189225000D01*
X59750000Y-186325000D02*
X59750000Y-187250000D01*
X51250000Y-167075000D02*
X51250000Y-165275000D01*
X52750000Y-190675000D02*
X52625000Y-190800000D01*
D65*
X18312500Y-186812500D02*
X18250000Y-186750000D01*
D64*
X40450000Y-158500000D02*
X40925000Y-158025000D01*
X68500000Y-187925000D02*
X68500000Y-187000000D01*
X52625000Y-203375000D02*
X52750000Y-203250000D01*
X19500000Y-195312500D02*
X18562500Y-195312500D01*
X32137500Y-147550000D02*
X32700000Y-147550000D01*
X88625000Y-203375000D02*
X88750000Y-203250000D01*
X64625000Y-189375000D02*
X64750000Y-189250000D01*
X30800000Y-163600000D02*
X30900000Y-163600000D01*
X75325000Y-152025000D02*
X75300000Y-152000000D01*
D66*
X43750000Y-145675000D02*
X42250000Y-145675000D01*
D64*
X75325000Y-153000000D02*
X75325000Y-152025000D01*
X76625000Y-203375000D02*
X76750000Y-203250000D01*
X44775000Y-178750000D02*
X44750000Y-178750000D01*
X88625000Y-204800000D02*
X88625000Y-203375000D01*
D66*
X22285173Y-158287500D02*
X22845785Y-158848112D01*
D64*
X83925000Y-173075000D02*
X83500000Y-173500000D01*
X30950000Y-191312500D02*
X30762500Y-191500000D01*
D65*
X75325000Y-166500000D02*
X75325000Y-168000000D01*
D64*
X31175000Y-166275000D02*
X31175000Y-164925000D01*
D65*
X69750000Y-177825000D02*
X69750000Y-178750000D01*
D64*
X64775000Y-202250000D02*
X64775000Y-202975000D01*
X73475000Y-173775000D02*
X73500000Y-173750000D01*
D65*
X36925000Y-175250000D02*
X36925000Y-174425000D01*
X36750000Y-173260050D02*
X36750000Y-174250000D01*
D64*
X66075000Y-155000000D02*
X66075000Y-155925000D01*
X58250000Y-184225000D02*
X58250000Y-182425000D01*
X88775000Y-202250000D02*
X88775000Y-203225000D01*
X61925000Y-176750000D02*
X63725000Y-176750000D01*
X83925000Y-170700000D02*
X83475000Y-170250000D01*
D65*
X45500000Y-167600000D02*
X46550000Y-168650000D01*
D64*
X88775000Y-203225000D02*
X88750000Y-203250000D01*
X34000000Y-147250000D02*
X33500000Y-146750000D01*
X64625000Y-204800000D02*
X64625000Y-203375000D01*
X34000000Y-147675000D02*
X34000000Y-147250000D01*
X52775000Y-202250000D02*
X52775000Y-203225000D01*
X33675000Y-152729408D02*
X33675000Y-153575000D01*
X63725000Y-176025000D02*
X63725000Y-176750000D01*
X31050000Y-191312500D02*
X32550000Y-189812500D01*
D65*
X22450000Y-179325000D02*
X22275000Y-179500000D01*
D64*
X52775000Y-203225000D02*
X52750000Y-203250000D01*
X32275000Y-147412500D02*
X32137500Y-147550000D01*
X36675000Y-164925000D02*
X36675000Y-165770592D01*
X36950000Y-151200000D02*
X36750000Y-151000000D01*
X52750000Y-189250000D02*
X52750000Y-190675000D01*
X73087500Y-174362500D02*
X73475000Y-174750000D01*
X32275000Y-146000000D02*
X32750000Y-146000000D01*
D66*
X33437500Y-192812500D02*
X33500000Y-192750000D01*
D64*
X24675000Y-146000000D02*
X23750000Y-146000000D01*
X30950000Y-191312500D02*
X31050000Y-191312500D01*
D66*
X33437500Y-194312500D02*
X33500000Y-194250000D01*
D64*
X80500000Y-201925000D02*
X80500000Y-201000000D01*
X32275000Y-146000000D02*
X32275000Y-147412500D01*
X32750000Y-146000000D02*
X33500000Y-146750000D01*
X82625000Y-178600000D02*
X81475000Y-179750000D01*
X66075000Y-155925000D02*
X66000000Y-156000000D01*
D66*
X39250000Y-145675000D02*
X38375000Y-145675000D01*
D65*
X55900000Y-160675000D02*
X55825000Y-160750000D01*
D64*
X76775000Y-203225000D02*
X76750000Y-203250000D01*
X39100000Y-158500000D02*
X40450000Y-158500000D01*
D66*
X42250000Y-145675000D02*
X40750000Y-145675000D01*
D64*
X51250000Y-165275000D02*
X52225000Y-165275000D01*
X21425000Y-162537500D02*
X20537500Y-162537500D01*
X51750000Y-186250000D02*
X51000000Y-185500000D01*
X36950000Y-151750000D02*
X36675000Y-152025000D01*
D65*
X46550000Y-168650000D02*
X46575000Y-168650000D01*
D64*
X83925000Y-172137500D02*
X83925000Y-170700000D01*
X73475000Y-174750000D02*
X73475000Y-173775000D01*
D66*
X33212500Y-188312500D02*
X33500000Y-188600000D01*
D64*
X76775000Y-189225000D02*
X76750000Y-189250000D01*
X53250000Y-184225000D02*
X53250000Y-184250000D01*
D65*
X45075000Y-166775000D02*
X44500000Y-166200000D01*
D64*
X64775000Y-188250000D02*
X64775000Y-189225000D01*
X88775000Y-189225000D02*
X88750000Y-189250000D01*
D66*
X32550000Y-192812500D02*
X33437500Y-192812500D01*
D64*
X31650000Y-166750000D02*
X31175000Y-166275000D01*
X32700000Y-147550000D02*
X33500000Y-146750000D01*
D66*
X24250000Y-181000000D02*
X22275000Y-181000000D01*
D65*
X80250000Y-161075000D02*
X80250000Y-162000000D01*
D64*
X44500000Y-201750000D02*
X44500000Y-200750000D01*
D65*
X55825000Y-161500000D02*
X55825000Y-160750000D01*
D64*
X76775000Y-202250000D02*
X76775000Y-203225000D01*
X34154408Y-152250000D02*
X33675000Y-152729408D01*
X82625000Y-177862500D02*
X82625000Y-178600000D01*
D66*
X40750000Y-145675000D02*
X39250000Y-145675000D01*
D64*
X31050000Y-191312500D02*
X32550000Y-192812500D01*
X64625000Y-203375000D02*
X64500000Y-203250000D01*
X34000000Y-147675000D02*
X32262500Y-147675000D01*
X36675000Y-152025000D02*
X36675000Y-153575000D01*
X83475000Y-170250000D02*
X83475000Y-169475000D01*
D65*
X26000000Y-185987500D02*
X26000000Y-186750000D01*
D64*
X64000000Y-175750000D02*
X63725000Y-176025000D01*
X83475000Y-169475000D02*
X83400000Y-169400000D01*
D66*
X38375000Y-145675000D02*
X38350000Y-145650000D01*
D64*
X34000000Y-147675000D02*
X35500000Y-147675000D01*
X41725000Y-158025000D02*
X41750000Y-158000000D01*
D65*
X40750000Y-173000000D02*
X41475000Y-172275000D01*
D64*
X44775000Y-178750000D02*
X46575000Y-178750000D01*
X56500000Y-187925000D02*
X56500000Y-187250000D01*
D65*
X66750000Y-176725000D02*
X66750000Y-175750000D01*
X55825000Y-160750000D02*
X55825000Y-160000000D01*
D64*
X64775000Y-189225000D02*
X64750000Y-189250000D01*
%TO.N,Net-(J7-Pin_6)*%
X68500000Y-203575000D02*
X67000000Y-203575000D01*
X70375000Y-204800000D02*
X69725000Y-204800000D01*
X69725000Y-204800000D02*
X68500000Y-203575000D01*
%TO.N,/Ethernet/RMII.RXER*%
D66*
X40600000Y-187700000D02*
X40600000Y-187300000D01*
X30687500Y-189812500D02*
X29750000Y-190750000D01*
X45250000Y-179750000D02*
X46575000Y-179750000D01*
X40600000Y-187300000D02*
X44500000Y-183400000D01*
X27687500Y-191000000D02*
X29500000Y-191000000D01*
X44500000Y-180500000D02*
X45250000Y-179750000D01*
X29500000Y-191000000D02*
X29750000Y-190750000D01*
X44500000Y-183400000D02*
X44500000Y-180500000D01*
X37000000Y-191300000D02*
X40600000Y-187700000D01*
X30900000Y-189812500D02*
X30687500Y-189812500D01*
X35100000Y-191300000D02*
X37000000Y-191300000D01*
%TO.N,GND*%
D65*
X22275000Y-186812500D02*
X22500000Y-187037500D01*
D64*
X79361091Y-155661091D02*
X79088909Y-155661091D01*
X51375000Y-203375000D02*
X51250000Y-203250000D01*
D65*
X23228122Y-152650000D02*
X22825000Y-152650000D01*
D64*
X55250000Y-185775000D02*
X55250000Y-186450000D01*
X26750000Y-152350000D02*
X27500000Y-151600000D01*
X75375000Y-203375000D02*
X75250000Y-203250000D01*
X85025000Y-169325000D02*
X85000000Y-169300000D01*
D65*
X39500000Y-175000000D02*
X40025000Y-174475000D01*
D64*
X29000000Y-161500000D02*
X27750000Y-161500000D01*
X44000000Y-175300000D02*
X44000000Y-175475000D01*
X63800000Y-166500000D02*
X63800000Y-167500000D01*
D65*
X75025000Y-174750000D02*
X75025000Y-173775000D01*
D64*
X47445592Y-175750000D02*
X46575000Y-175750000D01*
X24975000Y-163025000D02*
X24500000Y-163500000D01*
X45500000Y-165225000D02*
X47000000Y-165225000D01*
X22925000Y-162525000D02*
X22925000Y-163425000D01*
D65*
X66825000Y-180250000D02*
X66825000Y-179325000D01*
X65275000Y-176750000D02*
X65275000Y-178250000D01*
D64*
X75375000Y-189375000D02*
X75250000Y-189250000D01*
X30524999Y-148500000D02*
X29862500Y-148500000D01*
D66*
X25025000Y-158275000D02*
X24400000Y-158900000D01*
D64*
X15270000Y-167500000D02*
X14500000Y-167500000D01*
D65*
X29275000Y-198475000D02*
X29250000Y-198500000D01*
D64*
X79088909Y-155661091D02*
X78750000Y-156000000D01*
X47825000Y-175550000D02*
X47645592Y-175550000D01*
D66*
X23775000Y-158275000D02*
X24400000Y-158900000D01*
D65*
X37675000Y-177500000D02*
X36925000Y-176750000D01*
D64*
X22925000Y-163425000D02*
X23000000Y-163500000D01*
X75225000Y-203225000D02*
X75250000Y-203250000D01*
X27625000Y-151725000D02*
X27500000Y-151600000D01*
D65*
X11000000Y-164975000D02*
X11000000Y-163575000D01*
D64*
X53016299Y-163693763D02*
X53047536Y-163725000D01*
X33900000Y-163600000D02*
X33675000Y-163825000D01*
D65*
X7430000Y-162950000D02*
X7430000Y-163495000D01*
D64*
X70275000Y-168637500D02*
X70275000Y-167525000D01*
X87225000Y-202250000D02*
X87225000Y-203225000D01*
X84275000Y-156525000D02*
X84250000Y-156500000D01*
D65*
X38500000Y-173775000D02*
X37775000Y-173775000D01*
D64*
X71550000Y-154700000D02*
X71550000Y-155550000D01*
X29326048Y-179473952D02*
X29300000Y-179500000D01*
X51375000Y-189375000D02*
X51250000Y-189250000D01*
X71525000Y-160500000D02*
X71525000Y-158825000D01*
D65*
X43225000Y-172750000D02*
X43225000Y-172000000D01*
D64*
X28500000Y-160500000D02*
X27750000Y-160500000D01*
D65*
X33500000Y-174225000D02*
X33000000Y-174725000D01*
D66*
X23675000Y-158275000D02*
X25175000Y-158275000D01*
D65*
X7430000Y-156005000D02*
X6855000Y-155430000D01*
D64*
X25925000Y-163025000D02*
X24975000Y-163025000D01*
X81750000Y-156462500D02*
X82637500Y-156462500D01*
X51275000Y-163725000D02*
X51250000Y-163725000D01*
D65*
X92025000Y-186750000D02*
X93000000Y-186750000D01*
D64*
X29200000Y-161423000D02*
X29077000Y-161423000D01*
X83275000Y-177862500D02*
X83275000Y-176775000D01*
D65*
X65275000Y-175775000D02*
X65250000Y-175750000D01*
X75025000Y-173775000D02*
X75000000Y-173750000D01*
D64*
X84575000Y-173325000D02*
X84750000Y-173500000D01*
D65*
X21500000Y-175362500D02*
X21500000Y-174275000D01*
D66*
X25175000Y-158275000D02*
X25025000Y-158275000D01*
D65*
X22825000Y-151575000D02*
X22750000Y-151500000D01*
D64*
X12362500Y-159750000D02*
X11250000Y-159750000D01*
X75300000Y-158800000D02*
X75300000Y-157900000D01*
X63225000Y-202250000D02*
X63225000Y-203225000D01*
D65*
X66750000Y-178275000D02*
X66750000Y-179250000D01*
X92025000Y-171750000D02*
X93000000Y-171750000D01*
D64*
X53250000Y-185775000D02*
X53250000Y-186750000D01*
X71550000Y-155550000D02*
X71600000Y-155600000D01*
X51225000Y-202250000D02*
X51225000Y-203225000D01*
X43000000Y-187925000D02*
X43000000Y-188000000D01*
D65*
X65275000Y-171250000D02*
X65750000Y-171250000D01*
X11975000Y-164975000D02*
X12000000Y-165000000D01*
D64*
X30725000Y-146873000D02*
X30725000Y-146000000D01*
X87225000Y-189225000D02*
X87250000Y-189250000D01*
X14500000Y-167500000D02*
X14250000Y-167250000D01*
X87375000Y-190800000D02*
X87375000Y-189375000D01*
D65*
X65275000Y-176750000D02*
X65275000Y-175775000D01*
X37700000Y-177500000D02*
X37675000Y-177500000D01*
D64*
X32500000Y-191312500D02*
X33437500Y-191312500D01*
X48250000Y-183350000D02*
X47900000Y-183700000D01*
X79000000Y-201925000D02*
X79000000Y-201000000D01*
X38066002Y-156000000D02*
X37846499Y-156219503D01*
X39100000Y-156000000D02*
X38066002Y-156000000D01*
D65*
X21750000Y-186812500D02*
X22275000Y-186812500D01*
X39875000Y-173775000D02*
X40025000Y-173925000D01*
D66*
X47407410Y-171250000D02*
X46575000Y-171250000D01*
D65*
X22825000Y-152650000D02*
X21075000Y-152650000D01*
D64*
X45234880Y-175448000D02*
X45536880Y-175750000D01*
X51225000Y-189225000D02*
X51250000Y-189250000D01*
X53047536Y-163725000D02*
X53750000Y-163725000D01*
D65*
X66725000Y-178250000D02*
X66750000Y-178275000D01*
D64*
X36775000Y-182525000D02*
X36800000Y-182500000D01*
X35900000Y-182525000D02*
X36775000Y-182525000D01*
X60750000Y-179750000D02*
X60500000Y-180000000D01*
D65*
X7430000Y-156550000D02*
X7430000Y-156005000D01*
X42500000Y-173000000D02*
X42975000Y-173000000D01*
D64*
X30954418Y-147238757D02*
X30852000Y-147341175D01*
D65*
X20775000Y-186812500D02*
X21750000Y-186812500D01*
D64*
X46575000Y-179250000D02*
X47700000Y-179250000D01*
D65*
X37050000Y-179750000D02*
X37700000Y-180400000D01*
X42500000Y-178750000D02*
X43225000Y-178750000D01*
D64*
X26750000Y-152725000D02*
X26750000Y-152350000D01*
X63375000Y-204800000D02*
X63375000Y-203375000D01*
D65*
X21500000Y-174275000D02*
X20725000Y-173500000D01*
X24928122Y-154350000D02*
X23228122Y-152650000D01*
D64*
X25925000Y-163025000D02*
X26450000Y-162500000D01*
X33675000Y-163825000D02*
X33675000Y-164925000D01*
X71550000Y-158800000D02*
X71550000Y-158050000D01*
X52200000Y-163673000D02*
X51327000Y-163673000D01*
X24425000Y-162525000D02*
X24425000Y-163425000D01*
X29000000Y-160000000D02*
X27750000Y-160000000D01*
D66*
X23675000Y-158275000D02*
X23775000Y-158275000D01*
D64*
X61925000Y-179750000D02*
X60750000Y-179750000D01*
D65*
X92025000Y-177750000D02*
X93000000Y-177750000D01*
D64*
X29077000Y-161423000D02*
X29000000Y-161500000D01*
X55250000Y-167945592D02*
X55250000Y-167075000D01*
X22500000Y-195587500D02*
X22500000Y-196750000D01*
X38000000Y-164250000D02*
X38000000Y-164800000D01*
X63375000Y-189375000D02*
X63500000Y-189250000D01*
D65*
X40025000Y-174475000D02*
X40025000Y-173925000D01*
D64*
X27750000Y-157500000D02*
X29000000Y-157500000D01*
X51225000Y-188250000D02*
X51225000Y-189225000D01*
D65*
X33500000Y-173800000D02*
X33500000Y-174225000D01*
X43250000Y-178775000D02*
X43225000Y-178750000D01*
D64*
X85075000Y-156525000D02*
X84275000Y-156525000D01*
D66*
X20750000Y-158325000D02*
X19825000Y-158325000D01*
D65*
X28387500Y-172750000D02*
X29500000Y-172750000D01*
X30500000Y-174725000D02*
X30175000Y-174725000D01*
X38500000Y-173775000D02*
X39875000Y-173775000D01*
D64*
X75300000Y-154700000D02*
X75300000Y-155600000D01*
X37846499Y-156219503D02*
X37653500Y-156219503D01*
X26450000Y-162500000D02*
X27750000Y-162500000D01*
X75275000Y-158825000D02*
X75300000Y-158800000D01*
D65*
X43250000Y-180225000D02*
X43250000Y-178775000D01*
D64*
X84575000Y-172137500D02*
X84575000Y-173325000D01*
X24000000Y-196637500D02*
X22612500Y-196637500D01*
X71525000Y-158825000D02*
X71550000Y-158800000D01*
D65*
X92025000Y-165750000D02*
X93000000Y-165750000D01*
D64*
X55390762Y-168086354D02*
X55250000Y-167945592D01*
X55390762Y-168383625D02*
X55390762Y-168086354D01*
X49750000Y-163725000D02*
X51250000Y-163725000D01*
X41515968Y-162283988D02*
X41515968Y-162434032D01*
X85025000Y-170250000D02*
X85025000Y-169325000D01*
X87225000Y-203225000D02*
X87250000Y-203250000D01*
D65*
X20725000Y-181000000D02*
X19750000Y-181000000D01*
D64*
X36049997Y-151000000D02*
X36049997Y-151100003D01*
X83275000Y-176775000D02*
X83250000Y-176750000D01*
X83275000Y-179500000D02*
X83025000Y-179750000D01*
X83275000Y-177862500D02*
X83275000Y-179500000D01*
X63375000Y-203375000D02*
X63250000Y-203250000D01*
D65*
X20725000Y-173500000D02*
X19750000Y-173500000D01*
D64*
X44000000Y-175300000D02*
X44148000Y-175448000D01*
D65*
X30175000Y-174725000D02*
X29300000Y-175600000D01*
D64*
X43000000Y-188000000D02*
X43700000Y-188700000D01*
X87375000Y-189375000D02*
X87250000Y-189250000D01*
X52913040Y-163693763D02*
X53016299Y-163693763D01*
X75225000Y-202250000D02*
X75225000Y-203225000D01*
X27750000Y-162500000D02*
X28900000Y-162500000D01*
X22612500Y-196637500D02*
X22500000Y-196750000D01*
X48250000Y-182425000D02*
X48250000Y-183350000D01*
X6400000Y-182010000D02*
X7240000Y-182010000D01*
X11075000Y-156500000D02*
X12000000Y-156500000D01*
D65*
X22825000Y-152650000D02*
X22825000Y-151575000D01*
D64*
X70275000Y-167525000D02*
X70250000Y-167500000D01*
X39100000Y-162000000D02*
X39945592Y-162000000D01*
D65*
X65275000Y-172750000D02*
X66250000Y-172750000D01*
D64*
X39945592Y-162000000D02*
X40925000Y-162979408D01*
D65*
X21750000Y-186812500D02*
X21750000Y-186250000D01*
D64*
X63225000Y-203225000D02*
X63250000Y-203250000D01*
X47645592Y-175550000D02*
X47445592Y-175750000D01*
X55750000Y-163725000D02*
X55750000Y-162750000D01*
D65*
X21075000Y-152650000D02*
X21000000Y-152725000D01*
D64*
X87375000Y-203375000D02*
X87250000Y-203250000D01*
X78990000Y-187925000D02*
X78990000Y-187010000D01*
D66*
X47978705Y-171821295D02*
X47407410Y-171250000D01*
D64*
X67000000Y-201925000D02*
X67000000Y-201000000D01*
D65*
X43225000Y-172000000D02*
X43225000Y-171250000D01*
D64*
X75275000Y-160500000D02*
X75275000Y-158825000D01*
X87225000Y-188250000D02*
X87225000Y-189225000D01*
X38425000Y-151725000D02*
X38425000Y-150925000D01*
X67000000Y-187925000D02*
X67000000Y-187000000D01*
X84575000Y-170700000D02*
X85025000Y-170250000D01*
X29000000Y-160000000D02*
X28500000Y-160500000D01*
X50750000Y-168945073D02*
X50750000Y-167075000D01*
D65*
X92025000Y-183750000D02*
X93000000Y-183750000D01*
D64*
X45536880Y-175750000D02*
X46575000Y-175750000D01*
X51327000Y-163673000D02*
X51275000Y-163725000D01*
D65*
X11000000Y-164975000D02*
X11975000Y-164975000D01*
X42150000Y-178400000D02*
X42500000Y-178750000D01*
X15212500Y-163000000D02*
X14250000Y-163000000D01*
D66*
X19825000Y-158325000D02*
X19750000Y-158250000D01*
D64*
X36175000Y-154675000D02*
X36500000Y-155000000D01*
X7240000Y-182010000D02*
X7250000Y-182000000D01*
X44148000Y-175448000D02*
X45234880Y-175448000D01*
D65*
X42975000Y-173000000D02*
X43225000Y-172750000D01*
D64*
X51375000Y-204800000D02*
X51375000Y-203375000D01*
X40925000Y-162979408D02*
X40925000Y-163025000D01*
X43000000Y-201750000D02*
X43000000Y-200750000D01*
X47000000Y-165225000D02*
X47000000Y-164250000D01*
X75375000Y-190800000D02*
X75375000Y-189375000D01*
X78990000Y-187010000D02*
X79000000Y-187000000D01*
D65*
X25025000Y-154350000D02*
X24928122Y-154350000D01*
D64*
X39100000Y-156000000D02*
X40450000Y-156000000D01*
X24425000Y-163425000D02*
X24500000Y-163500000D01*
X51225000Y-203225000D02*
X51250000Y-203250000D01*
X36175000Y-152525000D02*
X36175000Y-153575000D01*
D65*
X29275000Y-195812500D02*
X29275000Y-197312500D01*
D64*
X15175000Y-172000000D02*
X14500000Y-172000000D01*
X29949999Y-179473952D02*
X29326048Y-179473952D01*
X30852000Y-148172999D02*
X30524999Y-148500000D01*
X87375000Y-204800000D02*
X87375000Y-203375000D01*
D65*
X29275000Y-197312500D02*
X29275000Y-198475000D01*
D64*
X38000000Y-164800000D02*
X38425000Y-165225000D01*
D65*
X92025000Y-180750000D02*
X93000000Y-180750000D01*
D64*
X75375000Y-204800000D02*
X75375000Y-203375000D01*
X33675000Y-164925000D02*
X33675000Y-166275000D01*
X55250000Y-186450000D02*
X55500000Y-186700000D01*
D65*
X92025000Y-168750000D02*
X93000000Y-168750000D01*
X65750000Y-171250000D02*
X66200000Y-170800000D01*
X92025000Y-174750000D02*
X93000000Y-174750000D01*
D64*
X71550000Y-158050000D02*
X71600000Y-158000000D01*
X30852000Y-147341175D02*
X30852000Y-148172999D01*
X63375000Y-190800000D02*
X63375000Y-189375000D01*
X63225000Y-188250000D02*
X63225000Y-188975000D01*
X75225000Y-189225000D02*
X75250000Y-189250000D01*
D65*
X33000000Y-174725000D02*
X30500000Y-174725000D01*
D64*
X33675000Y-166275000D02*
X33200000Y-166750000D01*
D65*
X65275000Y-178250000D02*
X66725000Y-178250000D01*
D64*
X30954418Y-147238757D02*
X30954418Y-147102418D01*
X36049997Y-151100003D02*
X35400000Y-151750000D01*
X36175000Y-153575000D02*
X36175000Y-154675000D01*
X83025000Y-179750000D02*
X83025000Y-180725000D01*
D65*
X20725000Y-179500000D02*
X19750000Y-179500000D01*
D64*
X60750000Y-174250000D02*
X60500000Y-174000000D01*
X75225000Y-188250000D02*
X75225000Y-189225000D01*
D65*
X42100000Y-178400000D02*
X42150000Y-178400000D01*
D64*
X27750000Y-155500000D02*
X29000000Y-155500000D01*
X41515968Y-162434032D02*
X40925000Y-163025000D01*
D65*
X25775000Y-170250000D02*
X26750000Y-170250000D01*
D64*
X28425000Y-151725000D02*
X27625000Y-151725000D01*
X82637500Y-156462500D02*
X82700000Y-156400000D01*
D65*
X36925000Y-179750000D02*
X37050000Y-179750000D01*
D64*
X63225000Y-188975000D02*
X63500000Y-189250000D01*
X58250000Y-185775000D02*
X58250000Y-186750000D01*
X28900000Y-162500000D02*
X29100000Y-162700000D01*
X84575000Y-172137500D02*
X84575000Y-170700000D01*
X38425000Y-150925000D02*
X38400000Y-150900000D01*
X50312845Y-169382228D02*
X50750000Y-168945073D01*
D65*
X11000000Y-163575000D02*
X11075000Y-163500000D01*
X7430000Y-163495000D02*
X6855000Y-164070000D01*
D64*
X45500000Y-165225000D02*
X45500000Y-164250000D01*
X11075000Y-163500000D02*
X10275000Y-163500000D01*
D65*
X15212500Y-164500000D02*
X14250000Y-164500000D01*
X66825000Y-179325000D02*
X66750000Y-179250000D01*
D64*
X55000000Y-187925000D02*
X55000000Y-187250000D01*
X40450000Y-156000000D02*
X40925000Y-156475000D01*
X44000000Y-175475000D02*
X43225000Y-176250000D01*
X47700000Y-179250000D02*
X47750000Y-179300000D01*
X78750000Y-156000000D02*
X78750000Y-156462500D01*
X51375000Y-190800000D02*
X51375000Y-189375000D01*
D65*
X37775000Y-173775000D02*
X37500000Y-173500000D01*
D64*
X30954418Y-147102418D02*
X30725000Y-146873000D01*
D65*
X39500000Y-175250000D02*
X39500000Y-175000000D01*
D64*
X35400000Y-151750000D02*
X36175000Y-152525000D01*
D65*
X27825000Y-178250000D02*
X28750000Y-178250000D01*
D64*
X61925000Y-174250000D02*
X60750000Y-174250000D01*
X83025000Y-180725000D02*
X83000000Y-180750000D01*
X55000000Y-201925000D02*
X55000000Y-201000000D01*
X33437500Y-191312500D02*
X33500000Y-191250000D01*
%TO.N,Net-(D3-RA)*%
X87000000Y-157600000D02*
X85925000Y-156525000D01*
X87000000Y-159425000D02*
X87000000Y-157600000D01*
%TO.N,/FPGA/USR_LED_R*%
X87000000Y-161250000D02*
X79500000Y-168750000D01*
X59741957Y-179516085D02*
X59799917Y-179516085D01*
X59799917Y-179516085D02*
X60066002Y-179250000D01*
X79500000Y-168750000D02*
X79500000Y-174000000D01*
X87000000Y-161075000D02*
X87000000Y-161250000D01*
X60066002Y-179250000D02*
X61925000Y-179250000D01*
%TO.N,/FPGA/PL_RSTN*%
X73700000Y-160475000D02*
X73725000Y-160500000D01*
X73700000Y-158800000D02*
X73700000Y-160475000D01*
D66*
X72725000Y-161500000D02*
X73725000Y-160500000D01*
X52750000Y-181050000D02*
X53100000Y-180700000D01*
X65600000Y-165800000D02*
X69900000Y-161500000D01*
D64*
X73700000Y-154700000D02*
X73700000Y-158800000D01*
D66*
X52750000Y-182425000D02*
X52750000Y-181050000D01*
D64*
X73675000Y-153000000D02*
X73675000Y-154675000D01*
D66*
X53100000Y-180700000D02*
X53100000Y-177400000D01*
D64*
X73675000Y-154675000D02*
X73700000Y-154700000D01*
D66*
X69900000Y-161500000D02*
X72725000Y-161500000D01*
%TO.N,+1V8*%
D65*
X36900000Y-156300000D02*
X32477000Y-160723000D01*
X36900000Y-160000000D02*
X37900000Y-161000000D01*
D66*
X40000000Y-154250000D02*
X39400000Y-154250000D01*
D64*
X26400000Y-161000000D02*
X25925000Y-161475000D01*
X38125000Y-153575000D02*
X38425000Y-153275000D01*
X27750000Y-161000000D02*
X28806998Y-161000000D01*
X29083998Y-160723000D02*
X29200000Y-160723000D01*
X37175000Y-155425000D02*
X36900000Y-155700000D01*
D65*
X36900000Y-155700000D02*
X35900000Y-156700000D01*
X32477000Y-160723000D02*
X29200000Y-160723000D01*
X36900000Y-155700000D02*
X36900000Y-160000000D01*
D64*
X40450000Y-161000000D02*
X39100000Y-161000000D01*
D66*
X39400000Y-154250000D02*
X38425000Y-153275000D01*
D64*
X37175000Y-153575000D02*
X37175000Y-155425000D01*
X39100000Y-161000000D02*
X37900000Y-161000000D01*
X28725000Y-153575000D02*
X28425000Y-153275000D01*
D65*
X31600000Y-156700000D02*
X29700000Y-154800000D01*
D64*
X29675000Y-153575000D02*
X28725000Y-153575000D01*
X37175000Y-153575000D02*
X38125000Y-153575000D01*
D65*
X35900000Y-156700000D02*
X31600000Y-156700000D01*
D64*
X28806998Y-161000000D02*
X29083998Y-160723000D01*
X29675000Y-154775000D02*
X29700000Y-154800000D01*
X40925000Y-161475000D02*
X40450000Y-161000000D01*
X29675000Y-153575000D02*
X29675000Y-154775000D01*
D65*
X36900000Y-155700000D02*
X36900000Y-156300000D01*
D66*
X38450000Y-153250000D02*
X38425000Y-153275000D01*
D64*
X27750000Y-161000000D02*
X26400000Y-161000000D01*
%TO.N,/FPGA/I2S.SCK*%
X50125000Y-186875000D02*
X50125000Y-190800000D01*
X86125000Y-204800000D02*
X86125000Y-196250000D01*
X86125000Y-196250000D02*
X86125000Y-190800000D01*
X50125000Y-204800000D02*
X50125000Y-196250000D01*
X62125000Y-204800000D02*
X62125000Y-196250000D01*
X48750000Y-182425000D02*
X48750000Y-183750000D01*
X74125000Y-196250000D02*
X74125000Y-190800000D01*
X62125000Y-196250000D02*
X62125000Y-190800000D01*
D66*
X85500000Y-187500000D02*
X86125000Y-188125000D01*
X86125000Y-188125000D02*
X86125000Y-190800000D01*
D64*
X50125000Y-196250000D02*
X50125000Y-190800000D01*
X74125000Y-204800000D02*
X74125000Y-196250000D01*
X49250000Y-186000000D02*
X50125000Y-186875000D01*
X48750000Y-183750000D02*
X48000000Y-184500000D01*
%TO.N,/FPGA/I2S.DATA2*%
X60750000Y-190675000D02*
X60875000Y-190800000D01*
X50250000Y-186050832D02*
X51000000Y-186800832D01*
X60750000Y-189250000D02*
X60750000Y-190675000D01*
X50250000Y-182425000D02*
X50250000Y-186050832D01*
X60875000Y-204800000D02*
X60875000Y-190800000D01*
D66*
X61500000Y-188500000D02*
X60750000Y-189250000D01*
D64*
X51000000Y-186800832D02*
X51000000Y-187250000D01*
D66*
X61500000Y-187500000D02*
X61500000Y-188500000D01*
%TO.N,/FPGA/I2S.WS*%
D64*
X59625000Y-200250000D02*
X59625000Y-190800000D01*
X47625000Y-186000000D02*
X47625000Y-190800000D01*
X47625000Y-204800000D02*
X47625000Y-190800000D01*
X47625000Y-186000000D02*
X46999999Y-185999999D01*
X71625000Y-200250000D02*
X71625000Y-190800000D01*
X83625000Y-200250000D02*
X83625000Y-204800000D01*
X46999999Y-185999999D02*
X46500000Y-185500000D01*
X71625000Y-204800000D02*
X71625000Y-200250000D01*
X59625000Y-204800000D02*
X59625000Y-200250000D01*
X47625000Y-185875000D02*
X47625000Y-186000000D01*
X83625000Y-190800000D02*
X83625000Y-200250000D01*
X49250000Y-182425000D02*
X49250000Y-184250000D01*
X49250000Y-184250000D02*
X47625000Y-185875000D01*
%TO.N,Net-(J8-Pin_6)*%
X55000000Y-203575000D02*
X56500000Y-203575000D01*
X57150000Y-203575000D02*
X58375000Y-204800000D01*
X56500000Y-203575000D02*
X57150000Y-203575000D01*
%TO.N,+5V*%
X15270000Y-168000000D02*
X16750000Y-168000000D01*
D66*
X24000000Y-166500000D02*
X21750000Y-166500000D01*
D65*
X22275000Y-173500000D02*
X22275000Y-174025000D01*
X23850000Y-171925000D02*
X22275000Y-173500000D01*
X22500000Y-175312500D02*
X22450000Y-175362500D01*
X22500000Y-174250000D02*
X22500000Y-175312500D01*
X17750000Y-167750000D02*
X20500000Y-167750000D01*
X22275000Y-174025000D02*
X22500000Y-174250000D01*
X21725000Y-167750000D02*
X24225000Y-170250000D01*
X24250000Y-171925000D02*
X25987500Y-171925000D01*
X27822316Y-173700000D02*
X28387500Y-173700000D01*
X20500000Y-167750000D02*
X20500000Y-165325000D01*
D66*
X21750000Y-166500000D02*
X20500000Y-167750000D01*
D64*
X16750000Y-168000000D02*
X17500000Y-168000000D01*
X17500000Y-168000000D02*
X17750000Y-167750000D01*
D65*
X20500000Y-165325000D02*
X21825000Y-164000000D01*
X26872316Y-171800000D02*
X27275000Y-172202684D01*
X24225000Y-171900000D02*
X24250000Y-171925000D01*
X26112500Y-171800000D02*
X26872316Y-171800000D01*
X27275000Y-173152684D02*
X27822316Y-173700000D01*
X24250000Y-171925000D02*
X23850000Y-171925000D01*
X25987500Y-171925000D02*
X26112500Y-171800000D01*
X20500000Y-167750000D02*
X21725000Y-167750000D01*
X27275000Y-172202684D02*
X27275000Y-173152684D01*
X24225000Y-170250000D02*
X24225000Y-171900000D01*
%TO.N,Net-(D5-A)*%
D64*
X18250000Y-163000000D02*
X16787500Y-163000000D01*
X19250000Y-164000000D02*
X18250000Y-163000000D01*
X20175000Y-164000000D02*
X19250000Y-164000000D01*
%TO.N,Net-(J6-Pin_6)*%
X81150000Y-203575000D02*
X82375000Y-204800000D01*
X80500000Y-203575000D02*
X81150000Y-203575000D01*
X79000000Y-203575000D02*
X80500000Y-203575000D01*
%TO.N,Net-(J5-Pin_6)*%
X43000000Y-189575000D02*
X44500000Y-189575000D01*
X44500000Y-189575000D02*
X45150000Y-189575000D01*
X45150000Y-189575000D02*
X46375000Y-190800000D01*
%TO.N,/ADC/ADC3*%
X95455000Y-176250000D02*
X95975000Y-176770000D01*
X92075000Y-176250000D02*
X95455000Y-176250000D01*
%TO.N,Net-(U9-IN3)*%
X85875000Y-178875000D02*
X85875000Y-177862500D01*
X86200000Y-179200000D02*
X85875000Y-178875000D01*
X90425000Y-176250000D02*
X90425000Y-177700000D01*
X90425000Y-177700000D02*
X90475000Y-177750000D01*
X90475000Y-177750000D02*
X89250000Y-177750000D01*
X89250000Y-177750000D02*
X87800000Y-179200000D01*
X87800000Y-179200000D02*
X86200000Y-179200000D01*
%TO.N,Net-(F1-Pad2)*%
X6900000Y-162150000D02*
X7430000Y-162150000D01*
D65*
X9500000Y-164962500D02*
X9025001Y-164962500D01*
X8500000Y-162592316D02*
X8057684Y-162150000D01*
X8500000Y-164437499D02*
X8500000Y-162592316D01*
D64*
X6250000Y-157750000D02*
X6538000Y-157462000D01*
X6250000Y-161500000D02*
X6900000Y-162150000D01*
D65*
X8057684Y-162150000D02*
X7430000Y-162150000D01*
D64*
X7318000Y-157462000D02*
X7430000Y-157350000D01*
D65*
X6205001Y-161500000D02*
X5750000Y-161044999D01*
X5750000Y-161044999D02*
X5750000Y-158250000D01*
X6250000Y-161500000D02*
X6205001Y-161500000D01*
X9025001Y-164962500D02*
X8500000Y-164437499D01*
X5750000Y-158250000D02*
X6250000Y-157750000D01*
D64*
X6538000Y-157462000D02*
X7318000Y-157462000D01*
%TO.N,Net-(J1-CC1)*%
X7430000Y-158500000D02*
X8075592Y-158500000D01*
X8075592Y-158500000D02*
X9425000Y-157150592D01*
X9425000Y-157150592D02*
X9425000Y-156500000D01*
%TO.N,/USB/USB_D+*%
D66*
X8292501Y-160500000D02*
X8317501Y-160475000D01*
X6822590Y-159500000D02*
X6555000Y-159767590D01*
X10643749Y-159975000D02*
X11368749Y-160700000D01*
X7430000Y-159500000D02*
X6822590Y-159500000D01*
X9343198Y-160475000D02*
X9843198Y-159975000D01*
X9843198Y-159975000D02*
X10643749Y-159975000D01*
X6822590Y-160500000D02*
X7430000Y-160500000D01*
X6555000Y-159767590D02*
X6555000Y-160232410D01*
X6555000Y-160232410D02*
X6822590Y-160500000D01*
X8317501Y-160475000D02*
X9343198Y-160475000D01*
X11368749Y-160700000D02*
X12362500Y-160700000D01*
X7430000Y-160500000D02*
X8292501Y-160500000D01*
%TO.N,/USB/USB_D-*%
X8292501Y-160000000D02*
X8317501Y-160025000D01*
X9156802Y-160025000D02*
X9656802Y-159525000D01*
X11368749Y-158800000D02*
X12362500Y-158800000D01*
X9656802Y-159525000D02*
X10643749Y-159525000D01*
X8317501Y-160025000D02*
X9156802Y-160025000D01*
X8305000Y-159732410D02*
X8037410Y-160000000D01*
X7430000Y-159000000D02*
X8037410Y-159000000D01*
X10643749Y-159525000D02*
X11368749Y-158800000D01*
X8305000Y-159267590D02*
X8305000Y-159732410D01*
X7430000Y-160000000D02*
X8292501Y-160000000D01*
X8037410Y-160000000D02*
X7430000Y-160000000D01*
X8037410Y-159000000D02*
X8305000Y-159267590D01*
%TO.N,Net-(J1-CC2)*%
D64*
X8750000Y-161500000D02*
X9425000Y-162175000D01*
X9425000Y-162175000D02*
X9425000Y-163500000D01*
X7430000Y-161500000D02*
X8750000Y-161500000D01*
%TO.N,Net-(U1B-CBSEL1)*%
D66*
X42350000Y-177550000D02*
X45266990Y-177550000D01*
X45266990Y-177550000D02*
X45566990Y-177250000D01*
X42100000Y-177500000D02*
X42300000Y-177500000D01*
X38575000Y-179750000D02*
X38575000Y-178250000D01*
X39500000Y-178250000D02*
X38575000Y-178250000D01*
X42300000Y-177500000D02*
X42350000Y-177550000D01*
X45566990Y-177250000D02*
X46575000Y-177250000D01*
%TO.N,/Ethernet/TX+*%
X21000000Y-190137500D02*
X20300000Y-190837500D01*
X13000000Y-188100000D02*
X13000000Y-187460000D01*
X14900000Y-190000000D02*
X13000000Y-188100000D01*
X23812500Y-191000000D02*
X21862500Y-191000000D01*
X18174852Y-190000000D02*
X14900000Y-190000000D01*
X21862500Y-191000000D02*
X21000000Y-190137500D01*
X19012352Y-190837500D02*
X18174852Y-190000000D01*
X20300000Y-190837500D02*
X19012352Y-190837500D01*
%TO.N,/Ethernet/TX-*%
X16310000Y-189500000D02*
X15540000Y-188730000D01*
X23812500Y-190500000D02*
X22750000Y-190500000D01*
X18887500Y-190137500D02*
X18250000Y-189500000D01*
X18250000Y-189500000D02*
X16310000Y-189500000D01*
X20200000Y-189437500D02*
X19500000Y-190137500D01*
X19500000Y-190137500D02*
X18887500Y-190137500D01*
X21687500Y-189437500D02*
X20200000Y-189437500D01*
X22750000Y-190500000D02*
X21687500Y-189437500D01*
%TO.N,/Ethernet/RX+*%
X14900000Y-192500000D02*
X13000000Y-190600000D01*
X21562500Y-192687500D02*
X20200000Y-192687500D01*
X16284314Y-192500000D02*
X14900000Y-192500000D01*
X18262500Y-191987500D02*
X18250000Y-192000000D01*
X20200000Y-192687500D02*
X19500000Y-191987500D01*
X17286091Y-191286091D02*
X17286091Y-191498223D01*
X23812500Y-192000000D02*
X22250000Y-192000000D01*
X13000000Y-190600000D02*
X13000000Y-190000000D01*
X19500000Y-191987500D02*
X18262500Y-191987500D01*
X22250000Y-192000000D02*
X21562500Y-192687500D01*
X17286091Y-191498223D02*
X16284314Y-192500000D01*
%TO.N,/Ethernet/RX-*%
X21487500Y-191500000D02*
X21000000Y-191987500D01*
X20300000Y-191287500D02*
X18062500Y-191287500D01*
X18062500Y-191287500D02*
X15540000Y-193810000D01*
X21000000Y-191987500D02*
X20300000Y-191287500D01*
X23812500Y-191500000D02*
X21487500Y-191500000D01*
%TO.N,/Ethernet/REGOFF*%
D64*
X4500000Y-187185000D02*
X4500000Y-190250000D01*
X1000000Y-193750000D02*
X1000000Y-200250000D01*
X4500000Y-190250000D02*
X1000000Y-193750000D01*
X2590000Y-185275000D02*
X4500000Y-187185000D01*
X1750000Y-201000000D02*
X6000000Y-201000000D01*
X1000000Y-200250000D02*
X1750000Y-201000000D01*
X8250000Y-203250000D02*
X21500000Y-203250000D01*
X21500000Y-203250000D02*
X26500000Y-198250000D01*
X26500000Y-198250000D02*
X26500000Y-195000000D01*
X6000000Y-201000000D02*
X8250000Y-203250000D01*
X26500000Y-195000000D02*
X25500000Y-194000000D01*
X25500000Y-194000000D02*
X25500000Y-193187500D01*
%TO.N,Net-(J14-Pad10)*%
X2590000Y-187815000D02*
X1000000Y-186225000D01*
X1000000Y-182750000D02*
X1750000Y-182000000D01*
X1000000Y-186225000D02*
X1000000Y-182750000D01*
%TO.N,Net-(J14-Pad12)*%
X12600000Y-201500000D02*
X12200000Y-201900000D01*
X7900000Y-201900000D02*
X4535000Y-198535000D01*
X4535000Y-198535000D02*
X2590000Y-198535000D01*
X12200000Y-201900000D02*
X7900000Y-201900000D01*
%TO.N,Net-(U9-IN6)*%
X90425000Y-168700000D02*
X90475000Y-168750000D01*
X90475000Y-168750000D02*
X88568360Y-168750000D01*
X90425000Y-167250000D02*
X90425000Y-168700000D01*
X85875000Y-171443360D02*
X85875000Y-172137500D01*
X88568360Y-168750000D02*
X85875000Y-171443360D01*
%TO.N,Net-(J3-Pin_6)*%
X68500000Y-189575000D02*
X69150000Y-189575000D01*
X67000000Y-189575000D02*
X68500000Y-189575000D01*
X69150000Y-189575000D02*
X70375000Y-190800000D01*
%TO.N,Net-(U10-VDDCR)*%
X27016085Y-195103585D02*
X27725000Y-195812500D01*
X27016085Y-194741957D02*
X27016085Y-195103585D01*
X27725000Y-195812500D02*
X27725000Y-197312500D01*
X27000000Y-193187500D02*
X27687500Y-193187500D01*
X27687500Y-193187500D02*
X28000000Y-193500000D01*
%TO.N,Net-(D7-K)*%
D65*
X15212500Y-173500000D02*
X13750000Y-173500000D01*
X11712500Y-171462500D02*
X12000000Y-171750000D01*
X13750000Y-173500000D02*
X12000000Y-171750000D01*
%TO.N,Net-(D6-A)*%
D64*
X16750000Y-167500000D02*
X16750000Y-166075000D01*
X16750000Y-166075000D02*
X16825000Y-166000000D01*
D65*
X16825000Y-164537500D02*
X16787500Y-164500000D01*
X16825000Y-166000000D02*
X16825000Y-164537500D01*
%TO.N,/Power/VCC_PGOOD*%
D64*
X20550000Y-176200000D02*
X20550000Y-175362500D01*
X23250000Y-176500000D02*
X20850000Y-176500000D01*
X24250000Y-173575000D02*
X25075000Y-172750000D01*
X24250000Y-173575000D02*
X24250000Y-175500000D01*
X25075000Y-172750000D02*
X26112500Y-172750000D01*
X24250000Y-175500000D02*
X23250000Y-176500000D01*
X20850000Y-176500000D02*
X20550000Y-176200000D01*
%TO.N,+1V2*%
X61925000Y-167825000D02*
X62250000Y-167500000D01*
X49750000Y-167075000D02*
X49750000Y-165275000D01*
X60327000Y-178250000D02*
X60250000Y-178173000D01*
X61925000Y-168750000D02*
X61925000Y-167825000D01*
D65*
X28325000Y-174750000D02*
X27825000Y-175250000D01*
D64*
X46575000Y-176250000D02*
X48000000Y-176250000D01*
X61049547Y-171250000D02*
X61925000Y-171250000D01*
D65*
X27825000Y-175250000D02*
X27825000Y-176700000D01*
D64*
X49300000Y-168646359D02*
X49300000Y-168800000D01*
X48250000Y-167127000D02*
X47400000Y-167977000D01*
X48250000Y-167075000D02*
X48250000Y-167127000D01*
X46575000Y-176250000D02*
X44775000Y-176250000D01*
D65*
X30500000Y-171775000D02*
X30500000Y-173000000D01*
D64*
X49750000Y-168196359D02*
X49300000Y-168646359D01*
X61925000Y-178250000D02*
X60327000Y-178250000D01*
X47300000Y-167075000D02*
X47000000Y-166775000D01*
X60675000Y-169129408D02*
X61054408Y-168750000D01*
X60724890Y-170925343D02*
X61049547Y-171250000D01*
X49750000Y-167075000D02*
X49750000Y-168196359D01*
X48250000Y-167075000D02*
X47300000Y-167075000D01*
D66*
X31650000Y-169750000D02*
X31150000Y-169250000D01*
D64*
X61925000Y-171250000D02*
X63725000Y-171250000D01*
X46575000Y-171750000D02*
X47100000Y-171750000D01*
X63725000Y-178250000D02*
X61925000Y-178250000D01*
X53636569Y-168994294D02*
X53750000Y-168880863D01*
D65*
X27825000Y-176700000D02*
X27775000Y-176750000D01*
D64*
X46575000Y-172750000D02*
X46275000Y-172750000D01*
X61054408Y-168750000D02*
X61925000Y-168750000D01*
X60370170Y-170925343D02*
X60724890Y-170925343D01*
D66*
X33250000Y-169750000D02*
X31650000Y-169750000D01*
D65*
X29000000Y-174750000D02*
X28325000Y-174750000D01*
D64*
X53636569Y-169617444D02*
X53636569Y-168994294D01*
X60352455Y-170907628D02*
X60370170Y-170925343D01*
X53750000Y-168880863D02*
X53750000Y-167075000D01*
X55250000Y-184225000D02*
X55250000Y-182425000D01*
X53750000Y-167075000D02*
X53750000Y-165275000D01*
X55250000Y-182425000D02*
X55250000Y-181000000D01*
%TO.N,Net-(J4-Pin_6)*%
X55000000Y-189575000D02*
X56500000Y-189575000D01*
X56500000Y-189575000D02*
X57150000Y-189575000D01*
X57150000Y-189575000D02*
X58375000Y-190800000D01*
%TO.N,Net-(R43-Pad1)*%
D66*
X27750000Y-146075000D02*
X27675000Y-146000000D01*
X27750000Y-147425000D02*
X27750000Y-146075000D01*
%TO.N,Net-(U6-DO)*%
X25900000Y-148000000D02*
X26325000Y-147575000D01*
X27000000Y-148250000D02*
X26325000Y-147575000D01*
X29500000Y-147187500D02*
X29500000Y-146175000D01*
X26325000Y-147575000D02*
X26325000Y-146000000D01*
X29862500Y-147550000D02*
X29200000Y-147550000D01*
X29500000Y-146175000D02*
X29325000Y-146000000D01*
X28500000Y-148250000D02*
X27000000Y-148250000D01*
X29200000Y-147550000D02*
X28500000Y-148250000D01*
X24750000Y-148000000D02*
X25900000Y-148000000D01*
X29862500Y-147550000D02*
X29500000Y-147187500D01*
%TO.N,Net-(U10-RBIAS)*%
X24012500Y-195000000D02*
X24000000Y-194987500D01*
X22800000Y-192500000D02*
X22750000Y-192550000D01*
X24900000Y-195800000D02*
X24100000Y-195000000D01*
X23812500Y-192500000D02*
X22800000Y-192500000D01*
X24100000Y-195000000D02*
X24012500Y-195000000D01*
%TO.N,/ADC/ADC6*%
D64*
X94075000Y-167250000D02*
X95975000Y-169150000D01*
X92075000Y-167250000D02*
X94075000Y-167250000D01*
%TO.N,/FPGA/FT.RESETN*%
D66*
X69950000Y-160475000D02*
X69975000Y-160500000D01*
X57750000Y-173550000D02*
X57750000Y-181200000D01*
X40750000Y-185000000D02*
X33607602Y-185000000D01*
X69950000Y-157500000D02*
X69950000Y-154700000D01*
D64*
X70000000Y-152000000D02*
X69925000Y-152075000D01*
D66*
X69925000Y-154675000D02*
X69950000Y-154700000D01*
X33607602Y-185000000D02*
X33450000Y-184842398D01*
X69950000Y-158800000D02*
X69950000Y-160475000D01*
X69950000Y-154700000D02*
X69950000Y-158800000D01*
X33450000Y-184842398D02*
X33450000Y-183926048D01*
X41000000Y-185250000D02*
X40750000Y-185000000D01*
X58200000Y-173100000D02*
X57750000Y-173550000D01*
X57750000Y-181200000D02*
X57750000Y-182425000D01*
D64*
X69925000Y-152075000D02*
X69925000Y-153000000D01*
D66*
X69925000Y-153000000D02*
X69925000Y-154675000D01*
%TO.N,Net-(U3-FB)*%
D65*
X26225000Y-175300000D02*
X26175000Y-175250000D01*
X26225000Y-176750000D02*
X26225000Y-175300000D01*
X26112500Y-175187500D02*
X26175000Y-175250000D01*
X26175000Y-176800000D02*
X26225000Y-176750000D01*
X26175000Y-178250000D02*
X26175000Y-176800000D01*
X26112500Y-173700000D02*
X26112500Y-175187500D01*
%TO.N,/FPGA/JTAG.TMS*%
D66*
X56940000Y-154250000D02*
X56925000Y-154250000D01*
X55850000Y-176350000D02*
X55850000Y-181492590D01*
X56925000Y-154250000D02*
X54175000Y-157000000D01*
X35675000Y-164925000D02*
X35675000Y-166202818D01*
X59000000Y-153465000D02*
X59000000Y-159250000D01*
X37522182Y-168050000D02*
X43450000Y-168050000D01*
X57810000Y-152275000D02*
X57810000Y-153380000D01*
X57810000Y-153380000D02*
X56940000Y-154250000D01*
X55850000Y-181492590D02*
X55750000Y-181592590D01*
X55750000Y-181592590D02*
X55750000Y-182425000D01*
X35675000Y-166202818D02*
X37522182Y-168050000D01*
X43450000Y-168050000D02*
X43466999Y-168033001D01*
X48800000Y-169300000D02*
X54750000Y-175250000D01*
X54750000Y-175250000D02*
X55850000Y-176350000D01*
X57810000Y-152275000D02*
X59000000Y-153465000D01*
%TO.N,Net-(R75-Pad2)*%
D64*
X3400000Y-182000000D02*
X4740000Y-182000000D01*
X4740000Y-182000000D02*
X4750000Y-182010000D01*
%TO.N,Net-(U8-REF)*%
D66*
X27750000Y-158000000D02*
X26123696Y-158000000D01*
X26123696Y-158000000D02*
X25598696Y-157475000D01*
X25598696Y-157475000D02*
X21550000Y-157475000D01*
X21550000Y-157475000D02*
X20750000Y-156675000D01*
%TO.N,/Ethernet/RMII.RSTN*%
X26337500Y-187300000D02*
X26000000Y-187637500D01*
X47650000Y-173250000D02*
X46575000Y-173250000D01*
X27000000Y-187300000D02*
X26337500Y-187300000D01*
X48100000Y-173700000D02*
X47650000Y-173250000D01*
X48100000Y-174000000D02*
X48100000Y-173700000D01*
X26000000Y-189312500D02*
X26000000Y-187637500D01*
%TO.N,Net-(U8-VPHY)*%
D64*
X22187500Y-156975000D02*
X22175000Y-156962500D01*
X25175000Y-156725000D02*
X23675000Y-156725000D01*
X25200000Y-157000000D02*
X25175000Y-156975000D01*
X22187500Y-156725000D02*
X22175000Y-156712500D01*
X27750000Y-157000000D02*
X25450000Y-157000000D01*
X23675000Y-156725000D02*
X22187500Y-156725000D01*
X25450000Y-157000000D02*
X25175000Y-156725000D01*
%TO.N,/USB/USB_ESD_D-*%
D66*
X19212501Y-159000000D02*
X19737501Y-159525000D01*
X18500000Y-159000000D02*
X19212501Y-159000000D01*
X19737501Y-159525000D02*
X25440901Y-159525000D01*
X26440901Y-158525000D02*
X27100000Y-158525000D01*
X27100000Y-158525000D02*
X27125000Y-158500000D01*
X25440901Y-159525000D02*
X26440901Y-158525000D01*
X27125000Y-158500000D02*
X27750000Y-158500000D01*
%TO.N,Net-(R49-Pad2)*%
D64*
X14637500Y-158800000D02*
X16650000Y-158800000D01*
X16650000Y-158800000D02*
X16850000Y-159000000D01*
%TO.N,Net-(D4-A)*%
X81750000Y-159425000D02*
X81750000Y-158037500D01*
%TO.N,/FPGA/NSTATUS*%
D66*
X52700000Y-176600000D02*
X50850000Y-174750000D01*
X64100000Y-165900000D02*
X68800000Y-161200000D01*
X52700000Y-176700000D02*
X52700000Y-176600000D01*
X50850000Y-174750000D02*
X46575000Y-174750000D01*
X61100000Y-167650000D02*
X61100000Y-167300000D01*
X80300000Y-155700000D02*
X80300000Y-156412500D01*
X58900000Y-169850000D02*
X61100000Y-167650000D01*
X81000000Y-155600000D02*
X80400000Y-155600000D01*
X61100000Y-167300000D02*
X62500000Y-165900000D01*
X62500000Y-165900000D02*
X64100000Y-165900000D01*
X80300000Y-155700000D02*
X80200000Y-155600000D01*
X80300000Y-156412500D02*
X80250000Y-156462500D01*
X58900000Y-173300000D02*
X58900000Y-169850000D01*
X80200000Y-155600000D02*
X80200000Y-152100000D01*
X80400000Y-155600000D02*
X80300000Y-155700000D01*
%TO.N,Net-(D1-A)*%
D64*
X80250000Y-158037500D02*
X80250000Y-159425000D01*
%TO.N,/ADC/ADC7*%
X93615000Y-164250000D02*
X95975000Y-166610000D01*
X92075000Y-164250000D02*
X93615000Y-164250000D01*
%TO.N,Net-(U9-IN7)*%
X85900000Y-170325000D02*
X85900000Y-170768360D01*
X85225000Y-171443360D02*
X85225000Y-172137500D01*
X90425000Y-164250000D02*
X90425000Y-165700000D01*
X90475000Y-165750000D02*
X85900000Y-170325000D01*
X85900000Y-170768360D02*
X85225000Y-171443360D01*
X90425000Y-165700000D02*
X90475000Y-165750000D01*
%TO.N,Net-(U8-OSCI)*%
X26904408Y-156000000D02*
X27750000Y-156000000D01*
X26250000Y-155345592D02*
X26904408Y-156000000D01*
X25025000Y-152650000D02*
X25125000Y-152650000D01*
X25025000Y-152650000D02*
X26250000Y-153875000D01*
X26250000Y-153875000D02*
X26250000Y-155345592D01*
X25125000Y-152650000D02*
X26750000Y-154275000D01*
%TO.N,Net-(U8-OSCO)*%
X23975000Y-155500000D02*
X25762355Y-155500000D01*
X26762355Y-156500000D02*
X27750000Y-156500000D01*
X21000000Y-154275000D02*
X22750000Y-154275000D01*
X22825000Y-154350000D02*
X23975000Y-155500000D01*
X25762355Y-155500000D02*
X26762355Y-156500000D01*
X22750000Y-154275000D02*
X22825000Y-154350000D01*
%TO.N,/FPGA/I2S.DATA0*%
X85000000Y-190675000D02*
X84875000Y-190800000D01*
X52331930Y-183899168D02*
X52331930Y-183754930D01*
X85000000Y-189250000D02*
X85000000Y-190675000D01*
X84875000Y-190800000D02*
X84875000Y-204800000D01*
X85000000Y-189000000D02*
X83500000Y-187500000D01*
X52250000Y-183673000D02*
X52250000Y-182425000D01*
X52331930Y-183754930D02*
X52250000Y-183673000D01*
X85000000Y-189250000D02*
X85000000Y-189000000D01*
%TO.N,Net-(U8-VPLL)*%
X25302000Y-160698000D02*
X25500000Y-160500000D01*
D65*
X22925000Y-160975000D02*
X24425000Y-160975000D01*
D64*
X24702000Y-160698000D02*
X25302000Y-160698000D01*
D65*
X21425000Y-160962500D02*
X22912500Y-160962500D01*
D64*
X25750000Y-160500000D02*
X26750000Y-159500000D01*
X24425000Y-160975000D02*
X24702000Y-160698000D01*
D65*
X22912500Y-160962500D02*
X22925000Y-160975000D01*
D64*
X25500000Y-160500000D02*
X25750000Y-160500000D01*
X26750000Y-159500000D02*
X27750000Y-159500000D01*
%TO.N,Net-(R50-Pad2)*%
X14637500Y-160700000D02*
X16650000Y-160700000D01*
X16650000Y-160700000D02*
X16850000Y-160500000D01*
%TO.N,VBUS*%
X15689546Y-168500000D02*
X15270000Y-168500000D01*
D65*
X13016000Y-166000000D02*
X12491000Y-166525000D01*
D64*
X16189546Y-169000000D02*
X15689546Y-168500000D01*
X14608000Y-169933000D02*
X14608000Y-168642000D01*
X13352000Y-160373001D02*
X13352000Y-165664000D01*
X14608000Y-168642000D02*
X14750000Y-168500000D01*
D65*
X10987500Y-166537500D02*
X11000000Y-166525000D01*
D64*
X16750000Y-169000000D02*
X16189546Y-169000000D01*
D66*
X9500000Y-168750000D02*
X9500000Y-166537500D01*
D64*
X13352000Y-165664000D02*
X13016000Y-166000000D01*
D65*
X11000000Y-166525000D02*
X12491000Y-166525000D01*
D64*
X15175000Y-170500000D02*
X14608000Y-169933000D01*
D65*
X12491000Y-166525000D02*
X14571254Y-168605254D01*
X9500000Y-166537500D02*
X10987500Y-166537500D01*
D64*
X14750000Y-168500000D02*
X15270000Y-168500000D01*
X14637500Y-159750000D02*
X13975001Y-159750000D01*
X13975001Y-159750000D02*
X13352000Y-160373001D01*
D65*
X15175000Y-166000000D02*
X13016000Y-166000000D01*
%TO.N,/FPGA/RAM.SCK*%
D66*
X70925000Y-175850000D02*
X71250000Y-176175000D01*
X69750000Y-173250000D02*
X70750000Y-173250000D01*
X61925000Y-173750000D02*
X62757410Y-173750000D01*
X70925000Y-173425000D02*
X70925000Y-174362500D01*
X68750000Y-174250000D02*
X69750000Y-173250000D01*
X70750000Y-173250000D02*
X70925000Y-173425000D01*
X70925000Y-174362500D02*
X70925000Y-175850000D01*
X63257410Y-174250000D02*
X68750000Y-174250000D01*
X62757410Y-173750000D02*
X63257410Y-174250000D01*
%TO.N,/FPGA/JTAG.TDI*%
X52250000Y-152755000D02*
X52250000Y-158075000D01*
X50888909Y-170611091D02*
X56250000Y-175972182D01*
X34675000Y-166490686D02*
X37084314Y-168900000D01*
X56250000Y-175972182D02*
X56250000Y-182425000D01*
X37084314Y-168900000D02*
X41700000Y-168900000D01*
X52250000Y-158075000D02*
X54175000Y-160000000D01*
X41700000Y-168900000D02*
X42000000Y-169200000D01*
X34675000Y-164925000D02*
X34675000Y-166490686D01*
X52730000Y-152275000D02*
X52250000Y-152755000D01*
%TO.N,/Ethernet/RMII.RXD0*%
X45500000Y-180250000D02*
X45000000Y-180750000D01*
X37300000Y-192000000D02*
X35000000Y-192000000D01*
X41200000Y-187500000D02*
X41200000Y-188100000D01*
X29250000Y-192077000D02*
X30164500Y-192077000D01*
X46575000Y-180250000D02*
X45500000Y-180250000D01*
X45000000Y-183700000D02*
X41200000Y-187500000D01*
X29173000Y-192000000D02*
X29250000Y-192077000D01*
X45000000Y-180750000D02*
X45000000Y-183700000D01*
X27687500Y-192000000D02*
X29173000Y-192000000D01*
X30164500Y-192077000D02*
X30900000Y-192812500D01*
X41200000Y-188100000D02*
X37300000Y-192000000D01*
%TO.N,/ADC/ADC4*%
D64*
X92075000Y-173250000D02*
X94995000Y-173250000D01*
X94995000Y-173250000D02*
X95975000Y-174230000D01*
%TO.N,Net-(U9-IN4)*%
X90425000Y-174700000D02*
X90475000Y-174750000D01*
X90425000Y-173250000D02*
X90425000Y-174700000D01*
X90475000Y-174750000D02*
X89637500Y-174750000D01*
X89637500Y-174750000D02*
X86525000Y-177862500D01*
%TO.N,/FPGA/CLK*%
D66*
X34900000Y-190500000D02*
X34250000Y-191150000D01*
X33800000Y-195400000D02*
X32200000Y-195400000D01*
X41650000Y-173750000D02*
X46575000Y-173750000D01*
X39700000Y-182500000D02*
X41600000Y-184400000D01*
X40200000Y-179550000D02*
X39700000Y-180050000D01*
X41475000Y-173925000D02*
X41650000Y-173750000D01*
X41600000Y-185700000D02*
X36800000Y-190500000D01*
X40200000Y-175200000D02*
X40200000Y-179550000D01*
X34250000Y-194950000D02*
X33800000Y-195400000D01*
X36800000Y-190500000D02*
X34900000Y-190500000D01*
X39700000Y-180050000D02*
X39700000Y-182500000D01*
X34250000Y-191150000D02*
X34250000Y-194950000D01*
X41475000Y-173925000D02*
X40200000Y-175200000D01*
X41600000Y-184400000D02*
X41600000Y-185700000D01*
%TO.N,Net-(U9-IN1)*%
D64*
X86950000Y-182250000D02*
X84575000Y-179875000D01*
X84575000Y-179875000D02*
X84575000Y-177862500D01*
X90425000Y-182250000D02*
X86950000Y-182250000D01*
X90425000Y-183700000D02*
X90475000Y-183750000D01*
X90425000Y-182250000D02*
X90425000Y-183700000D01*
%TO.N,Net-(J2-Pin_6)*%
X78990000Y-189575000D02*
X80500000Y-189575000D01*
X80500000Y-189575000D02*
X81150000Y-189575000D01*
X81150000Y-189575000D02*
X82375000Y-190800000D01*
%TO.N,/FPGA/I2S.DATA3*%
X48875000Y-204800000D02*
X48875000Y-190800000D01*
X49750000Y-182425000D02*
X49750000Y-184466999D01*
X48250000Y-185966999D02*
X48250000Y-186500000D01*
X48750000Y-187000000D02*
X48750000Y-190675000D01*
X48750000Y-190675000D02*
X48875000Y-190800000D01*
X48250000Y-186500000D02*
X48750000Y-187000000D01*
X49750000Y-184466999D02*
X48250000Y-185966999D01*
%TO.N,VCC*%
D65*
X16787500Y-173500000D02*
X18000000Y-172287500D01*
D64*
X17169546Y-168500000D02*
X17584773Y-168915227D01*
D65*
X18000000Y-172287500D02*
X18000000Y-169500000D01*
D64*
X16750000Y-168500000D02*
X17169546Y-168500000D01*
D65*
X17584773Y-168915227D02*
X18000000Y-169330454D01*
X16750000Y-176250000D02*
X16750000Y-173537500D01*
X16750000Y-173537500D02*
X16787500Y-173500000D01*
D64*
X18000000Y-169330454D02*
X18000000Y-169500000D01*
%TO.N,/FPGA/I2S.DATA1*%
X72875000Y-190800000D02*
X72875000Y-204800000D01*
X51250000Y-183500000D02*
X51250000Y-182425000D01*
X73000000Y-189250000D02*
X73000000Y-190675000D01*
X50827000Y-184200000D02*
X50827000Y-183923000D01*
X73000000Y-189250000D02*
X73000000Y-187750000D01*
X50827000Y-183923000D02*
X51250000Y-183500000D01*
X73000000Y-190675000D02*
X72875000Y-190800000D01*
%TO.N,/FPGA/JTAG.TCK*%
D66*
X34175000Y-166925000D02*
X34175000Y-164925000D01*
X36699999Y-169449999D02*
X34175000Y-166925000D01*
X53800000Y-175600000D02*
X53800000Y-175855636D01*
X40528680Y-169449999D02*
X36699999Y-169449999D01*
X49700000Y-171500000D02*
X53800000Y-175600000D01*
X50190000Y-157515000D02*
X54175000Y-161500000D01*
X49700000Y-171200000D02*
X49700000Y-171500000D01*
X54250000Y-176305636D02*
X54250000Y-182425000D01*
X50190000Y-152275000D02*
X50190000Y-157515000D01*
X53800000Y-175855636D02*
X54250000Y-176305636D01*
%TO.N,Net-(J9-Pin_6)*%
D64*
X44500000Y-203400000D02*
X44975000Y-203400000D01*
X44975000Y-203400000D02*
X46375000Y-204800000D01*
X43000000Y-203400000D02*
X44500000Y-203400000D01*
%TO.N,/FPGA/GPIO0*%
D66*
X80100000Y-150000000D02*
X81300000Y-150000000D01*
X77800000Y-152300000D02*
X80100000Y-150000000D01*
X65300000Y-169500000D02*
X71400000Y-163400000D01*
X77800000Y-161600000D02*
X77800000Y-152300000D01*
X60750000Y-170250000D02*
X60700000Y-170300000D01*
X84790000Y-146510000D02*
X84790000Y-146500000D01*
X71400000Y-163400000D02*
X76000000Y-163400000D01*
X76000000Y-163400000D02*
X77800000Y-161600000D01*
X81300000Y-150000000D02*
X84790000Y-146510000D01*
X61925000Y-170250000D02*
X60750000Y-170250000D01*
%TO.N,/FPGA/GPIO1*%
D64*
X77100000Y-151650000D02*
X77100000Y-161100000D01*
X82250000Y-146500000D02*
X77100000Y-151650000D01*
X75400000Y-162800000D02*
X71100000Y-162800000D01*
X64150000Y-169750000D02*
X61925000Y-169750000D01*
X77100000Y-161100000D02*
X75400000Y-162800000D01*
X71100000Y-162800000D02*
X64150000Y-169750000D01*
%TO.N,/FPGA/GPIO2*%
X63700000Y-169250000D02*
X61925000Y-169250000D01*
X79710000Y-146500000D02*
X76300000Y-149910000D01*
X76300000Y-149910000D02*
X76300000Y-160900000D01*
X76300000Y-160900000D02*
X75100000Y-162100000D01*
X75100000Y-162100000D02*
X70850000Y-162100000D01*
X70850000Y-162100000D02*
X63700000Y-169250000D01*
%TO.N,/FPGA/GPIO3*%
D66*
X62075000Y-165250000D02*
X63750000Y-165250000D01*
X69000000Y-160000000D02*
X69000000Y-151750000D01*
X69000000Y-151750000D02*
X71000000Y-149750000D01*
X63750000Y-165250000D02*
X69000000Y-160000000D01*
X71000000Y-149750000D02*
X73920000Y-149750000D01*
X73920000Y-149750000D02*
X77170000Y-146500000D01*
X60250000Y-167075000D02*
X62075000Y-165250000D01*
%TO.N,/FPGA/GPIO4*%
X59750000Y-166242590D02*
X60492590Y-165500000D01*
X59750000Y-167075000D02*
X59750000Y-166242590D01*
X72130000Y-149000000D02*
X74630000Y-146500000D01*
X61750000Y-164750000D02*
X63500000Y-164750000D01*
X68300000Y-159950000D02*
X68300000Y-151450000D01*
X70750000Y-149000000D02*
X72130000Y-149000000D01*
X61000000Y-165500000D02*
X61750000Y-164750000D01*
X68300000Y-151450000D02*
X70750000Y-149000000D01*
X63500000Y-164750000D02*
X68300000Y-159950000D01*
X60492590Y-165500000D02*
X61000000Y-165500000D01*
%TO.N,/FPGA/GPIO5*%
X60500000Y-164250000D02*
X63050000Y-164250000D01*
X67600000Y-159700000D02*
X67600000Y-150990000D01*
X67600000Y-150990000D02*
X72090000Y-146500000D01*
X58750000Y-166000000D02*
X60500000Y-164250000D01*
X58750000Y-167075000D02*
X58750000Y-166000000D01*
X63050000Y-164250000D02*
X67600000Y-159700000D01*
%TO.N,/FPGA/GPIO6*%
X60250000Y-163750000D02*
X62750000Y-163750000D01*
X58250000Y-167075000D02*
X58250000Y-165750000D01*
X67000000Y-149050000D02*
X69550000Y-146500000D01*
X58250000Y-165750000D02*
X60250000Y-163750000D01*
X62750000Y-163750000D02*
X67000000Y-159500000D01*
X67000000Y-159500000D02*
X67000000Y-149050000D01*
%TO.N,/FPGA/GPIO7*%
X57750000Y-166195751D02*
X57750000Y-167075000D01*
X57800000Y-165450000D02*
X57800000Y-166145752D01*
X65250000Y-148260000D02*
X65250000Y-160250000D01*
X67010000Y-146500000D02*
X65250000Y-148260000D01*
X57800000Y-166145752D02*
X57750000Y-166195751D01*
X62250000Y-163250000D02*
X60000000Y-163250000D01*
X60000000Y-163250000D02*
X57800000Y-165450000D01*
X65250000Y-160250000D02*
X62250000Y-163250000D01*
%TO.N,Net-(U5-PR1)*%
D64*
X16825000Y-170500000D02*
X16825000Y-172000000D01*
X15270000Y-169000000D02*
X15325000Y-169000000D01*
X15325000Y-169000000D02*
X16825000Y-170500000D01*
%TO.N,Net-(U1B-CBUS0)*%
D66*
X57250000Y-167075000D02*
X57250000Y-166130066D01*
X57400000Y-165980066D02*
X57400000Y-165165686D01*
X60240686Y-162325000D02*
X60250000Y-162325000D01*
X57250000Y-166130066D02*
X57400000Y-165980066D01*
X57400000Y-165165686D02*
X60240686Y-162325000D01*
%TO.N,/ADC/ADC1*%
D64*
X92075000Y-182250000D02*
X95575000Y-182250000D01*
X95575000Y-182250000D02*
X95975000Y-181850000D01*
%TO.N,Net-(U10-VDD1A)*%
X19500000Y-188487500D02*
X21000000Y-188487500D01*
X23037500Y-193500000D02*
X22500000Y-194037500D01*
X23087500Y-188587500D02*
X23500000Y-189000000D01*
X21400000Y-194037500D02*
X21000000Y-193637500D01*
X23625000Y-193375000D02*
X23812500Y-193187500D01*
X23812500Y-193187500D02*
X24500000Y-193187500D01*
X23625000Y-193375000D02*
X23500000Y-193500000D01*
X21075000Y-195312500D02*
X21225000Y-195312500D01*
X23500000Y-189000000D02*
X23500000Y-189687500D01*
X22400000Y-188487500D02*
X22500000Y-188587500D01*
X23500000Y-193500000D02*
X23037500Y-193500000D01*
X21225000Y-195312500D02*
X22500000Y-194037500D01*
X23500000Y-189687500D02*
X23812500Y-190000000D01*
X21000000Y-195237500D02*
X21075000Y-195312500D01*
X22500000Y-188587500D02*
X23087500Y-188587500D01*
X21000000Y-188487500D02*
X22400000Y-188487500D01*
X22500000Y-194037500D02*
X21400000Y-194037500D01*
X19500000Y-193637500D02*
X21000000Y-193637500D01*
X21000000Y-193637500D02*
X21000000Y-195237500D01*
%TO.N,/ADC/ADC5*%
X94535000Y-170250000D02*
X95975000Y-171690000D01*
X92075000Y-170250000D02*
X94535000Y-170250000D01*
%TO.N,/ADC/ADC2*%
X92075000Y-179250000D02*
X95915000Y-179250000D01*
X95915000Y-179250000D02*
X95975000Y-179310000D01*
%TO.N,/ADC/ADC0*%
X92075000Y-185250000D02*
X95115000Y-185250000D01*
X95115000Y-185250000D02*
X95975000Y-184390000D01*
%TO.N,/FPGA/FT.CS*%
D66*
X39800000Y-166400000D02*
X40400000Y-166400000D01*
X51300000Y-180550000D02*
X50750000Y-181100000D01*
X44100000Y-164200000D02*
X44100000Y-161666000D01*
X51300000Y-176522182D02*
X51300000Y-180550000D01*
X50750000Y-181050000D02*
X50750000Y-181100000D01*
X49700000Y-175800000D02*
X50577818Y-175800000D01*
X43750000Y-147325000D02*
X43750000Y-146525000D01*
X50750000Y-181100000D02*
X50750000Y-182425000D01*
X52730000Y-149735000D02*
X50320000Y-147325000D01*
X32450000Y-184973769D02*
X33626231Y-186150000D01*
X40400000Y-166400000D02*
X42600000Y-164200000D01*
X44100000Y-161666000D02*
X43857000Y-161423000D01*
X32450000Y-183926048D02*
X32450000Y-184973769D01*
X59750000Y-181592590D02*
X59750000Y-182425000D01*
X59278705Y-181121295D02*
X59750000Y-181592590D01*
X33626231Y-186150000D02*
X39300000Y-186150000D01*
X50577818Y-175800000D02*
X51300000Y-176522182D01*
X50320000Y-147325000D02*
X43750000Y-147325000D01*
%TO.N,/FPGA/JTAG.TDO*%
X55270000Y-152275000D02*
X53250000Y-154295000D01*
X37250000Y-168500000D02*
X35175000Y-166425000D01*
X47825000Y-169268852D02*
X47825000Y-170097182D01*
X48613909Y-171613909D02*
X53750000Y-176750000D01*
X47825000Y-170097182D02*
X48613909Y-170886091D01*
X53250000Y-154295000D02*
X53250000Y-157575000D01*
X42650000Y-168500000D02*
X37250000Y-168500000D01*
X48613909Y-170886091D02*
X48613909Y-171613909D01*
X53750000Y-176750000D02*
X53750000Y-182425000D01*
X53250000Y-157575000D02*
X54175000Y-158500000D01*
X35175000Y-166425000D02*
X35175000Y-164925000D01*
X42750000Y-168600000D02*
X42650000Y-168500000D01*
%TO.N,Net-(U9-IN2)*%
D64*
X90425000Y-179250000D02*
X90425000Y-180700000D01*
X90425000Y-179250000D02*
X89275000Y-180400000D01*
X85225000Y-179225000D02*
X85225000Y-177862500D01*
X90425000Y-180700000D02*
X90475000Y-180750000D01*
X86400000Y-180400000D02*
X85225000Y-179225000D01*
X89275000Y-180400000D02*
X86400000Y-180400000D01*
%TO.N,/Ethernet/INTSEL*%
X25000000Y-193187500D02*
X25000000Y-194491999D01*
X25600000Y-195091999D02*
X25600000Y-197650000D01*
X21770000Y-201480000D02*
X17250000Y-201480000D01*
X25000000Y-194491999D02*
X25600000Y-195091999D01*
X25600000Y-197650000D02*
X21770000Y-201480000D01*
%TO.N,/Ethernet/RMII.CLK*%
D66*
X26500000Y-193187500D02*
X26500000Y-193639386D01*
X29250000Y-194250000D02*
X30400000Y-195400000D01*
X27300000Y-194050000D02*
X27500000Y-194250000D01*
X30400000Y-195400000D02*
X31200000Y-195400000D01*
X26500000Y-193639386D02*
X26910614Y-194050000D01*
X26910614Y-194050000D02*
X27300000Y-194050000D01*
X27500000Y-194250000D02*
X29250000Y-194250000D01*
%TO.N,/Ethernet/RMII.RXD1*%
X29250000Y-193250000D02*
X30312500Y-194312500D01*
X30312500Y-194312500D02*
X30900000Y-194312500D01*
X28500000Y-192500000D02*
X29250000Y-193250000D01*
X46000000Y-183580545D02*
X46000000Y-181000000D01*
X27687500Y-192500000D02*
X28500000Y-192500000D01*
X37000000Y-193500000D02*
X41800000Y-188700000D01*
X41800000Y-188700000D02*
X41800000Y-187780545D01*
X35000000Y-193500000D02*
X37000000Y-193500000D01*
X41800000Y-187780545D02*
X46000000Y-183580545D01*
X46250000Y-180750000D02*
X46575000Y-180750000D01*
X46000000Y-181000000D02*
X46250000Y-180750000D01*
%TO.N,/Ethernet/RMII.CRS_DV*%
X30900000Y-188312500D02*
X30900000Y-188350000D01*
X30900000Y-187200000D02*
X30900000Y-188312500D01*
X28750000Y-190500000D02*
X29750000Y-189500000D01*
X30900000Y-188350000D02*
X29750000Y-189500000D01*
X48000000Y-178500000D02*
X47750000Y-178250000D01*
X27687500Y-190500000D02*
X28750000Y-190500000D01*
X47750000Y-178250000D02*
X46575000Y-178250000D01*
%TO.N,/Ethernet/RMII.MDIO*%
X28700000Y-189400000D02*
X28287500Y-189400000D01*
X48000000Y-177750000D02*
X46575000Y-177750000D01*
X28287500Y-189400000D02*
X27687500Y-190000000D01*
%TO.N,/Ethernet/RMII.MDC*%
X41300000Y-181450000D02*
X40500000Y-182250000D01*
X41300000Y-176700000D02*
X41300000Y-181450000D01*
X45742590Y-175250000D02*
X45242590Y-174750000D01*
X27700000Y-188612500D02*
X27000000Y-189312500D01*
X45242590Y-174750000D02*
X43250000Y-174750000D01*
X46575000Y-175250000D02*
X45742590Y-175250000D01*
X27700000Y-188500000D02*
X27700000Y-188612500D01*
X43250000Y-174750000D02*
X41300000Y-176700000D01*
%TO.N,/Ethernet/RMII.INT*%
X40750000Y-176500000D02*
X40750000Y-181000000D01*
X40750000Y-181000000D02*
X40500000Y-181250000D01*
X26500000Y-189312500D02*
X26500000Y-188700000D01*
X46575000Y-174250000D02*
X43000000Y-174250000D01*
X26500000Y-188700000D02*
X27000000Y-188200000D01*
X43000000Y-174250000D02*
X40750000Y-176500000D01*
%TO.N,/Ethernet/RMII.TXEN*%
X41250000Y-170850000D02*
X38150000Y-170850000D01*
X36100000Y-180800000D02*
X34700000Y-182200000D01*
X38150000Y-170850000D02*
X36100000Y-172900000D01*
X48000000Y-170950000D02*
X47800000Y-170750000D01*
X47800000Y-170750000D02*
X46575000Y-170750000D01*
X25200000Y-185100000D02*
X25200000Y-188100000D01*
X25500000Y-188400000D02*
X25500000Y-189312500D01*
X36100000Y-172900000D02*
X36100000Y-180800000D01*
X25200000Y-188100000D02*
X25500000Y-188400000D01*
X48000000Y-171050000D02*
X48000000Y-170950000D01*
X34700000Y-182200000D02*
X28100000Y-182200000D01*
X28100000Y-182200000D02*
X25200000Y-185100000D01*
%TO.N,/Ethernet/RMII.TXD0*%
X37600000Y-170400000D02*
X35700000Y-172300000D01*
X34500000Y-181700000D02*
X27800000Y-181700000D01*
X25000000Y-188500000D02*
X25000000Y-189312500D01*
X40922182Y-170400000D02*
X37600000Y-170400000D01*
X24700000Y-188200000D02*
X25000000Y-188500000D01*
X46575000Y-170250000D02*
X41072182Y-170250000D01*
X35700000Y-180500000D02*
X34500000Y-181700000D01*
X24700000Y-184800000D02*
X24700000Y-188200000D01*
X27800000Y-181700000D02*
X24700000Y-184800000D01*
X41072182Y-170250000D02*
X40922182Y-170400000D01*
X35700000Y-172300000D02*
X35700000Y-180500000D01*
%TO.N,/Ethernet/RMII.TXD1*%
X34140302Y-181200000D02*
X27400000Y-181200000D01*
X35250000Y-180090302D02*
X34140302Y-181200000D01*
X35250000Y-171625000D02*
X35250000Y-180090302D01*
X24200000Y-184400000D02*
X24200000Y-189012500D01*
X36875000Y-170000000D02*
X35250000Y-171625000D01*
X27400000Y-181200000D02*
X24200000Y-184400000D01*
X46575000Y-169750000D02*
X41006497Y-169750000D01*
X24200000Y-189012500D02*
X24500000Y-189312500D01*
X40756497Y-170000000D02*
X36875000Y-170000000D01*
X41006497Y-169750000D02*
X40756497Y-170000000D01*
%TO.N,/FPGA/FT.SCLK*%
X49900000Y-180400000D02*
X48500000Y-180400000D01*
X37300000Y-187700000D02*
X37500000Y-187900000D01*
X45110000Y-149735000D02*
X41660000Y-149735000D01*
X30449998Y-183926048D02*
X30449998Y-184802697D01*
X50200000Y-180100000D02*
X49900000Y-180400000D01*
X48500000Y-180400000D02*
X46600000Y-182300000D01*
X46600000Y-182300000D02*
X46600000Y-183600000D01*
X50400000Y-179900000D02*
X50200000Y-180100000D01*
X30449998Y-184802697D02*
X33347301Y-187700000D01*
X61875000Y-180800000D02*
X61925000Y-180750000D01*
X60100000Y-181000000D02*
X60300000Y-180800000D01*
X50400000Y-176900000D02*
X50400000Y-179900000D01*
X60300000Y-180800000D02*
X61875000Y-180800000D01*
X41660000Y-149735000D02*
X39250000Y-147325000D01*
X33347301Y-187700000D02*
X37300000Y-187700000D01*
%TO.N,/FPGA/FT.MOSI*%
X57200000Y-175100000D02*
X57200000Y-182375000D01*
X46500000Y-148585000D02*
X42010000Y-148585000D01*
X57200000Y-182375000D02*
X57250000Y-182425000D01*
X42010000Y-148585000D02*
X40750000Y-147325000D01*
X31449999Y-185215684D02*
X33534315Y-187300000D01*
X49040000Y-157440000D02*
X49040000Y-151175000D01*
X57250000Y-183850000D02*
X57250000Y-182425000D01*
X54250000Y-172150000D02*
X57200000Y-175100000D01*
X47650000Y-149735000D02*
X46500000Y-148585000D01*
X51800000Y-160200000D02*
X49040000Y-157440000D01*
X33534315Y-187300000D02*
X38000000Y-187300000D01*
X49040000Y-151175000D02*
X47650000Y-149785000D01*
X57100000Y-184000000D02*
X57250000Y-183850000D01*
X31449999Y-183926048D02*
X31449999Y-185215684D01*
%TO.N,/FPGA/FT.CDONE*%
X72000000Y-181700000D02*
X72800000Y-181700000D01*
X72000000Y-181700000D02*
X60975000Y-181700000D01*
X40200000Y-185600000D02*
X33641917Y-185600000D01*
X72800000Y-181700000D02*
X73600000Y-182500000D01*
X76700000Y-167100000D02*
X78700000Y-165100000D01*
X76700000Y-173500000D02*
X76700000Y-167100000D01*
X75800000Y-177900000D02*
X72000000Y-181700000D01*
X32949998Y-184908081D02*
X32949998Y-183926048D01*
X79487500Y-157300000D02*
X78750000Y-158037500D01*
X79500000Y-157300000D02*
X79487500Y-157300000D01*
D64*
X78750000Y-159425000D02*
X78750000Y-158037500D01*
D66*
X60975000Y-181700000D02*
X60250000Y-182425000D01*
X78700000Y-165100000D02*
X78700000Y-162200000D01*
X33641917Y-185600000D02*
X32949998Y-184908081D01*
X40400000Y-185800000D02*
X40200000Y-185600000D01*
X75800000Y-177600000D02*
X75800000Y-177900000D01*
%TO.N,Net-(U1B-CBUS2)*%
X56525000Y-164221295D02*
X56525000Y-165723696D01*
X57250000Y-162325000D02*
X57250000Y-163496295D01*
X56250000Y-165998696D02*
X56250000Y-167075000D01*
X56525000Y-165723696D02*
X56250000Y-165998696D01*
X57250000Y-163496295D02*
X56525000Y-164221295D01*
%TO.N,Net-(U9-IN0)*%
D64*
X88450000Y-185250000D02*
X90425000Y-185250000D01*
X83925000Y-180725000D02*
X88450000Y-185250000D01*
X83925000Y-177862500D02*
X83925000Y-180725000D01*
X90425000Y-185250000D02*
X90425000Y-186700000D01*
X90425000Y-186700000D02*
X90475000Y-186750000D01*
%TO.N,/USB/EECS*%
X30175000Y-151075000D02*
X31148000Y-150102000D01*
X33175000Y-148500000D02*
X34000000Y-149325000D01*
X31148000Y-150102000D02*
X31148000Y-148827001D01*
X31148000Y-148827001D02*
X31475001Y-148500000D01*
X32137500Y-148500000D02*
X33175000Y-148500000D01*
X31475001Y-148500000D02*
X32137500Y-148500000D01*
X30175000Y-153575000D02*
X30175000Y-151075000D01*
%TO.N,/USB/USB_ESD_D+*%
D66*
X18500000Y-160500000D02*
X19212501Y-160500000D01*
X27100000Y-158975000D02*
X27125000Y-159000000D01*
X19737501Y-159975000D02*
X25556587Y-159975000D01*
X19212501Y-160500000D02*
X19737501Y-159975000D01*
X26556587Y-158975000D02*
X27100000Y-158975000D01*
X27125000Y-159000000D02*
X27750000Y-159000000D01*
X25556587Y-159975000D02*
X26556587Y-158975000D01*
%TO.N,/ADC/ADC_SPI.CS*%
X60825000Y-176982410D02*
X61142590Y-177300000D01*
X60675000Y-176806216D02*
X60825000Y-176956216D01*
X81975000Y-177862500D02*
X81112500Y-177000000D01*
X61875000Y-177300000D02*
X61925000Y-177250000D01*
X60825000Y-176956216D02*
X60825000Y-176982410D01*
X81112500Y-177000000D02*
X68000000Y-177000000D01*
X61142590Y-177300000D02*
X61875000Y-177300000D01*
%TO.N,Net-(U9-IN5)*%
D64*
X90425000Y-170250000D02*
X90425000Y-171700000D01*
X90425000Y-171700000D02*
X90475000Y-171750000D01*
X86912500Y-171750000D02*
X86525000Y-172137500D01*
X90475000Y-171750000D02*
X86912500Y-171750000D01*
%TO.N,/ADC/ADC_SPI.DIN*%
D66*
X63250000Y-175500000D02*
X63000000Y-175750000D01*
X82375000Y-173774999D02*
X83275000Y-172874999D01*
X82375000Y-174625000D02*
X82375000Y-173774999D01*
X83275000Y-172874999D02*
X83275000Y-172137500D01*
X63000000Y-175750000D02*
X61925000Y-175750000D01*
X80750000Y-176250000D02*
X82375000Y-174625000D01*
X75000000Y-176250000D02*
X80750000Y-176250000D01*
%TO.N,/ADC/ADC_SPI.DOUT*%
X82500000Y-171000000D02*
X82625000Y-171125000D01*
X76100000Y-174750000D02*
X79750000Y-174750000D01*
X60250000Y-175250000D02*
X61925000Y-175250000D01*
X79750000Y-174750000D02*
X81000000Y-173500000D01*
X60000000Y-175000000D02*
X60250000Y-175250000D01*
X82625000Y-171125000D02*
X82625000Y-172137500D01*
X81500000Y-171000000D02*
X82500000Y-171000000D01*
X81000000Y-171500000D02*
X81500000Y-171000000D01*
X81000000Y-173500000D02*
X81000000Y-171500000D01*
%TO.N,/ADC/ADC_SPI.SCLK*%
X80300000Y-175700000D02*
X74550000Y-175700000D01*
X61875000Y-176200000D02*
X61925000Y-176250000D01*
X60300000Y-176200000D02*
X61875000Y-176200000D01*
X81975000Y-172137500D02*
X81975000Y-174025000D01*
X81975000Y-174025000D02*
X80300000Y-175700000D01*
X60250000Y-176250000D02*
X60300000Y-176200000D01*
X74550000Y-175700000D02*
X74000000Y-176250000D01*
%TO.N,Net-(U1B-CBSEL0)*%
X42100000Y-176750000D02*
X42250000Y-176750000D01*
X39500000Y-176750000D02*
X38575000Y-176750000D01*
X42250000Y-176750000D02*
X42600000Y-177100000D01*
X42600000Y-177100000D02*
X45151304Y-177100000D01*
X45501304Y-176750000D02*
X46575000Y-176750000D01*
X38575000Y-175250000D02*
X38575000Y-176750000D01*
X45151304Y-177100000D02*
X45501304Y-176750000D01*
%TO.N,Net-(D3-GA)*%
D64*
X85500000Y-159425000D02*
X85925000Y-159000000D01*
X85925000Y-159000000D02*
X85925000Y-157975000D01*
%TO.N,/FPGA/USR_LED_G*%
X85500000Y-161075000D02*
X85425000Y-161075000D01*
X78250000Y-168250000D02*
X78250000Y-174000000D01*
X85425000Y-161075000D02*
X78250000Y-168250000D01*
X59750000Y-178750000D02*
X61925000Y-178750000D01*
%TO.N,/FPGA/RAM.SIO3*%
D66*
X71575000Y-175018456D02*
X71575000Y-174362500D01*
X72750000Y-176175000D02*
X72731544Y-176175000D01*
X63500000Y-173750000D02*
X68000000Y-173750000D01*
X63000000Y-173250000D02*
X63500000Y-173750000D01*
X71000000Y-172500000D02*
X71575000Y-173075000D01*
X61925000Y-173250000D02*
X63000000Y-173250000D01*
X69250000Y-172500000D02*
X71000000Y-172500000D01*
X68000000Y-173750000D02*
X69250000Y-172500000D01*
X72731544Y-176175000D02*
X71575000Y-175018456D01*
X71575000Y-173075000D02*
X71575000Y-174362500D01*
%TO.N,Net-(U3-SW)*%
D65*
X28387500Y-171800000D02*
X28387500Y-169287500D01*
X28387500Y-169287500D02*
X28350000Y-169250000D01*
%TO.N,Net-(U8-~{RESET})*%
D64*
X29500000Y-162000000D02*
X29800000Y-162300000D01*
X27750000Y-162000000D02*
X29500000Y-162000000D01*
X28050000Y-164750000D02*
X27500000Y-164750000D01*
X29800000Y-163000000D02*
X28050000Y-164750000D01*
X29800000Y-162300000D02*
X29800000Y-163000000D01*
%TO.N,/FPGA/WP_N*%
X51750000Y-184675000D02*
X51750000Y-182425000D01*
%TO.N,/FPGA/UART.TX*%
D66*
X43033001Y-160716999D02*
X43250000Y-160933998D01*
X45110000Y-152275000D02*
X45110000Y-156640000D01*
D64*
X45500000Y-169250000D02*
X43250000Y-167000000D01*
D66*
X45110000Y-156640000D02*
X42500000Y-159250000D01*
X43250000Y-160933998D02*
X43250000Y-162538120D01*
D64*
X43250000Y-162538120D02*
X41211880Y-160500000D01*
X43250000Y-167000000D02*
X43250000Y-162538120D01*
X46575000Y-169250000D02*
X45500000Y-169250000D01*
X41211880Y-160500000D02*
X39100000Y-160500000D01*
%TO.N,/FPGA/UART.RX*%
X48750000Y-167075000D02*
X48750000Y-164750000D01*
X46250000Y-163000000D02*
X43250000Y-160000000D01*
X48750000Y-164750000D02*
X47000000Y-163000000D01*
D66*
X47600000Y-152325000D02*
X47600000Y-155150000D01*
X47650000Y-152275000D02*
X47600000Y-152325000D01*
X43250000Y-159500000D02*
X43250000Y-160000000D01*
X47600000Y-155150000D02*
X43250000Y-159500000D01*
D64*
X47000000Y-163000000D02*
X46250000Y-163000000D01*
X43250000Y-160000000D02*
X39100000Y-160000000D01*
%TO.N,/FPGA/FT.MISO*%
D66*
X56300000Y-183800000D02*
X56700000Y-183400000D01*
X33500000Y-186700000D02*
X38700000Y-186700000D01*
X42950000Y-148025000D02*
X42250000Y-147325000D01*
X48480000Y-148025000D02*
X42950000Y-148025000D01*
X50190000Y-149735000D02*
X48480000Y-148025000D01*
X56700000Y-182475000D02*
X56750000Y-182425000D01*
X31950000Y-185150000D02*
X33500000Y-186700000D01*
X56750000Y-182425000D02*
X56750000Y-175550000D01*
X56700000Y-183400000D02*
X56700000Y-182475000D01*
X31950000Y-183926048D02*
X31950000Y-185150000D01*
X56750000Y-175550000D02*
X53200000Y-172000000D01*
%TO.N,/FPGA/FT.HOLD*%
X40300000Y-184328867D02*
X40128867Y-184328867D01*
X59550000Y-174000000D02*
X60350000Y-173200000D01*
X61600000Y-151658654D02*
X61600000Y-153250000D01*
X40128867Y-184328867D02*
X37800000Y-182000000D01*
X58300000Y-174000000D02*
X59550000Y-174000000D01*
X54750000Y-181592590D02*
X54750000Y-182425000D01*
X33700000Y-180650000D02*
X30650000Y-180650000D01*
X63350000Y-155000000D02*
X64425000Y-155000000D01*
X64500000Y-156250000D02*
X64500000Y-155075000D01*
X64500000Y-155075000D02*
X64425000Y-155000000D01*
X57810000Y-149735000D02*
X59125000Y-151050000D01*
X55100000Y-179150000D02*
X54700000Y-179150000D01*
X54650000Y-179100000D02*
X54650000Y-181492590D01*
X54650000Y-176127818D02*
X54650000Y-179100000D01*
X54650000Y-181492590D02*
X54750000Y-181592590D01*
X30650000Y-180650000D02*
X30450001Y-180450001D01*
X60991346Y-151050000D02*
X61600000Y-151658654D01*
X30450001Y-180450001D02*
X30450001Y-179473952D01*
X61600000Y-153250000D02*
X63350000Y-155000000D01*
X54750000Y-176027818D02*
X54650000Y-176127818D01*
X59125000Y-151050000D02*
X60991346Y-151050000D01*
X54700000Y-179150000D02*
X54650000Y-179100000D01*
%TO.N,/USB/EEDATA*%
D64*
X31408001Y-151408001D02*
X31408001Y-151591999D01*
X31408001Y-151591999D02*
X31175000Y-151825000D01*
X31175000Y-151825000D02*
X31175000Y-153575000D01*
X29862500Y-150387500D02*
X29750000Y-150500000D01*
X29862500Y-149450000D02*
X28125000Y-149450000D01*
X29862500Y-149450000D02*
X29862500Y-150387500D01*
X28125000Y-149450000D02*
X27750000Y-149075000D01*
%TO.N,/USB/EECLK*%
X32739500Y-150052000D02*
X34773000Y-150052000D01*
X32137500Y-149862500D02*
X32550000Y-149862500D01*
X32137500Y-149450000D02*
X32137500Y-149862500D01*
X32137500Y-149862500D02*
X30675000Y-151325000D01*
X30675000Y-151325000D02*
X30675000Y-153575000D01*
X32137500Y-149450000D02*
X32550000Y-149862500D01*
X34773000Y-150052000D02*
X35500000Y-149325000D01*
X32550000Y-149862500D02*
X32739500Y-150052000D01*
%TO.N,Net-(R78-Pad1)*%
X15600000Y-201480000D02*
X14270000Y-201480000D01*
X14270000Y-201480000D02*
X14250000Y-201500000D01*
%TO.N,/FPGA/REF_RES*%
X61925000Y-180250000D02*
X65175000Y-180250000D01*
%TO.N,/FPGA/CSI*%
X59250000Y-184175000D02*
X59250000Y-182425000D01*
X59750000Y-184675000D02*
X59250000Y-184175000D01*
%TO.N,/FPGA/USR_LED_B*%
X77500000Y-173800000D02*
X77500000Y-167250000D01*
X77500000Y-167250000D02*
X83675000Y-161075000D01*
X83675000Y-161075000D02*
X84000000Y-161075000D01*
X77300000Y-174000000D02*
X77500000Y-173800000D01*
X60361741Y-177432213D02*
X60679528Y-177750000D01*
X60679528Y-177750000D02*
X61925000Y-177750000D01*
%TO.N,/FPGA/RAM.SIO0*%
D66*
X69887500Y-174750000D02*
X70275000Y-174362500D01*
X61925000Y-174750000D02*
X69887500Y-174750000D01*
X69750000Y-176175000D02*
X69750000Y-174887500D01*
X69750000Y-174887500D02*
X70275000Y-174362500D01*
%TO.N,/FPGA/RAM.CS*%
X61925000Y-172250000D02*
X60750000Y-172250000D01*
X73675000Y-168000000D02*
X72862500Y-168000000D01*
X67500000Y-171750000D02*
X70500000Y-171750000D01*
X70500000Y-171750000D02*
X72225000Y-170025000D01*
X72225000Y-170025000D02*
X72225000Y-168637500D01*
X67000000Y-172250000D02*
X67500000Y-171750000D01*
X72862500Y-168000000D02*
X72225000Y-168637500D01*
%TO.N,/FPGA/RAM.SIO1*%
X60774855Y-171579178D02*
X60895677Y-171700000D01*
X72975001Y-166500000D02*
X71575000Y-167900001D01*
X73675000Y-166500000D02*
X72975001Y-166500000D01*
X67500000Y-171000000D02*
X69949999Y-171000000D01*
X69949999Y-171000000D02*
X71575000Y-169374999D01*
X61875000Y-171700000D02*
X61925000Y-171750000D01*
X71575000Y-169374999D02*
X71575000Y-168637500D01*
X60895677Y-171700000D02*
X61875000Y-171700000D01*
X60550000Y-171579178D02*
X60774855Y-171579178D01*
X71575000Y-167900001D02*
X71575000Y-168637500D01*
X67250000Y-171250000D02*
X67500000Y-171000000D01*
%TO.N,/FPGA/RAM.SIO2*%
X61925000Y-170750000D02*
X63000000Y-170750000D01*
X70925000Y-169374999D02*
X70925000Y-168637500D01*
X70049999Y-170250000D02*
X70925000Y-169374999D01*
X63500000Y-170250000D02*
X70049999Y-170250000D01*
X70925000Y-167750000D02*
X70925000Y-168637500D01*
X73675000Y-165000000D02*
X70925000Y-167750000D01*
X63000000Y-170750000D02*
X63500000Y-170250000D01*
%TO.N,Net-(U1B-TEST_N)*%
X62500000Y-161575000D02*
X61750000Y-162325000D01*
X60631954Y-164895864D02*
X60419822Y-164895864D01*
X60419822Y-164895864D02*
X59250000Y-166065686D01*
X62500000Y-161500000D02*
X62500000Y-161575000D01*
X59250000Y-166065686D02*
X59250000Y-167075000D01*
%TO.N,Net-(U1B-CBUS1)*%
X57000000Y-164750000D02*
X58750000Y-163000000D01*
X58750000Y-163000000D02*
X58750000Y-162325000D01*
X57000000Y-165814381D02*
X57000000Y-164750000D01*
X56750000Y-166064381D02*
X57000000Y-165814381D01*
X56750000Y-167075000D02*
X56750000Y-166064381D01*
%TO.N,/FPGA/BB0*%
D64*
X39100000Y-155500000D02*
X37750000Y-155500000D01*
X55151760Y-169001465D02*
X55151760Y-168960625D01*
X54750000Y-168250000D02*
X54750000Y-167075000D01*
X55122882Y-169030343D02*
X55151760Y-169001465D01*
X54813762Y-168313762D02*
X54750000Y-168250000D01*
X55151760Y-168960625D02*
X54813762Y-168622627D01*
X54813762Y-168622627D02*
X54813762Y-168313762D01*
%TO.N,/FPGA/BB1*%
X54273000Y-168993752D02*
X54273000Y-167098000D01*
X54273000Y-167098000D02*
X54250000Y-167075000D01*
X35675000Y-153575000D02*
X35675000Y-155173000D01*
X35675000Y-155173000D02*
X35752000Y-155250000D01*
X54307784Y-169028536D02*
X54273000Y-168993752D01*
%TO.N,/FPGA/BB2*%
X53119752Y-168822300D02*
X53250000Y-168692052D01*
X53119752Y-169080248D02*
X53119752Y-168822300D01*
X35175000Y-153575000D02*
X35175000Y-155652000D01*
X52564877Y-169635123D02*
X53119752Y-169080248D01*
X52564877Y-169915747D02*
X52564877Y-169635123D01*
X53250000Y-168692052D02*
X53250000Y-167075000D01*
X35175000Y-155652000D02*
X35077000Y-155750000D01*
%TO.N,/FPGA/BB3*%
X34327000Y-155213118D02*
X34327000Y-155206998D01*
X34327000Y-155206998D02*
X34675000Y-154858998D01*
X52554000Y-168946000D02*
X52554000Y-168746000D01*
X51833724Y-169666276D02*
X52554000Y-168946000D01*
X51719979Y-169666276D02*
X51833724Y-169666276D01*
X52750000Y-168550000D02*
X52750000Y-167075000D01*
X34675000Y-154858998D02*
X34675000Y-153575000D01*
X52554000Y-168746000D02*
X52750000Y-168550000D01*
%TO.N,/FPGA/BB4*%
X33826945Y-155745462D02*
X33750000Y-155668517D01*
X52100000Y-168300000D02*
X52250000Y-168150000D01*
X33750000Y-155668517D02*
X33750000Y-154845592D01*
X51781000Y-168826948D02*
X52100000Y-168507948D01*
X33750000Y-154845592D02*
X34175000Y-154420592D01*
X52250000Y-168150000D02*
X52250000Y-167075000D01*
X51781000Y-168900002D02*
X51781000Y-168826948D01*
X34175000Y-154420592D02*
X34175000Y-153575000D01*
X52100000Y-168507948D02*
X52100000Y-168300000D01*
%TO.N,/FPGA/BB5*%
X51204000Y-168496000D02*
X51750000Y-167950000D01*
X33175000Y-154911811D02*
X33175000Y-153575000D01*
X33156266Y-155256446D02*
X33156266Y-154930545D01*
X51051052Y-169460024D02*
X51204000Y-169307076D01*
X51750000Y-167950000D02*
X51750000Y-167075000D01*
X51204000Y-169307076D02*
X51204000Y-168496000D01*
X33156266Y-154930545D02*
X33175000Y-154911811D01*
%TO.N,/FPGA/BB6*%
X32675000Y-154891002D02*
X32675000Y-153575000D01*
X32500000Y-155066002D02*
X32675000Y-154891002D01*
X50250000Y-168512361D02*
X50012361Y-168750000D01*
X50250000Y-167075000D02*
X50250000Y-168512361D01*
X32500000Y-155500000D02*
X32500000Y-155066002D01*
%TO.N,/FPGA/BB7*%
X32175000Y-154575000D02*
X32175000Y-153575000D01*
X48706561Y-168320245D02*
X48824806Y-168202000D01*
X48824806Y-168202000D02*
X48993592Y-168202000D01*
X31750000Y-155000000D02*
X32175000Y-154575000D01*
X48993592Y-168202000D02*
X49250000Y-167945592D01*
X49250000Y-167945592D02*
X49250000Y-167075000D01*
X48706561Y-168428742D02*
X48706561Y-168320245D01*
%TO.N,Net-(D3-BA)*%
X84000000Y-159425000D02*
X84000000Y-159050000D01*
X84000000Y-159050000D02*
X85075000Y-157975000D01*
%TO.N,/USB/FT_SCLK*%
D66*
X30950000Y-178250000D02*
X30950000Y-179473952D01*
X27750000Y-163350000D02*
X28100000Y-163700000D01*
X30900000Y-178200000D02*
X30950000Y-178250000D01*
X27750000Y-163000000D02*
X27750000Y-163350000D01*
%TO.N,/USB/FT_MOSI*%
X29100000Y-166000000D02*
X29675000Y-165425000D01*
X29675000Y-165425000D02*
X29675000Y-164925000D01*
X31700000Y-178100000D02*
X31950000Y-178350000D01*
X31950000Y-178350000D02*
X31950000Y-179473952D01*
%TO.N,/USB/FT_MISO*%
X32450000Y-179473952D02*
X32450000Y-177850000D01*
X29764081Y-166221360D02*
X29764081Y-166143329D01*
X29764081Y-166143329D02*
X30175000Y-165732410D01*
X32450000Y-177850000D02*
X32300000Y-177700000D01*
X30175000Y-165732410D02*
X30175000Y-164925000D01*
%TO.N,/USB/FT_SS*%
X30675000Y-166425000D02*
X30500000Y-166600000D01*
X32950001Y-178167103D02*
X32950001Y-179473952D01*
X30675000Y-164925000D02*
X30675000Y-166425000D01*
X33000000Y-178117104D02*
X32950001Y-178167103D01*
%TO.N,/USB/FT_RSTN*%
X31650000Y-163072182D02*
X32222182Y-162500000D01*
X31650000Y-164900000D02*
X31650000Y-163072182D01*
X32222182Y-162500000D02*
X32400000Y-162500000D01*
X33950002Y-178049998D02*
X34100000Y-177900000D01*
X31675000Y-164925000D02*
X31650000Y-164900000D01*
X33950002Y-179473952D02*
X33950002Y-178049998D01*
%TO.N,/USB/FT_CDONE*%
X32200000Y-163300000D02*
X32200000Y-164900000D01*
X32200000Y-164900000D02*
X32175000Y-164925000D01*
X33550000Y-177550000D02*
X33500000Y-177500000D01*
X33450000Y-179473952D02*
X33450000Y-178444922D01*
X33450000Y-178444922D02*
X33550000Y-178344922D01*
X33550000Y-178344922D02*
X33550000Y-177550000D01*
%TO.N,/USB/FT_HOLD*%
X32675000Y-164075000D02*
X32675000Y-164925000D01*
X32775000Y-163975000D02*
X32675000Y-164075000D01*
X33000000Y-161900000D02*
X33000000Y-162684315D01*
X29000000Y-183900000D02*
X29026048Y-183926048D01*
X33000000Y-162684315D02*
X32775000Y-162909315D01*
X32775000Y-162909315D02*
X32775000Y-163975000D01*
X29026048Y-183926048D02*
X29949999Y-183926048D01*
%TO.N,/USB/FT_ENA*%
X33700000Y-162900000D02*
X33350000Y-162900000D01*
X34000000Y-182750000D02*
X34000000Y-182924351D01*
X33949999Y-182974352D02*
X33949999Y-183926048D01*
X34000000Y-182924351D02*
X33949999Y-182974352D01*
X34450001Y-178549999D02*
X34700000Y-178300000D01*
X33350000Y-162900000D02*
X33175000Y-163075000D01*
X34450001Y-179473952D02*
X34450001Y-178549999D01*
X33175000Y-163075000D02*
X33175000Y-164925000D01*
%TD*%
%TA.AperFunction,Conductor*%
%TO.N,Net-(D7-K)*%
G36*
X13643106Y-170255023D02*
G01*
X13658104Y-170259427D01*
X13716855Y-170297172D01*
X13718042Y-170298541D01*
X13745518Y-170353402D01*
X13747163Y-170360960D01*
X13750000Y-170387331D01*
X13750000Y-173547120D01*
X13730315Y-173614159D01*
X13677511Y-173659914D01*
X13608353Y-173669858D01*
X13544797Y-173640833D01*
X13538319Y-173634801D01*
X13509184Y-173605666D01*
X13509171Y-173605653D01*
X13488821Y-173587374D01*
X13488815Y-173587369D01*
X13488806Y-173587361D01*
X13468185Y-173570744D01*
X13468182Y-173570742D01*
X13468179Y-173570740D01*
X13379848Y-173524535D01*
X13352590Y-173516531D01*
X13312810Y-173504850D01*
X13312802Y-173504848D01*
X13240825Y-173494500D01*
X13240824Y-173494500D01*
X374500Y-173494500D01*
X307461Y-173474815D01*
X261706Y-173422011D01*
X250500Y-173370500D01*
X250500Y-170391829D01*
X255523Y-170356893D01*
X259927Y-170341895D01*
X297672Y-170283144D01*
X299041Y-170281957D01*
X353920Y-170254477D01*
X361479Y-170252833D01*
X387832Y-170250000D01*
X13608170Y-170250000D01*
X13643106Y-170255023D01*
G37*
%TD.AperFunction*%
%TD*%
%TA.AperFunction,Conductor*%
%TO.N,+1V2*%
G36*
X45222144Y-170919685D02*
G01*
X45234488Y-170928740D01*
X45479884Y-171133236D01*
X45518782Y-171191275D01*
X45524500Y-171228494D01*
X45524500Y-171363132D01*
X45524501Y-171363138D01*
X45530741Y-171410545D01*
X45579253Y-171514579D01*
X45660421Y-171595747D01*
X45764455Y-171644259D01*
X45811861Y-171650500D01*
X47260865Y-171650499D01*
X47327904Y-171670184D01*
X47348546Y-171686818D01*
X47441886Y-171780158D01*
X47475371Y-171841481D01*
X47478205Y-171867839D01*
X47478205Y-171887186D01*
X47512313Y-172014482D01*
X47518097Y-172024500D01*
X47578205Y-172128609D01*
X47671391Y-172221795D01*
X47785519Y-172287687D01*
X47912813Y-172321795D01*
X47912815Y-172321795D01*
X48044595Y-172321795D01*
X48044597Y-172321795D01*
X48044598Y-172321794D01*
X48052653Y-172320734D01*
X48052845Y-172322193D01*
X48113749Y-172323640D01*
X48171614Y-172362798D01*
X48199122Y-172427025D01*
X48200000Y-172441754D01*
X48200000Y-172676000D01*
X48180315Y-172743039D01*
X48127511Y-172788794D01*
X48076000Y-172800000D01*
X47899998Y-172800000D01*
X47829068Y-172870930D01*
X47767745Y-172904415D01*
X47709297Y-172903023D01*
X47696151Y-172899501D01*
X47696144Y-172899500D01*
X47506876Y-172899500D01*
X47454471Y-172887882D01*
X47385545Y-172855741D01*
X47385543Y-172855740D01*
X47385544Y-172855740D01*
X47338139Y-172849500D01*
X45811867Y-172849500D01*
X45796839Y-172851478D01*
X45764455Y-172855741D01*
X45764453Y-172855742D01*
X45764451Y-172855742D01*
X45660420Y-172904253D01*
X45579254Y-172985419D01*
X45559209Y-173028406D01*
X45513036Y-173080845D01*
X45446827Y-173100000D01*
X44624000Y-173100000D01*
X44556961Y-173080315D01*
X44511206Y-173027511D01*
X44500000Y-172976000D01*
X44500000Y-171024000D01*
X44519685Y-170956961D01*
X44572489Y-170911206D01*
X44624000Y-170900000D01*
X45155105Y-170900000D01*
X45222144Y-170919685D01*
G37*
%TD.AperFunction*%
%TD*%
%TA.AperFunction,Conductor*%
%TO.N,+1V2*%
G36*
X31932106Y-167699853D02*
G01*
X31999101Y-167719682D01*
X32036450Y-167757279D01*
X32196704Y-168009107D01*
X34080614Y-170969536D01*
X34100000Y-171036109D01*
X34100000Y-172476000D01*
X34080315Y-172543039D01*
X34027511Y-172588794D01*
X33976000Y-172600000D01*
X30062917Y-172600000D01*
X29995878Y-172580315D01*
X29955530Y-172538000D01*
X29918981Y-172474696D01*
X29900500Y-172442686D01*
X29807314Y-172349500D01*
X29750250Y-172316554D01*
X29693187Y-172283608D01*
X29629539Y-172266554D01*
X29565892Y-172249500D01*
X29565891Y-172249500D01*
X29424000Y-172249500D01*
X29356961Y-172229815D01*
X29311206Y-172177011D01*
X29300000Y-172125500D01*
X29300000Y-171992742D01*
X29300383Y-171983008D01*
X29300498Y-171981528D01*
X29300500Y-171981519D01*
X29300499Y-171618482D01*
X29300499Y-171618481D01*
X29300499Y-171618476D01*
X29300382Y-171616989D01*
X29300000Y-171607266D01*
X29300000Y-170993630D01*
X29265314Y-170957199D01*
X29251587Y-170902460D01*
X29225515Y-169286028D01*
X29225499Y-169284092D01*
X29225499Y-168127128D01*
X29219091Y-168067517D01*
X29212720Y-168050437D01*
X29204920Y-168009112D01*
X29201873Y-167820234D01*
X29220474Y-167752888D01*
X29272533Y-167706288D01*
X29326123Y-167694237D01*
X31932106Y-167699853D01*
G37*
%TD.AperFunction*%
%TD*%
%TA.AperFunction,Conductor*%
%TO.N,GND*%
G36*
X13307863Y-173769685D02*
G01*
X13328505Y-173786319D01*
X13442686Y-173900500D01*
X13556814Y-173966392D01*
X13658095Y-173993529D01*
X13717753Y-174029892D01*
X13748283Y-174092739D01*
X13750000Y-174113303D01*
X13750000Y-177126000D01*
X13730315Y-177193039D01*
X13677511Y-177238794D01*
X13626000Y-177250000D01*
X374500Y-177250000D01*
X307461Y-177230315D01*
X261706Y-177177511D01*
X250500Y-177126000D01*
X250500Y-173874000D01*
X270185Y-173806961D01*
X322989Y-173761206D01*
X374500Y-173750000D01*
X13240824Y-173750000D01*
X13307863Y-173769685D01*
G37*
%TD.AperFunction*%
%TD*%
M02*
